<svg xmlns="http://www.w3.org/2000/svg" xmlns:xlink="http://www.w3.org/1999/xlink" width="1013" height="102" viewBox="0 0 1013 102">
  <defs>
    <clipPath id="clip-haroohie.club_logo">
      <rect width="1013" height="102"/>
    </clipPath>
  </defs>
  <g id="haroohie.club_logo" data-name="haroohie.club logo" clip-path="url(#clip-haroohie.club_logo)">
    <path id="Union_7" data-name="Union 7" d="M-981.047-986.751a25.8,25.8,0,0,1-8.223-5.509,25.8,25.8,0,0,1-5.509-8.223,25.834,25.834,0,0,1-2.007-10.153,24.846,24.846,0,0,1,2.049-10.043,25.029,25.029,0,0,1,5.6-8.065,25.85,25.85,0,0,1,8.364-5.331A27.712,27.712,0,0,1-970.432-1036a24.536,24.536,0,0,1,16.132,6.008,24.41,24.41,0,0,1,9.1,19.553,26.714,26.714,0,0,1-1.933,10.233,24.792,24.792,0,0,1-5.385,8.143,24.725,24.725,0,0,1-8.181,5.387,26.977,26.977,0,0,1-10.262,1.93A25.664,25.664,0,0,1-981.047-986.751Zm6.781-33.923a8.22,8.22,0,0,0-2.687,2.242,11.5,11.5,0,0,0-1.878,3.544,14.276,14.276,0,0,0-.689,4.515,14.278,14.278,0,0,0,.689,4.516,11.046,11.046,0,0,0,1.837,3.468,7.749,7.749,0,0,0,2.66,2.135,7.478,7.478,0,0,0,3.374.752,6.983,6.983,0,0,0,5.707-2.625,11.159,11.159,0,0,0,1.789-3.627,15.276,15.276,0,0,0,.734-4.551,15.447,15.447,0,0,0-.667-4.646,10.877,10.877,0,0,0-1.8-3.517,8.166,8.166,0,0,0-2.631-2.211,6.692,6.692,0,0,0-3.194-.76A6.883,6.883,0,0,0-974.265-1020.674Zm-517.556,33.923a25.8,25.8,0,0,1-8.223-5.509,25.816,25.816,0,0,1-5.509-8.223,24.38,24.38,0,0,1-.9-2.493,24.53,24.53,0,0,1-.952,2.771,24.791,24.791,0,0,1-5.385,8.143,24.716,24.716,0,0,1-8.181,5.387,26.976,26.976,0,0,1-10.261,1.93,25.669,25.669,0,0,1-10.087-2.007,25.8,25.8,0,0,1-8.223-5.509,25.816,25.816,0,0,1-5.509-8.223,25.763,25.763,0,0,1-2-9.708,15.313,15.313,0,0,1-3.23,5.036l-.025.025a15.288,15.288,0,0,1-1.71,1.481,15.786,15.786,0,0,1-1.748,1.113l1.093.364.04.014a10.165,10.165,0,0,0,1.488.414c.537.1,1.416.243,2.611.413a2,2,0,0,1,1.717,1.98v11.418a2,2,0,0,1-.671,1.494,2.005,2.005,0,0,1-1.562.492,59.52,59.52,0,0,1-7.617-1.367,48.024,48.024,0,0,1-7.026-2.376,57.816,57.816,0,0,1-7.043-3.623c-1.412-.848-2.905-1.8-4.461-2.857v7.644a2,2,0,0,1-2,2h-12.8a2,2,0,0,1-2-2v-44.022a2,2,0,0,1,2-2h17.029c2.355,0,4.422.046,6.143.135a36.508,36.508,0,0,1,4.751.526,23.154,23.154,0,0,1,3.866,1.05,27.347,27.347,0,0,1,3.418,1.566l.027.014a17.372,17.372,0,0,1,6.547,6.264,16.393,16.393,0,0,1,2.249,6.921,24.069,24.069,0,0,1,.966-2.608,25.044,25.044,0,0,1,5.6-8.065,25.87,25.87,0,0,1,8.364-5.331,27.891,27.891,0,0,1,14.809-1.48,25.387,25.387,0,0,1,11.669,5.563,24.414,24.414,0,0,1,8.067,12.023,23.763,23.763,0,0,1,1-2.711,25.044,25.044,0,0,1,5.6-8.065,25.87,25.87,0,0,1,8.364-5.331,27.713,27.713,0,0,1,10.346-1.925,24.537,24.537,0,0,1,16.132,6.008,24.412,24.412,0,0,1,9.1,19.553,26.714,26.714,0,0,1-1.933,10.233,24.778,24.778,0,0,1-5.385,8.143,24.716,24.716,0,0,1-8.181,5.387,26.976,26.976,0,0,1-10.261,1.93A25.669,25.669,0,0,1-1491.821-986.751Zm6.782-33.923a8.2,8.2,0,0,0-2.687,2.242,11.467,11.467,0,0,0-1.878,3.544,14.253,14.253,0,0,0-.689,4.515,14.255,14.255,0,0,0,.689,4.516,11.036,11.036,0,0,0,1.836,3.468,7.757,7.757,0,0,0,2.66,2.135,7.479,7.479,0,0,0,3.375.752,6.982,6.982,0,0,0,5.706-2.625,11.158,11.158,0,0,0,1.79-3.627,15.305,15.305,0,0,0,.733-4.551,15.476,15.476,0,0,0-.666-4.646,10.9,10.9,0,0,0-1.805-3.517,8.157,8.157,0,0,0-2.631-2.211,6.691,6.691,0,0,0-3.193-.76A6.88,6.88,0,0,0-1485.039-1020.674Zm-49.5,0a8.2,8.2,0,0,0-2.687,2.242,11.467,11.467,0,0,0-1.878,3.544,14.253,14.253,0,0,0-.689,4.515,14.255,14.255,0,0,0,.689,4.516,11.036,11.036,0,0,0,1.836,3.468,7.757,7.757,0,0,0,2.66,2.135,7.479,7.479,0,0,0,3.375.752,6.982,6.982,0,0,0,5.706-2.625,11.158,11.158,0,0,0,1.79-3.627,15.305,15.305,0,0,0,.733-4.551,15.476,15.476,0,0,0-.666-4.646,10.9,10.9,0,0,0-1.805-3.517,8.157,8.157,0,0,0-2.631-2.211,6.691,6.691,0,0,0-3.193-.76A6.88,6.88,0,0,0-1534.539-1020.674Zm-50.663,7.969a11.073,11.073,0,0,0,2.227,1.262,7.215,7.215,0,0,0,2.637.456,7.5,7.5,0,0,0,2.606-.437,6.755,6.755,0,0,0,2.065-1.193,5.325,5.325,0,0,0,1.328-1.687,4.25,4.25,0,0,0,.448-1.943,4.059,4.059,0,0,0-2.053-3.665c-1.642-1.058-4.076-1.6-7.232-1.6h-2.026Zm431.926,27.589c-1.229-.116-2.845-.349-4.939-.714a2,2,0,0,1-1.658-1.971v-10.956a2,2,0,0,1,.7-1.517,2,2,0,0,1,1.6-.461c1.4.212,2.6.364,3.541.447.927.083,1.922.124,2.958.124a22.316,22.316,0,0,0,7.337-.969,3.379,3.379,0,0,0,1.66-.982,3.334,3.334,0,0,0-.807-.693,32.846,32.846,0,0,0-5.439-2.609l-.016-.006a23.32,23.32,0,0,1-8.507-5.687,11.749,11.749,0,0,1-3.355-7.976,13.622,13.622,0,0,1,2.036-7.1,13.689,13.689,0,0,1,5.424-5.154,26.086,26.086,0,0,1,3.351-1.531,22.125,22.125,0,0,1,3.629-.981,34.881,34.881,0,0,1,4.2-.492c1.485-.09,3.214-.135,5.137-.135h1.782c.668,0,1.678.011,3,.033,1.3.022,3.179.032,5.576.032a2,2,0,0,1,2,2v10.032a2,2,0,0,1-2,2c-.846,0-1.794-.011-2.815-.033s-1.983-.044-2.908-.067c-.9-.022-1.7-.032-2.362-.032h-1.221a14.723,14.723,0,0,0-5.02.657,3.71,3.71,0,0,0-.552.261,8.077,8.077,0,0,0,1.722.913c1.9.795,3.491,1.479,4.731,2.032,1.272.568,2.371,1.1,3.268,1.583a17.53,17.53,0,0,1,2.5,1.607c.657.518,1.345,1.11,2.042,1.761l.018.016a12.219,12.219,0,0,1,2.842,4.214,13.419,13.419,0,0,1,1.01,5.152,15.1,15.1,0,0,1-1.976,7.519,13.679,13.679,0,0,1-5.4,5.391l-.01.005a30.839,30.839,0,0,1-4.2,1.838,43.14,43.14,0,0,1-4.88,1.419,48.257,48.257,0,0,1-5.2.9,44.549,44.549,0,0,1-5.149.31C-1150.823-984.942-1152.052-985-1153.275-985.116Zm346.828-2.342a17.184,17.184,0,0,1-7.592-7.151,19.612,19.612,0,0,1-1.339-2.881v8.963a2,2,0,0,1-2,2h-26.334a2,2,0,0,1-2-2v-44.286a2,2,0,0,1,2-2h12.8a2,2,0,0,1,2,2v32.518h11.53a1.992,1.992,0,0,1,1.277.461c-.166-.656-.313-1.348-.441-2.071a40.044,40.044,0,0,1-.524-4.936c-.089-1.785-.134-3.884-.134-6.238,0-1.5.011-2.954.033-4.323s.055-2.819.1-4.348.1-3.177.166-4.935.144-3.775.231-6.009a2,2,0,0,1,2-1.922H-801.6a2,2,0,0,1,1.417.589,2,2,0,0,1,.583,1.419l-.066,16.764c0,2.167.022,4.045.065,5.578.042,1.5.127,2.791.251,3.849a15.356,15.356,0,0,0,.461,2.474,6.7,6.7,0,0,0,.6,1.471c.016.027.032.055.046.083a3.593,3.593,0,0,0,1.573,1.534,5.388,5.388,0,0,0,2.594.626c1.529,0,5.59,0,5.59-9.749v-2.408c0-.7-.011-1.452-.032-2.222s-.055-1.665-.1-2.64-.1-2.168-.165-3.523-.143-3.015-.23-4.922c-.087-1.892-.2-4.188-.33-6.823a2,2,0,0,1,.549-1.479,2,2,0,0,1,1.449-.621h11.88a2,2,0,0,1,1.993,1.84c.176,2.2.321,4.162.431,5.837s.2,3.265.266,4.726.112,2.914.133,4.316.033,2.921.033,4.552a97.259,97.259,0,0,1-.544,11.64,20.472,20.472,0,0,1-2,7.128,16.426,16.426,0,0,1-7.809,7.068,28.03,28.03,0,0,1-11.971,2.433A25.918,25.918,0,0,1-806.448-987.458Zm-61.638.538a27.521,27.521,0,0,1-9.247-4.955,22.13,22.13,0,0,1-6.016-7.866,24.466,24.466,0,0,1-2.1-10.237,24.8,24.8,0,0,1,2.159-10.331,24.818,24.818,0,0,1,5.957-8.179,26.846,26.846,0,0,1,9.049-5.317,33.436,33.436,0,0,1,11.3-1.866,28.153,28.153,0,0,1,2.915.142c.866.092,2.031.251,3.466.475a2,2,0,0,1,1.691,1.976v10.1a2,2,0,0,1-.641,1.467,2,2,0,0,1-1.513.526c-1.133-.086-2.027-.153-2.657-.2-.589-.04-1.176-.061-1.743-.061a17.678,17.678,0,0,0-5.356.746,10.855,10.855,0,0,0-3.857,2.127,9.556,9.556,0,0,0-3.175,7.667,10.768,10.768,0,0,0,1.166,5.028,8.292,8.292,0,0,0,3.146,3.422,15.759,15.759,0,0,0,1.9.965c.71.3,1.453.582,2.205.826a14.793,14.793,0,0,0,2.12.524,11.406,11.406,0,0,0,1.85.171,15.649,15.649,0,0,0,1.654-.119c.755-.086,1.644-.2,2.641-.327a2,2,0,0,1,1.579.481,2,2,0,0,1,.68,1.5v10.758a2,2,0,0,1-1.858,2c-1.233.088-2.228.155-2.958.2-.763.047-1.614.07-2.53.07A38.63,38.63,0,0,1-868.086-986.919Zm-388.292.974a59.524,59.524,0,0,1-7.617-1.367,48.017,48.017,0,0,1-7.026-2.376,57.818,57.818,0,0,1-7.043-3.623c-1.413-.848-2.905-1.8-4.462-2.857v7.644a2,2,0,0,1-2,2h-12.8a2,2,0,0,1-2-2v-44.022a2,2,0,0,1,2-2h17.028c2.356,0,4.423.046,6.142.135a36.484,36.484,0,0,1,4.751.526,23.163,23.163,0,0,1,3.867,1.05,27.4,27.4,0,0,1,3.418,1.566l.026.014a17.365,17.365,0,0,1,6.547,6.264,16.577,16.577,0,0,1,2.328,8.614,16.752,16.752,0,0,1-1.126,6.1,15.341,15.341,0,0,1-3.263,5.118l-.024.025a15.284,15.284,0,0,1-1.711,1.481,15.718,15.718,0,0,1-1.748,1.113l1.093.364.041.014a10.179,10.179,0,0,0,1.487.414c.538.1,1.417.243,2.612.413a2,2,0,0,1,1.716,1.98v6.448c.479-2.593,1.049-5.2,1.7-7.8,1-3.96,2.208-7.919,3.587-11.768s2.948-7.632,4.663-11.239a112.112,112.112,0,0,1,5.545-10.282,2,2,0,0,1,1.706-.958h12.408a2,2,0,0,1,1.722.982c1.871,3.164,3.6,6.43,5.137,9.706s2.974,6.78,4.265,10.409,2.493,7.525,3.579,11.606c1.083,4.065,2.125,8.545,3.1,13.315a2,2,0,0,1-.41,1.665,2,2,0,0,1-1.549.734h-13a2,2,0,0,1-1.967-1.636l-1.017-5.492h-12.5l-.963,5.475a2,2,0,0,1-1.97,1.653h-12.738a2,2,0,0,1-1.457-.63,2,2,0,0,1-.513.718,2.006,2.006,0,0,1-1.331.506A2.005,2.005,0,0,1-1256.378-985.945Zm25.126-29.007c-.518,1.318-.977,2.532-1.365,3.608-.392,1.092-.78,2.176-1.151,3.224-.121.342-.247.707-.375,1.094h6.048q-.276-.833-.516-1.569c-.387-1.183-.79-2.349-1.2-3.467-.386-1.056-.816-2.165-1.28-3.3Q-1231.172-1015.152-1231.251-1014.953Zm-51.275,2.248a11.1,11.1,0,0,0,2.227,1.262,7.215,7.215,0,0,0,2.637.456,7.509,7.509,0,0,0,2.607-.437,6.752,6.752,0,0,0,2.065-1.194,5.311,5.311,0,0,0,1.328-1.686,4.24,4.24,0,0,0,.449-1.943,4.059,4.059,0,0,0-2.053-3.665c-1.642-1.058-4.076-1.6-7.233-1.6h-2.026Zm515.242,26.178a2,2,0,0,1-2-2v-44.022a2,2,0,0,1,2-2h20.46c1.753,0,3.32.046,4.657.137,1.359.092,2.6.233,3.7.419a17.861,17.861,0,0,1,3.161.822,22.946,22.946,0,0,1,2.749,1.229l.029.015a14.791,14.791,0,0,1,5.142,4.579,10.74,10.74,0,0,1,2.036,6.151,10.562,10.562,0,0,1-2.873,7.061l-.051.056a13.087,13.087,0,0,1-2.127,1.831,10.983,10.983,0,0,1,2.212,1.907,13.248,13.248,0,0,1,3.7,9.341,13.445,13.445,0,0,1-1.895,6.924,14.374,14.374,0,0,1-5.088,5.09l-.059.034c-.931.512-1.765.928-2.479,1.237a12.073,12.073,0,0,1-2.923.8,31.6,31.6,0,0,1-3.883.321c-1.465.044-3.44.067-5.869.067Zm14.474-12.712h4.073c3.924,0,5.687-.463,6.476-.851a1.737,1.737,0,0,0,1.028-1.836,3.262,3.262,0,0,0-.495-1.757,3.986,3.986,0,0,0-1.438-1.374,6.987,6.987,0,0,0-2.045-.639,24.394,24.394,0,0,0-3.856-.236h-3.742Zm0-19.206h3.875c1.03,0,1.885-.011,2.542-.032.61-.02,1.13-.059,1.544-.114a5.878,5.878,0,0,0,.927-.192,4.131,4.131,0,0,0,.748-.335l0,0c.88-.485.88-.9.88-1.152a1.268,1.268,0,0,0-.722-1.228,7.394,7.394,0,0,0-3.68-.732h-6.118Zm-160.2,31.918a2,2,0,0,1-1.477-.652,2,2,0,0,1-.515-1.529c.039-.422.058-.85.058-1.272v-1.188a14.069,14.069,0,0,0-.634-4.218,24.488,24.488,0,0,0-2.137-4.685,47.229,47.229,0,0,0-2.746-4.2,34.659,34.659,0,0,0-3.15-3.68,51.987,51.987,0,0,0-3.973-3.621q-.946-.783-2.039-1.625v24.668a2,2,0,0,1-2,2h-10.758a2,2,0,0,1-2-2v-43.825a2,2,0,0,1,2-2h10.3a2,2,0,0,1,1.029.285c2.22,1.332,4.249,2.617,6.03,3.82,1.8,1.218,3.5,2.477,5.036,3.743a53.27,53.27,0,0,1,4.39,4.047q.293.3.589.617v-10.513a2,2,0,0,1,2-2h10.692a2,2,0,0,1,2,2v43.825a2,2,0,0,1-2,2Zm-99.725,0a2,2,0,0,1-2-2v-44.088a2,2,0,0,1,2-2h12.8a2,2,0,0,1,2,2v44.088a2,2,0,0,1-2,2Zm-27.193,0a2,2,0,0,1-2-2v-32.122h-7.636a2,2,0,0,1-2-2v-9.833a2,2,0,0,1,.588-1.416,2,2,0,0,1,1.412-.584h0l32.274.066a2,2,0,0,1,2,2v9.768a2,2,0,0,1-2,2h-7.834v32.122a2,2,0,0,1-2,2Zm-20,0a2,2,0,0,1-1.967-1.636l-1.017-5.492h-12.5l-.963,5.475a2,2,0,0,1-1.97,1.653h-12.738a2,2,0,0,1-.725-.136,2.007,2.007,0,0,1-.726.136h-26.335a2,2,0,0,1-2-2v-44.286a2,2,0,0,1,2-2h12.8a2,2,0,0,1,2,2v32.518h11.531a1.994,1.994,0,0,1,1.568.759q.14-.582.288-1.163c1-3.96,2.208-7.919,3.587-11.768s2.948-7.632,4.663-11.239a111.875,111.875,0,0,1,5.545-10.282,2,2,0,0,1,1.706-.958h12.408a2,2,0,0,1,1.721.982c1.872,3.164,3.6,6.43,5.139,9.706s2.973,6.78,4.264,10.409,2.493,7.525,3.579,11.606,2.125,8.547,3.1,13.315a2,2,0,0,1-.41,1.665,2,2,0,0,1-1.549.734Zm-9.556-28.427c-.519,1.318-.978,2.532-1.366,3.608-.392,1.092-.78,2.176-1.151,3.224-.121.342-.247.706-.375,1.094h6.048q-.275-.833-.516-1.569c-.387-1.183-.79-2.349-1.2-3.467-.386-1.056-.816-2.165-1.28-3.3Zm-105.746,28.427a2,2,0,0,1-1.477-.651,2,2,0,0,1-.515-1.53c.039-.422.058-.85.058-1.272v-1.188a14.039,14.039,0,0,0-.635-4.218,24.408,24.408,0,0,0-2.134-4.681,47.019,47.019,0,0,0-2.748-4.2,34.457,34.457,0,0,0-3.151-3.679,51.779,51.779,0,0,0-3.972-3.622q-.946-.782-2.039-1.625v24.668a2,2,0,0,1-2,2H-1204.6a2,2,0,0,1-2-2v-43.825a2,2,0,0,1,2-2h10.3a2,2,0,0,1,1.029.285c2.219,1.332,4.248,2.616,6.03,3.82,1.8,1.218,3.5,2.478,5.036,3.743a53.13,53.13,0,0,1,4.389,4.047q.294.3.589.617v-10.513a2,2,0,0,1,2-2h10.692a2,2,0,0,1,2,2v43.825a2,2,0,0,1-2,2Zm-149.292,0a2,2,0,0,1-2-2v-32.122h-7.636a2,2,0,0,1-2-2v-9.833a2,2,0,0,1,.588-1.416,2,2,0,0,1,1.412-.584h0l32.274.066a2,2,0,0,1,2,2v9.768a2,2,0,0,1-2,2h-7.833v32.122a2,2,0,0,1-2,2Zm-59.334,0a2,2,0,0,1-2-2v-44.088a2,2,0,0,1,2-2h31.746a2,2,0,0,1,2,2v9.636a2,2,0,0,1-2,2l-16.942-.107v3.2h17.582a2,2,0,0,1,2,2v9.9a2,2,0,0,1-2,2h-17.582v3.626h17.6a2,2,0,0,1,2,2v9.834a2,2,0,0,1-2,2Zm-20.988,0a2,2,0,0,1-2-2v-44.088a2,2,0,0,1,2-2h12.8a2,2,0,0,1,2,2v44.088a2,2,0,0,1-2,2Zm-21.186,0a2,2,0,0,1-2-2v-20.836h-10.322v20.836a2,2,0,0,1-2,2h-12.8a2,2,0,0,1-2-2v-44.022a2,2,0,0,1,2-2h12.8a2,2,0,0,1,2,2v10.077h10.124v-10.077a2,2,0,0,1,2-2h13a2,2,0,0,1,2,2v44.022a2,2,0,0,1-2,2Zm-191.2,0a2,2,0,0,1-1.967-1.636l-1.017-5.492h-12.5l-.963,5.475a2,2,0,0,1-1.969,1.653h-12.739a2,2,0,0,1-1.514-.693,2,2,0,0,1-.464-1.6,120.484,120.484,0,0,1,2.382-11.88c1-3.96,2.209-7.919,3.587-11.768s2.949-7.632,4.663-11.239a112.112,112.112,0,0,1,5.545-10.282,2,2,0,0,1,1.707-.958h12.407a2,2,0,0,1,1.722.982c1.871,3.164,3.6,6.43,5.138,9.706s2.973,6.779,4.265,10.409,2.492,7.526,3.579,11.606,2.124,8.547,3.1,13.315a2,2,0,0,1-.411,1.665,2,2,0,0,1-1.549.734Zm-9.557-28.427c-.518,1.317-.977,2.53-1.365,3.608s-.78,2.176-1.152,3.224q-.181.513-.375,1.094h6.048q-.274-.833-.516-1.569c-.388-1.186-.791-2.353-1.2-3.467-.385-1.056-.815-2.165-1.28-3.3Zm-39.085,28.427a2,2,0,0,1-2-2v-20.836H-1678.2v20.836a2,2,0,0,1-2,2H-1693a2,2,0,0,1-2-2v-44.022a2,2,0,0,1,2-2h12.8a2,2,0,0,1,2,2v10.077h10.124v-10.077a2,2,0,0,1,2-2h13a2,2,0,0,1,2,2v44.022a2,2,0,0,1-2,2Z" transform="translate(1716.248 1061.372)" fill="#fff"/>
    <path id="Union_7_-_Outline" data-name="Union 7 - Outline" d="M-970.96-984.744a26.977,26.977,0,0,0,10.262-1.93,24.725,24.725,0,0,0,8.181-5.387,24.794,24.794,0,0,0,5.385-8.143,26.715,26.715,0,0,0,1.933-10.233,24.411,24.411,0,0,0-9.1-19.554A24.535,24.535,0,0,0-970.432-1036a27.711,27.711,0,0,0-10.345,1.925,25.847,25.847,0,0,0-8.364,5.331,25.027,25.027,0,0,0-5.6,8.065,24.846,24.846,0,0,0-2.049,10.043,25.834,25.834,0,0,0,2.007,10.153,25.8,25.8,0,0,0,5.509,8.223,25.8,25.8,0,0,0,8.223,5.509,25.665,25.665,0,0,0,10.086,2.007m-.066-36.7a6.692,6.692,0,0,1,3.194.76,8.165,8.165,0,0,1,2.631,2.211,10.875,10.875,0,0,1,1.8,3.517,15.446,15.446,0,0,1,.667,4.646,15.275,15.275,0,0,1-.734,4.551,11.157,11.157,0,0,1-1.789,3.627,6.983,6.983,0,0,1-5.707,2.625,7.479,7.479,0,0,1-3.374-.751,7.75,7.75,0,0,1-2.66-2.135,11.046,11.046,0,0,1-1.837-3.468,14.278,14.278,0,0,1-.689-4.516,14.276,14.276,0,0,1,.689-4.515,11.5,11.5,0,0,1,1.878-3.544,8.218,8.218,0,0,1,2.687-2.242,6.881,6.881,0,0,1,3.239-.766m-510.708,36.7a26.976,26.976,0,0,0,10.261-1.93,24.714,24.714,0,0,0,8.181-5.387,24.777,24.777,0,0,0,5.385-8.143,26.714,26.714,0,0,0,1.933-10.233,24.412,24.412,0,0,0-9.1-19.554,24.537,24.537,0,0,0-16.132-6.008,27.713,27.713,0,0,0-10.346,1.925,25.868,25.868,0,0,0-8.364,5.331,25.043,25.043,0,0,0-5.6,8.065,23.729,23.729,0,0,0-1,2.711,24.414,24.414,0,0,0-8.067-12.023,25.387,25.387,0,0,0-11.669-5.563,27.888,27.888,0,0,0-14.809,1.48,25.868,25.868,0,0,0-8.364,5.331,25.043,25.043,0,0,0-5.6,8.065,24.055,24.055,0,0,0-.966,2.608,16.391,16.391,0,0,0-2.249-6.921,17.372,17.372,0,0,0-6.547-6.264l-.027-.014a27.339,27.339,0,0,0-3.418-1.566,23.155,23.155,0,0,0-3.866-1.05,36.493,36.493,0,0,0-4.751-.526c-1.721-.089-3.787-.135-6.143-.135h-17.029a2,2,0,0,0-2,2v44.022a2,2,0,0,0,2,2h12.8a2,2,0,0,0,2-2v-7.644c1.556,1.054,3.049,2.01,4.461,2.858a57.842,57.842,0,0,0,7.043,3.623,48.024,48.024,0,0,0,7.026,2.376,59.51,59.51,0,0,0,7.617,1.367,2,2,0,0,0,1.562-.492,2,2,0,0,0,.671-1.494V-999.35a2,2,0,0,0-1.717-1.98c-1.2-.17-2.074-.31-2.611-.413a10.154,10.154,0,0,1-1.488-.414l-.04-.014-1.093-.364a15.777,15.777,0,0,0,1.748-1.113,15.281,15.281,0,0,0,1.71-1.481.272.272,0,0,0,.025-.025,15.312,15.312,0,0,0,3.23-5.036,25.765,25.765,0,0,0,2,9.708,25.814,25.814,0,0,0,5.509,8.223,25.8,25.8,0,0,0,8.223,5.509,25.669,25.669,0,0,0,10.087,2.007,26.976,26.976,0,0,0,10.261-1.93,24.716,24.716,0,0,0,8.181-5.387,24.792,24.792,0,0,0,5.385-8.143,24.51,24.51,0,0,0,.952-2.771,24.413,24.413,0,0,0,.9,2.493,25.814,25.814,0,0,0,5.509,8.223,25.8,25.8,0,0,0,8.223,5.509,25.669,25.669,0,0,0,10.087,2.007m-.066-36.7a6.691,6.691,0,0,1,3.193.76,8.157,8.157,0,0,1,2.631,2.211,10.9,10.9,0,0,1,1.805,3.517,15.476,15.476,0,0,1,.666,4.646,15.306,15.306,0,0,1-.733,4.551,11.157,11.157,0,0,1-1.79,3.627,6.982,6.982,0,0,1-5.706,2.625,7.48,7.48,0,0,1-3.375-.751,7.759,7.759,0,0,1-2.66-2.135,11.036,11.036,0,0,1-1.836-3.468,14.256,14.256,0,0,1-.689-4.516,14.253,14.253,0,0,1,.689-4.515,11.467,11.467,0,0,1,1.878-3.544,8.2,8.2,0,0,1,2.688-2.242,6.879,6.879,0,0,1,3.239-.766m-49.5,0a6.691,6.691,0,0,1,3.193.76,8.157,8.157,0,0,1,2.631,2.211,10.9,10.9,0,0,1,1.805,3.517,15.472,15.472,0,0,1,.666,4.646,15.306,15.306,0,0,1-.734,4.551,11.157,11.157,0,0,1-1.79,3.627,6.982,6.982,0,0,1-5.706,2.625,7.48,7.48,0,0,1-3.375-.751,7.759,7.759,0,0,1-2.66-2.135,11.036,11.036,0,0,1-1.836-3.468,14.256,14.256,0,0,1-.689-4.516,14.253,14.253,0,0,1,.689-4.515,11.47,11.47,0,0,1,1.878-3.544,8.2,8.2,0,0,1,2.688-2.242,6.879,6.879,0,0,1,3.239-.766m-53.9-.067h2.026c3.156,0,5.59.537,7.232,1.6a4.059,4.059,0,0,1,2.053,3.665,4.25,4.25,0,0,1-.448,1.943,5.321,5.321,0,0,1-1.328,1.687,6.75,6.75,0,0,1-2.065,1.193,7.948,7.948,0,0,1-5.243-.02,11.07,11.07,0,0,1-2.227-1.262v-8.8m435.579,36.564a44.563,44.563,0,0,0,5.149-.31,48.287,48.287,0,0,0,5.2-.9,43.165,43.165,0,0,0,4.88-1.419,30.846,30.846,0,0,0,4.2-1.838l.01-.005a13.679,13.679,0,0,0,5.4-5.391,15.1,15.1,0,0,0,1.976-7.518,13.419,13.419,0,0,0-1.01-5.152,12.218,12.218,0,0,0-2.842-4.214l-.018-.016c-.7-.652-1.385-1.244-2.042-1.761a17.529,17.529,0,0,0-2.5-1.607c-.9-.482-2-1.015-3.268-1.583-1.24-.553-2.831-1.237-4.731-2.032a8.071,8.071,0,0,1-1.722-.913,3.708,3.708,0,0,1,.552-.261,14.722,14.722,0,0,1,5.02-.657h1.221c.663,0,1.457.011,2.362.032q1.388.034,2.908.067c1.022.022,1.969.033,2.815.033a2,2,0,0,0,2-2v-10.032a2,2,0,0,0-2-2c-2.4,0-4.274-.011-5.576-.032-1.325-.022-2.336-.033-3-.033h-1.782c-1.923,0-3.652.045-5.137.135a34.857,34.857,0,0,0-4.2.492,22.125,22.125,0,0,0-3.629.981,26.062,26.062,0,0,0-3.351,1.531,13.689,13.689,0,0,0-5.424,5.154,13.623,13.623,0,0,0-2.036,7.1,11.749,11.749,0,0,0,3.355,7.976,23.318,23.318,0,0,0,8.507,5.687l.016.006a32.861,32.861,0,0,1,5.439,2.609,3.338,3.338,0,0,1,.807.693,3.377,3.377,0,0,1-1.66.982,22.311,22.311,0,0,1-7.337.969c-1.036,0-2.031-.041-2.958-.124-.944-.084-2.136-.235-3.541-.447a2,2,0,0,0-1.6.461,2,2,0,0,0-.7,1.516V-987.8a2,2,0,0,0,1.658,1.971c2.094.365,3.711.6,4.939.714s2.452.174,3.653.174m354.684-.132a28.03,28.03,0,0,0,11.971-2.433,16.425,16.425,0,0,0,7.809-7.068,20.471,20.471,0,0,0,2-7.128,97.273,97.273,0,0,0,.543-11.64c0-1.631-.011-3.163-.033-4.552s-.067-2.854-.133-4.316-.157-3.051-.267-4.726-.255-3.638-.431-5.837a2,2,0,0,0-1.993-1.84h-11.88a2,2,0,0,0-1.449.621,2,2,0,0,0-.549,1.479c.132,2.635.243,4.931.33,6.823.087,1.907.165,3.563.23,4.922s.122,2.54.165,3.523.077,1.863.1,2.64.033,1.517.033,2.222v2.408c0,9.749-4.061,9.749-5.59,9.749a5.388,5.388,0,0,1-2.594-.626,3.594,3.594,0,0,1-1.573-1.534c-.014-.028-.03-.056-.046-.083a6.7,6.7,0,0,1-.6-1.471,15.356,15.356,0,0,1-.461-2.474c-.124-1.058-.209-2.353-.251-3.849-.043-1.534-.065-3.411-.065-5.578l.066-16.764a2,2,0,0,0-.583-1.419,2,2,0,0,0-1.417-.589h-13.068a2,2,0,0,0-2,1.922c-.087,2.235-.166,4.256-.231,6.009s-.122,3.417-.166,4.935-.077,2.991-.1,4.348-.033,2.822-.033,4.323c0,2.354.045,4.453.134,6.238a40.055,40.055,0,0,0,.524,4.936c.128.723.275,1.415.441,2.071a1.992,1.992,0,0,0-1.277-.461h-11.53v-32.518a2,2,0,0,0-2-2h-12.8a2,2,0,0,0-2,2v44.286a2,2,0,0,0,2,2h26.334a2,2,0,0,0,2-2v-8.963a19.606,19.606,0,0,0,1.339,2.881,17.184,17.184,0,0,0,7.592,7.151,25.918,25.918,0,0,0,11.509,2.383m-61.313-.131c.916,0,1.767-.023,2.53-.07.73-.044,1.725-.111,2.958-.2a2,2,0,0,0,1.858-2v-10.758a2,2,0,0,0-.681-1.5,2,2,0,0,0-1.578-.481c-1,.131-1.885.24-2.641.327a15.622,15.622,0,0,1-1.654.119,11.4,11.4,0,0,1-1.849-.171,14.769,14.769,0,0,1-2.12-.524c-.752-.244-1.495-.522-2.205-.826a15.776,15.776,0,0,1-1.9-.965,8.293,8.293,0,0,1-3.146-3.422,10.769,10.769,0,0,1-1.166-5.028,9.556,9.556,0,0,1,3.175-7.667,10.854,10.854,0,0,1,3.857-2.127,19.33,19.33,0,0,1,7.1-.685c.63.043,1.524.11,2.657.2a2,2,0,0,0,1.513-.526,2,2,0,0,0,.641-1.467v-10.1a2,2,0,0,0-1.691-1.976c-1.435-.224-2.6-.383-3.466-.475a28.153,28.153,0,0,0-2.915-.142,33.436,33.436,0,0,0-11.3,1.866,26.846,26.846,0,0,0-9.049,5.317,24.817,24.817,0,0,0-5.957,8.179,24.8,24.8,0,0,0-2.159,10.331,24.466,24.466,0,0,0,2.1,10.237,22.13,22.13,0,0,0,6.017,7.866,27.523,27.523,0,0,0,9.247,4.955,38.631,38.631,0,0,0,11.834,1.713m-399.9-.726a2.005,2.005,0,0,0,1.331-.506,2,2,0,0,0,.513-.718,2,2,0,0,0,1.457.63h12.738a2,2,0,0,0,1.97-1.653l.963-5.475h12.5l1.017,5.492a2,2,0,0,0,1.967,1.636h13a2,2,0,0,0,1.549-.735,2,2,0,0,0,.41-1.665c-.971-4.77-2.013-9.25-3.1-13.315-1.086-4.082-2.291-7.987-3.579-11.607s-2.726-7.132-4.265-10.409-3.266-6.541-5.137-9.705a2,2,0,0,0-1.722-.982h-12.408a2,2,0,0,0-1.706.958,112.128,112.128,0,0,0-5.545,10.282c-1.714,3.607-3.283,7.389-4.663,11.239s-2.587,7.807-3.587,11.767c-.656,2.595-1.226,5.2-1.7,7.8v-6.449a2,2,0,0,0-1.716-1.98c-1.2-.17-2.074-.31-2.612-.413a10.168,10.168,0,0,1-1.487-.414l-.041-.014-1.093-.364a15.709,15.709,0,0,0,1.748-1.113,15.277,15.277,0,0,0,1.711-1.481l.024-.025a15.34,15.34,0,0,0,3.264-5.118,16.752,16.752,0,0,0,1.126-6.1,16.577,16.577,0,0,0-2.328-8.614,17.366,17.366,0,0,0-6.547-6.264l-.026-.014a27.4,27.4,0,0,0-3.418-1.566,23.163,23.163,0,0,0-3.867-1.05,36.464,36.464,0,0,0-4.751-.526c-1.72-.089-3.786-.135-6.142-.135h-17.028a2,2,0,0,0-2,2v44.022a2,2,0,0,0,2,2h12.8a2,2,0,0,0,2-2v-7.644c1.557,1.054,3.049,2.01,4.462,2.858a57.843,57.843,0,0,0,7.043,3.623,48.017,48.017,0,0,0,7.026,2.376,59.514,59.514,0,0,0,7.617,1.367,1.992,1.992,0,0,0,.231.013m25.058-29.431c.464,1.136.894,2.245,1.28,3.3.409,1.118.812,2.284,1.2,3.467q.24.736.516,1.569h-6.048c.129-.387.255-.752.375-1.094.371-1.048.759-2.132,1.151-3.224.388-1.076.847-2.291,1.365-3.608q.08-.2.162-.41m-51.437-6.143h2.026c3.157,0,5.591.537,7.233,1.6a4.059,4.059,0,0,1,2.053,3.665,4.24,4.24,0,0,1-.449,1.943,5.31,5.31,0,0,1-1.328,1.686,6.751,6.751,0,0,1-2.064,1.194,7.951,7.951,0,0,1-5.245-.02,11.093,11.093,0,0,1-2.227-1.262v-8.8m535.834,34.98c2.429,0,4.4-.023,5.869-.067a31.607,31.607,0,0,0,3.883-.321,12.069,12.069,0,0,0,2.923-.8c.714-.31,1.548-.725,2.479-1.237l.059-.034a14.377,14.377,0,0,0,5.088-5.09A13.447,13.447,0,0,0-724.5-1001a13.247,13.247,0,0,0-3.7-9.341,10.981,10.981,0,0,0-2.212-1.907,13.08,13.08,0,0,0,2.127-1.831l.051-.056a10.563,10.563,0,0,0,2.873-7.061,10.74,10.74,0,0,0-2.036-6.151,14.79,14.79,0,0,0-5.142-4.579l-.029-.015a22.95,22.95,0,0,0-2.749-1.229,17.863,17.863,0,0,0-3.161-.822c-1.094-.186-2.339-.328-3.7-.419-1.336-.091-2.9-.137-4.657-.137h-20.46a2,2,0,0,0-2,2v44.022a2,2,0,0,0,2,2h20.592m-6.118-19.4h3.742a24.388,24.388,0,0,1,3.856.236,6.99,6.99,0,0,1,2.045.639,3.984,3.984,0,0,1,1.438,1.374,3.261,3.261,0,0,1,.5,1.757,1.737,1.737,0,0,1-1.028,1.836c-.789.388-2.552.851-6.476.851h-4.073v-6.693m0-16.3h6.118a7.392,7.392,0,0,1,3.68.732,1.268,1.268,0,0,1,.722,1.228c0,.249,0,.667-.88,1.152l0,0a4.118,4.118,0,0,1-.748.335,5.875,5.875,0,0,1-.927.192c-.414.056-.933.095-1.543.114-.658.022-1.513.033-2.543.033h-3.875v-3.788m-149.51,35.706a2,2,0,0,0,2-2v-43.825a2,2,0,0,0-2-2h-10.692a2,2,0,0,0-2,2v10.513q-.3-.315-.589-.617a53.251,53.251,0,0,0-4.39-4.047c-1.537-1.266-3.232-2.525-5.036-3.743-1.781-1.2-3.81-2.488-6.03-3.819a2,2,0,0,0-1.029-.285h-10.3a2,2,0,0,0-2,2v43.825a2,2,0,0,0,2,2h10.758a2,2,0,0,0,2-2v-24.668q1.092.842,2.039,1.625a51.948,51.948,0,0,1,3.973,3.621,34.663,34.663,0,0,1,3.15,3.68,47.186,47.186,0,0,1,2.746,4.2,24.482,24.482,0,0,1,2.137,4.685,14.072,14.072,0,0,1,.634,4.218v1.188c0,.422-.019.85-.058,1.272a2,2,0,0,0,.515,1.529,2,2,0,0,0,1.477.652h10.692m-97.614,0a2,2,0,0,0,2-2v-44.088a2,2,0,0,0-2-2h-12.8a2,2,0,0,0-2,2v44.088a2,2,0,0,0,2,2h12.8m-27.192,0a2,2,0,0,0,2-2v-32.122h7.834a2,2,0,0,0,2-2v-9.768a2,2,0,0,0-2-2l-32.274-.066h0a2,2,0,0,0-1.412.584,2,2,0,0,0-.588,1.416v9.833a2,2,0,0,0,2,2h7.636v32.122a2,2,0,0,0,2,2h12.8m-19.8,0a2,2,0,0,0,1.549-.735,2,2,0,0,0,.41-1.665c-.971-4.768-2.012-9.248-3.1-13.315s-2.291-7.987-3.579-11.607-2.726-7.132-4.264-10.409-3.267-6.541-5.139-9.705a2,2,0,0,0-1.721-.982h-12.408a2,2,0,0,0-1.706.958,111.891,111.891,0,0,0-5.545,10.282c-1.714,3.607-3.283,7.389-4.663,11.239s-2.587,7.807-3.588,11.767q-.147.581-.288,1.163a1.994,1.994,0,0,0-1.568-.759h-11.531v-32.518a2,2,0,0,0-2-2h-12.8a2,2,0,0,0-2,2v44.286a2,2,0,0,0,2,2h26.335a2.006,2.006,0,0,0,.726-.136,2,2,0,0,0,.725.136h12.738a2,2,0,0,0,1.97-1.653l.963-5.475h12.5l1.017,5.492a2,2,0,0,0,1.966,1.636h13m-22.4-28.837c.464,1.136.894,2.245,1.28,3.3.409,1.118.812,2.284,1.2,3.467q.24.736.516,1.569h-6.048q.193-.582.375-1.094c.371-1.048.759-2.132,1.151-3.224.388-1.076.847-2.291,1.366-3.608l.161-.41m-95.215,28.837a2,2,0,0,0,2-2v-43.825a2,2,0,0,0-2-2h-10.692a2,2,0,0,0-2,2v10.513q-.3-.315-.589-.617a53.119,53.119,0,0,0-4.389-4.047c-1.537-1.265-3.232-2.525-5.036-3.743-1.782-1.2-3.811-2.488-6.03-3.819a2,2,0,0,0-1.029-.285h-10.3a2,2,0,0,0-2,2v43.825a2,2,0,0,0,2,2h10.759a2,2,0,0,0,2-2v-24.668q1.092.842,2.039,1.625a51.767,51.767,0,0,1,3.972,3.622,34.469,34.469,0,0,1,3.151,3.679,47,47,0,0,1,2.748,4.2,24.409,24.409,0,0,1,2.134,4.681,14.04,14.04,0,0,1,.635,4.218v1.188c0,.422-.019.85-.058,1.272a2,2,0,0,0,.515,1.53,2,2,0,0,0,1.477.651h10.692m-147.18,0a2,2,0,0,0,2-2v-32.122h7.833a2,2,0,0,0,2-2v-9.768a2,2,0,0,0-2-2l-32.274-.066a2.087,2.087,0,0,0-1.417.584,2,2,0,0,0-.588,1.416v9.833a2,2,0,0,0,2,2h7.636v32.122a2,2,0,0,0,2,2h12.8m-39.732,0a2,2,0,0,0,2-2v-9.834a2,2,0,0,0-2-2h-17.6v-3.626h17.582a2,2,0,0,0,2-2v-9.9a2,2,0,0,0-2-2h-17.582v-3.2l16.942.107a2,2,0,0,0,2-2v-9.636a2,2,0,0,0-2-2h-31.746a2,2,0,0,0-2,2v44.088a2,2,0,0,0,2,2h32.406m-40.59,0a2,2,0,0,0,2-2v-44.088a2,2,0,0,0-2-2h-12.8a2,2,0,0,0-2,2v44.088a2,2,0,0,0,2,2h12.8m-21.186,0a2,2,0,0,0,2-2v-44.022a2,2,0,0,0-2-2h-13a2,2,0,0,0-2,2v10.077h-10.124v-10.077a2,2,0,0,0-2-2h-12.8a2,2,0,0,0-2,2v44.022a2,2,0,0,0,2,2h12.8a2,2,0,0,0,2-2v-20.836h10.322v20.836a2,2,0,0,0,2,2h12.8m-191,0a2,2,0,0,0,1.549-.735,2,2,0,0,0,.411-1.665c-.972-4.768-2.013-9.248-3.1-13.315s-2.291-7.986-3.579-11.607-2.727-7.132-4.265-10.409-3.267-6.541-5.138-9.705a2,2,0,0,0-1.722-.982h-12.407a2,2,0,0,0-1.707.958,112.1,112.1,0,0,0-5.545,10.282c-1.714,3.607-3.283,7.389-4.663,11.239s-2.586,7.807-3.587,11.767a120.491,120.491,0,0,0-2.382,11.88,2,2,0,0,0,.464,1.6,2,2,0,0,0,1.514.693h12.739a2,2,0,0,0,1.969-1.653l.963-5.475h12.5l1.017,5.492a2,2,0,0,0,1.967,1.636h13m-22.4-28.837c.464,1.136.895,2.245,1.28,3.3.408,1.114.811,2.281,1.2,3.467q.24.736.516,1.569h-6.048q.194-.58.375-1.094c.372-1.048.759-2.132,1.152-3.224s.847-2.291,1.365-3.608l.161-.41m-26.442,28.837a2,2,0,0,0,2-2v-44.022a2,2,0,0,0-2-2h-13a2,2,0,0,0-2,2v10.077H-1678.2v-10.077a2,2,0,0,0-2-2H-1693a2,2,0,0,0-2,2v44.022a2,2,0,0,0,2,2h12.8a2,2,0,0,0,2-2v-20.836h10.322v20.836a2,2,0,0,0,2,2h12.8m682.109,11.782a35.609,35.609,0,0,1-13.993-2.8,36.51,36.51,0,0,1-5.89-3.155,11.976,11.976,0,0,1-9.09,4.175h-12.8a11.938,11.938,0,0,1-7.194-2.4,11.937,11.937,0,0,1-7.194,2.4h-12.8a11.962,11.962,0,0,1-3.494-.519,12.034,12.034,0,0,1-3.5.519h-13a11.993,11.993,0,0,1-9.2-4.3,11.979,11.979,0,0,1-9.21,4.3h-12.738c-.2,0-.415-.009-.643-.027q-.4.027-.808.027h-26.335a11.958,11.958,0,0,1-8.21-3.256q-1.839.872-3.946,1.629a53.152,53.152,0,0,1-6.013,1.751,58.342,58.342,0,0,1-6.279,1.082,51.129,51.129,0,0,1-10.9.16c-1.425-.135-3.3-.4-5.717-.818a12.073,12.073,0,0,1-2.528-.729,12.021,12.021,0,0,1-2.081.181h-10.692a12.031,12.031,0,0,1-8.854-3.9q-.236-.259-.456-.529a11.981,11.981,0,0,1-9.3,4.428H-1204.6a12.024,12.024,0,0,1-2.044-.174,12.085,12.085,0,0,1-2.048.174h-13a12,12,0,0,1-9.2-4.3,11.98,11.98,0,0,1-9.21,4.3h-12.31a11.983,11.983,0,0,1-3.729.594c-.385,0-1-.036-1.384-.08a69.554,69.554,0,0,1-8.91-1.6,58.055,58.055,0,0,1-8.5-2.871l-.5-.214a11.977,11.977,0,0,1-9.091,4.176h-12.8a11.936,11.936,0,0,1-7.194-2.4,11.936,11.936,0,0,1-7.194,2.4h-12.8a12.013,12.013,0,0,1-12-12v-22.356a11.9,11.9,0,0,1-2.948-1.007v5.9a11.954,11.954,0,0,1-.611,3.783,11.952,11.952,0,0,1,.631,3.842v9.834a12.013,12.013,0,0,1-12,12h-32.406a11.948,11.948,0,0,1-4.092-.718,11.947,11.947,0,0,1-4.092.718h-12.8a11.945,11.945,0,0,1-4.191-.755,11.946,11.946,0,0,1-4.191.755h-12.8a11.938,11.938,0,0,1-7.161-2.376,11.938,11.938,0,0,1-7.161,2.376h-12.8a11.969,11.969,0,0,1-8.8-3.855,35.815,35.815,0,0,1-5.724,2.961,36.923,36.923,0,0,1-14.049,2.676,35.617,35.617,0,0,1-13.993-2.8,35.829,35.829,0,0,1-10.587-6.867,34.749,34.749,0,0,1-10.871,6.992,36.923,36.923,0,0,1-14.049,2.676,35.617,35.617,0,0,1-13.993-2.8,36.753,36.753,0,0,1-4.659-2.377,11.973,11.973,0,0,1-.955.952,12,12,0,0,1-7.982,3.038c-.385,0-1-.036-1.384-.08a69.552,69.552,0,0,1-8.91-1.6,58.057,58.057,0,0,1-8.5-2.871l-.5-.214a11.978,11.978,0,0,1-9.092,4.176h-12.8a12.025,12.025,0,0,1-2.11-.186,12.094,12.094,0,0,1-2.114.186h-13a12,12,0,0,1-9.2-4.3,11.977,11.977,0,0,1-9.21,4.3h-12.739a12.018,12.018,0,0,1-2.341-.23,12.017,12.017,0,0,1-2.344.23h-12.8a11.938,11.938,0,0,1-7.161-2.376,11.938,11.938,0,0,1-7.161,2.376H-1693a12.013,12.013,0,0,1-12-12v-44.022a12.014,12.014,0,0,1,12-12h12.8a11.936,11.936,0,0,1,7.062,2.3,11.936,11.936,0,0,1,7.062-2.3h13a12,12,0,0,1,10.173,5.641l.179-.294a12.076,12.076,0,0,1,10.24-5.743h12.407a12.054,12.054,0,0,1,10.164,5.621,12,12,0,0,1,9.9-5.225h17.029c2.554,0,4.794.052,6.66.149a46.5,46.5,0,0,1,6.069.683,33.163,33.163,0,0,1,5.54,1.516,37.379,37.379,0,0,1,4.673,2.138,30.052,30.052,0,0,1,4.664,3.21,36.005,36.005,0,0,1,10.606-6.506,36.645,36.645,0,0,1,13.681-2.574,41.705,41.705,0,0,1,6.365.5,35.428,35.428,0,0,1,16.833,8.011q.691.576,1.349,1.182a35.877,35.877,0,0,1,11.272-7.115,37.663,37.663,0,0,1,14.06-2.64,34.4,34.4,0,0,1,18.934,5.656,11.978,11.978,0,0,1,9.116-4.2h12.8a11.935,11.935,0,0,1,7.062,2.3,11.936,11.936,0,0,1,7.062-2.3h13a11.941,11.941,0,0,1,4.1.723,11.944,11.944,0,0,1,4.279-.788h12.8a11.947,11.947,0,0,1,4.092.718,11.948,11.948,0,0,1,4.092-.718h31.746a11.976,11.976,0,0,1,9.031,4.106q.216-.24.447-.47a11.911,11.911,0,0,1,8.474-3.5l32.3.066a12,12,0,0,1,1.911.155,12.006,12.006,0,0,1,2.618-.288h17.028c2.555,0,4.8.052,6.66.149a46.446,46.446,0,0,1,6.07.683,33.156,33.156,0,0,1,5.539,1.516,37.434,37.434,0,0,1,4.67,2.136,28.586,28.586,0,0,1,7.338,5.791q1.385-2.538,2.845-4.928a12.072,12.072,0,0,1,10.239-5.743h12.408a12.054,12.054,0,0,1,10.167,5.626,11.992,11.992,0,0,1,9.764-5.032h10.3a12.007,12.007,0,0,1,6.164,1.7q2.05,1.23,3.88,2.4a11.976,11.976,0,0,1,9.03-4.1h10.692a11.963,11.963,0,0,1,8.447,3.485c1.063-.52,2.16-.991,3.232-1.387a32.144,32.144,0,0,1,5.277-1.435,44.839,44.839,0,0,1,5.416-.641c1.661-.1,3.593-.153,5.743-.153l10.362.066a11.985,11.985,0,0,1,2.969.372,11.942,11.942,0,0,1,4.225-.768h12.8a12.014,12.014,0,0,1,12,12v10.667q1.24-2.98,2.6-5.852a121.971,121.971,0,0,1,6.045-11.205,12.073,12.073,0,0,1,10.238-5.741h12.408a12.027,12.027,0,0,1,6.94,2.219,11.923,11.923,0,0,1,6.259-1.756l32.3.066a12.013,12.013,0,0,1,1.741.129,12,12,0,0,1,2.789-.327h12.8a11.982,11.982,0,0,1,9.283,4.4,37.022,37.022,0,0,1,6.161-3.15,37.66,37.66,0,0,1,14.058-2.64,34.405,34.405,0,0,1,19.044,5.728,11.976,11.976,0,0,1,9.007-4.078h10.3a12,12,0,0,1,6.175,1.711c1.36.816,2.654,1.616,3.869,2.393a11.975,11.975,0,0,1,9.029-4.1h10.692a12.013,12.013,0,0,1,12,12v4.012a34.616,34.616,0,0,1,6.28-7.561,36.778,36.778,0,0,1,12.391-7.319,43.394,43.394,0,0,1,14.672-2.451,38.192,38.192,0,0,1,3.959.2c1,.106,2.329.285,3.966.541a12.219,12.219,0,0,1,2.171.545,11.976,11.976,0,0,1,3.17-.425h12.8a11.956,11.956,0,0,1,8.212,3.258,11.965,11.965,0,0,1,8.024-3.06H-801.6a12.089,12.089,0,0,1,7.126,2.349,12.062,12.062,0,0,1,7.13-2.349h11.88a11.838,11.838,0,0,1,4.168.757,11.948,11.948,0,0,1,4.016-.691h20.46c2.009,0,3.8.056,5.335.16a47.252,47.252,0,0,1,4.7.538,27.89,27.89,0,0,1,4.943,1.3,33,33,0,0,1,3.945,1.761,24.905,24.905,0,0,1,8.746,7.767,20.835,20.835,0,0,1,3.8,11.828,19.722,19.722,0,0,1-2.054,8.749A23.4,23.4,0,0,1-714.5-1001a23.316,23.316,0,0,1-3.283,12.008,24.266,24.266,0,0,1-8.584,8.6c-1.6.888-2.718,1.439-3.674,1.853a21.875,21.875,0,0,1-5.335,1.5,41.523,41.523,0,0,1-5.146.44c-1.545.047-3.621.071-6.175.071h-20.592a11.962,11.962,0,0,1-8.475-3.512,31.285,31.285,0,0,1-2.961,1.584,37.918,37.918,0,0,1-16.218,3.379,35.787,35.787,0,0,1-15.9-3.4,11.929,11.929,0,0,1-6.544,1.945h-26.334a12.041,12.041,0,0,1-1.948-.158,11.884,11.884,0,0,1-4.392,1.184l-3.068.206c-.937.057-1.993.088-3.131.088a48.579,48.579,0,0,1-14.9-2.2,37.461,37.461,0,0,1-12.581-6.79,32.133,32.133,0,0,1-6.587-7.474v3.14a12.013,12.013,0,0,1-12,12h-10.692a12.028,12.028,0,0,1-8.86-3.907q-.233-.255-.449-.521a11.983,11.983,0,0,1-9.3,4.428h-10.758a11.97,11.97,0,0,1-8.8-3.855,35.793,35.793,0,0,1-5.724,2.961A36.925,36.925,0,0,1-970.96-974.744Z" transform="translate(1716.248 1061.372)" fill="#c02020"/>
  </g>
</svg>
