<svg id="Main" xmlns="http://www.w3.org/2000/svg" width="362" height="356" viewBox="0 0 362 356">
  <defs>
    <style>
      .cls-1, .cls-8 {
        stroke: #000;
        stroke-width: 4.68px;
      }

      .cls-1, .cls-11, .cls-2, .cls-3, .cls-4, .cls-5, .cls-6, .cls-7, .cls-8, .cls-9 {
        fill-rule: evenodd;
      }

      .cls-2, .cls-3, .cls-4, .cls-5, .cls-6, .cls-7, .cls-8 {
        fill: none;
      }

      .cls-2 {
        stroke: #fe0000;
      }

      .cls-2, .cls-4, .cls-5, .cls-6, .cls-7 {
        stroke-width: 14px;
      }

      .cls-3 {
        stroke: #ff8e02;
        stroke-width: 15px;
      }

      .cls-4 {
        stroke: #feef00;
      }

      .cls-5 {
        stroke: #028215;
      }

      .cls-6 {
        stroke: #014cff;
      }

      .cls-7 {
        stroke: #8a018c;
      }

      .cls-10, .cls-9 {
        fill: #fff;
      }

      .cls-11, .cls-12 {
        fill: #ff0003;
      }
    </style>
  </defs>
  <circle id="Ellipse_1_copy_5" data-name="Ellipse 1 copy 5" cx="258.39" cy="249.391" r="72.672"/>
  <circle id="Ellipse_1_copy_4" data-name="Ellipse 1 copy 4" cx="111.39" cy="99.39" r="72.672"/>
  <path id="Shape_317_1_copy" data-name="Shape 317 1 copy" class="cls-1" d="M230.86,317.9C113.627,354.882-5.829,240.856,46.764,118.817,127.854-58.7,379.62,42.114,325.424,222.38c-57.011,174.085-74.444-43.235-74.444-43.235s2.55-64.673-67.4-68.372S87.362,234.3,187.6,243.5c101.636,6.87,51.3,63.344,51.3,63.344S251.183,310.924,230.86,317.9Z"/>
  <g id="rainbow">
    <path id="Shape_317_1_copy_2" data-name="Shape 317 1 copy 2" class="cls-2" d="M223.042,303.425C112.784,338.208.436,230.967,49.9,116.189c76.266-166.953,313.052-72.14,262.08,97.4"/>
    <path id="Shape_317_1_copy_4" data-name="Shape 317 1 copy 4" class="cls-3" d="M218.662,290.226C119.274,321.58,18,224.911,62.588,121.448c68.747-150.493,285.365-64.036,236.243,87.8"/>
    <path id="Shape_317_1_copy_5" data-name="Shape 317 1 copy 5" class="cls-4" d="M214.71,278.24c-89.511,28.238-180.719-58.824-140.563-152C136.062-9.3,331.152,68.564,286.911,205.309"/>
    <path id="Shape_317_1_copy_6" data-name="Shape 317 1 copy 6" class="cls-5" d="M210.6,265.768c-79.232,25-159.966-52.069-124.422-134.549,54.8-119.973,227.493-51.05,188.332,69.992"/>
    <path id="Shape_317_1_copy_7" data-name="Shape 317 1 copy 7" class="cls-6" d="M206.515,253.393C137.482,275.171,67.14,208.027,98.11,136.164,145.86,31.634,296.318,91.686,262.2,197.147"/>
    <path id="Shape_317_1_copy_8" data-name="Shape 317 1 copy 8" class="cls-7" d="M202.4,240.911C143.65,259.444,83.79,202.305,110.144,141.15c40.635-88.953,168.674-37.85,139.639,51.9"/>
    <path id="Shape_317_1_copy_3" data-name="Shape 317 1 copy 3" class="cls-8" d="M225.86,311.9c-117.233,36.983-236.689-77.043-184.1-199.082C122.854-64.7,374.62,36.114,320.424,216.38c-57.011,174.085-74.444-43.235-74.444-43.235s2.55-64.673-67.4-68.372S82.362,228.3,182.6,237.5c101.636,6.87,51.3,63.344,51.3,63.344S246.183,304.924,225.86,311.9Z"/>
  </g>
  <g id="arrows">
    <path id="Color_Fill_1" data-name="Color Fill 1" class="cls-9" d="M66.342,212.886L99,168.63s6.7,71.921,75.6,76.414c0.041,16.17.148,19,.148,19s-58.711,2.886-87.464-59.321C75.229,209.018,66.342,212.886,66.342,212.886Z"/>
    <path id="Color_Fill_1_copy" data-name="Color Fill 1 copy" class="cls-9" d="M293.658,124.114L261,168.37s-6.7-71.921-75.6-76.414c-0.041-16.17-.148-19-0.148-19s58.711-2.886,87.464,59.321C284.771,127.982,293.658,124.114,293.658,124.114Z"/>
  </g>
  <g id="ハ">
    <circle id="Ellipse_1_copy_3" data-name="Ellipse 1 copy 3" cx="253.391" cy="243.391" r="72.672"/>
    <circle id="Ellipse_1_copy_2" data-name="Ellipse 1 copy 2" class="cls-10" cx="253.391" cy="243.391" r="67.297"/>
    <path id="ハ-2" data-name="ハ" class="cls-11" d="M264.477,197.019c11,24.311,22.9,63.287,27.73,86.54l15.157-7.134c-4.491-23.518-16.841-59.455-28.517-86.012Zm-38.733-4.888c-3.593,32.634-10.778,63.55-24.138,84.426a76.551,76.551,0,0,1,14.033,8.059c13.36-22.461,21.107-54.83,25.71-84.954a3.265,3.265,0,0,0,3.144-2.511Z"/>
  </g>
  <g id="H">
    <circle id="Ellipse_1_copy" data-name="Ellipse 1 copy" cx="108.39" cy="95.39" r="72.672"/>
    <circle class="cls-12" cx="108.391" cy="95.391" r="67.297"/>
    <path id="H-2" data-name="H" class="cls-9" d="M149.5,145.152V44.74H130.477V84.083H87.327V44.74H68.084V145.152H87.327V99.915h43.15v45.237H149.5Z"/>
  </g>
  <g id="circular_text" data-name="circular text">
    <path id="_HAROOHIE_TRANSLATION_CLUB_copy" data-name="   HAROOHIE  TRANSLATION  CLUB     copy" class="cls-9" d="M174.2,36.568q-1.294.105-2.592,0.238,0.238,2.331.479,4.662-2.216.226-4.443,0.536L167,37.362q-1.305.182-2.614,0.391l1.851,11.591q1.191-.191,2.378-0.356-0.347-2.5-.7-5,2.192-.3,4.372-0.528,0.26,2.513.517,5.026,1.182-.121,2.359-0.217Q174.686,42.417,174.2,36.568Zm8.658-.406q-1.607.02-3.221,0.081-1.655,5.936-2.976,11.911,1.191-.081,2.377-0.138,0.344-1.567.706-3.132,1.671-.067,3.332-0.086,0.468,1.544.912,3.091,1.216,0,2.427.016-1.607-5.9-3.557-11.744h0Zm-2.841,7q0.324-1.356.665-2.71c0.161-.692.351-1.659,0.5-2.4h0.052c0.191,0.713.437,1.653,0.655,2.382q0.417,1.327.818,2.657-1.343.019-2.69,0.069h0Zm13.927-.476a3.149,3.149,0,0,0,2.387-2.71c0.3-3.138-3.011-3.622-4.669-3.7a19.359,19.359,0,0,0-3.389.092q-0.15,5.789-.3,11.578,1.146,0.036,2.286.095,0.107-2.378.214-4.755l0.806,0.044c1.128,0.067,1.6.579,1.812,2.109a15.528,15.528,0,0,0,.553,2.828q1.172,0.1,2.336.216a27.575,27.575,0,0,1-.6-3.308,2.862,2.862,0,0,0-1.444-2.439Zm-3.394-1.081q0.081-1.783.161-3.567a4.526,4.526,0,0,1,1.148-.027c0.908,0.053,2.129.438,2.018,1.945-0.081,1.112-.962,1.787-2.33,1.7Q191.051,41.632,190.552,41.606Zm13.007-4.149c-3.368-.522-5.772,1.835-6.1,5.321-0.324,3.392,1.182,6.138,4.224,6.6,2.862,0.444,5.261-1.182,6.033-5.195C208.3,41.13,207.122,38.024,203.559,37.457Zm-0.329,1.815c1.86,0.293,2.391,2.427,2.034,4.543-0.394,2.331-1.568,4.016-3.244,3.753s-2.348-2.246-2.076-4.534C200.2,40.9,201.317,38.978,203.23,39.272Zm12.122,0.619c-3.266-.836-5.848,1.28-6.5,4.717-0.637,3.344.584,6.218,3.533,6.969,2.776,0.711,5.293-.683,6.43-4.6,0.866-2.987-.01-6.185-3.464-7.084h0Zm-0.5,1.775c1.805,0.466,2.128,2.639,1.578,4.71-0.607,2.282-1.921,3.848-3.546,3.428s-2.1-2.455-1.617-4.706C211.72,43,213,41.193,214.857,41.666Zm15.962,3.494q-1.131-.454-2.271-0.887l-1.569,4.393q-1.946-.738-3.92-1.412l1.422-4.446q-1.156-.394-2.323-0.767l-3.354,11.2q1.06,0.339,2.114.7,0.767-2.4,1.534-4.793,1.943,0.662,3.858,1.389l-1.692,4.736q1.038,0.394,2.066.807,2.069-5.462,4.135-10.924h0Zm-2.06,11.781q1.02,0.433,2.03.884,2.269-5.376,4.541-10.752-1.11-.5-2.231-0.972Q230.93,51.521,228.759,56.941Zm10.651,3.036q-1.879-1.014-3.8-1.961l1.374-2.94q1.754,0.866,3.476,1.786,0.414-.818.829-1.636-1.749-.934-3.527-1.813l1.194-2.555q1.929,0.952,3.821,1.968,0.426-.837.853-1.674-2.99-1.6-6.065-3.052Q235.2,53.43,232.826,58.76q2.906,1.367,5.728,2.89Q238.981,60.813,239.41,59.977Zm18.474,0.056q-3.5-2.508-7.166-4.785l-0.987,1.667q1.293,0.8,2.568,1.637l-5.137,8.223q0.922,0.6,1.832,1.223l5.288-8.122q1.264,0.861,2.508,1.752Zm2.088,9.221a3.066,3.066,0,0,0,3.392-.951c1.958-2.425-.421-4.605-1.687-5.564a18.2,18.2,0,0,0-2.728-1.748l-6.59,9.385q0.882,0.646,1.751,1.308l2.78-3.805q0.308,0.234.614,0.47c0.857,0.662.951,1.337,0.282,2.713a15.757,15.757,0,0,0-1.111,2.629q0.88,0.709,1.748,1.434a28.436,28.436,0,0,1,1.336-3.048,2.868,2.868,0,0,0,.185-2.788l0.028-.036h0Zm-2.1-2.717,2.084-2.854a4.193,4.193,0,0,1,.924.6,1.786,1.786,0,0,1,.538,2.69,1.845,1.845,0,0,1-2.787.151Zm13.269,4.354q-1.111-1.037-2.247-2.049-5.112,3.209-10.014,6.665,0.852,0.72,1.692,1.455,1.284-.909,2.583-1.8,1.176,1.044,2.325,2.118-0.719,1.422-1.456,2.831,0.837,0.793,1.66,1.6,2.857-5.315,5.457-10.819h0Zm-6.643,3.2q1.131-.768,2.274-1.524c0.575-.395,1.355-0.97,1.952-1.4l0.036,0.033c-0.349.641-.815,1.481-1.156,2.15q-0.609,1.232-1.23,2.456Q265.442,74.939,264.5,74.094ZM281.064,81.2q-0.719-.83-1.449-1.648L277.052,81.9c-1.386,1.272-2.553,2.429-3.55,3.527l-0.021-.023a30.127,30.127,0,0,0,1.572-3.9q0.846-2.552,1.609-5.157-0.9-.947-1.826-1.876l-8.1,8.282q0.7,0.708,1.393,1.428l2.528-2.5c1.468-1.45,2.593-2.627,3.543-3.7l0.045,0.046c-0.544,1.259-1.08,2.773-1.5,4.061q-0.855,2.593-1.8,5.129,0.735,0.821,1.457,1.655Zm5.444,7.323a6.3,6.3,0,0,0-1.232-2.469c-1.691-2.151-3.856-2.433-5.286-1.193-1.141.983-1.227,2.555-.683,4.438,0.393,1.386.347,2.146-.3,2.658-0.675.531-1.53,0.378-2.3-.59a5.535,5.535,0,0,1-1.1-2.365q-0.851.436-1.7,0.878a6.47,6.47,0,0,0,1.3,2.6c1.657,2.074,3.716,2.4,5.329,1.188,1.207-.917,1.558-2.252,1.012-4.3-0.41-1.572-.508-2.282.132-2.809,0.5-.412,1.343-0.377,2.124.616a4.909,4.909,0,0,1,.962,2.059Q285.633,88.875,286.508,88.524Zm-2.486,12.7q-1.137-1.754-2.332-3.466l7.9-5.6q-0.7-1-1.409-1.98l-9.3,6.868q1.854,2.557,3.576,5.213Zm11.919,0.961q-0.762-1.331-1.554-2.641-5.857,1.475-11.586,3.253,0.606,0.945,1.194,1.9,1.5-.468,3.014-0.917,0.82,1.353,1.608,2.729-1.11,1.131-2.234,2.243,0.57,1.014,1.121,2.038Q291.818,106.619,295.941,102.187Zm-7.328,1q1.314-.383,2.635-0.749c0.669-.2,1.588-0.5,2.29-0.733,0.008,0.014.016,0.028,0.025,0.042-0.525.5-1.22,1.157-1.746,1.688q-0.948.984-1.906,1.955Q289.274,104.278,288.613,103.183Zm12.974,10.025q-1.806-3.972-3.863-7.806l-1.692.915q0.726,1.353,1.421,2.725l-8.579,4.374q0.5,0.992.987,2l8.662-4.209q0.673,1.394,1.315,2.8l1.749-.8h0Zm-9.975,5.989q0.451,1.022.883,2.051l10.652-4.471q-0.476-1.132-.971-2.254Zm14.344,4.341c-1.135-3.182-4.3-4.179-7.5-2.869-3.105,1.273-4.8,3.828-3.771,6.7,0.965,2.7,3.525,4.076,7.382,2.911C305.013,129.392,307.146,126.914,305.956,123.538Zm-1.735.545c0.623,1.761-.98,3.209-2.991,3.867-2.215.725-4.239,0.466-4.8-1.119s0.851-3.076,2.971-3.888C301.375,122.186,303.575,122.277,304.221,124.083Zm6.11,15.459q-0.24-1.1-.5-2.2l-3.38.786c-1.83.426-3.41,0.86-4.812,1.33,0-.011,0-0.021-0.007-0.031a29.444,29.444,0,0,0,3.236-2.661q1.957-1.836,3.864-3.757-0.353-1.3-.73-2.58l-11.089,3.241q0.288,0.979.56,1.965l3.42-.935c1.985-.543,3.538-1.017,4.888-1.489,0,0.021.011,0.042,0.017,0.063-1.077.84-2.266,1.91-3.252,2.836q-1.983,1.866-4.018,3.641,0.263,1.1.5,2.213l11.3-2.42h0Zm-6.884,18.4a6.075,6.075,0,0,1-.5-1.952c-0.2-2.183,1-3.737,3.6-4.057,2.774-.342,4.29,1.21,4.487,3.361a5.414,5.414,0,0,1-.2,2.1q0.92,0.18,1.836.368a6.569,6.569,0,0,0,.211-2.756c-0.322-3.513-2.786-6.152-6.783-5.561-3.4.5-5.417,2.779-5.071,6.335a7.45,7.45,0,0,0,.656,2.614q0.88-.225,1.76-0.456h0Zm0.142,8.841q0-2.217-.087-4.416l9.677-.329q-0.048-1.28-.122-2.554l-11.545.623q0.192,3.314.2,6.67l1.879,0.006h0Zm9.216,11.436q0.113-1.311.2-2.616l-6.977-.5c-2.056-.151-2.854-1.011-2.791-2.306,0.06-1.231.969-2.022,3-1.953l6.989,0.256q0.041-1.3.056-2.591l-6.8-.112c-3.4-.04-4.947,1.485-5.076,4.237s1.267,4.635,4.641,4.962Zm-6.363,8.15a2.8,2.8,0,0,0,2.112,2.556,2.415,2.415,0,0,0,2.371-.943,7.009,7.009,0,0,0,1.286-3.662,19.859,19.859,0,0,0,.177-3.5l-11.3-1.279a25.684,25.684,0,0,0-.461,2.634c-0.288,2.216-.148,3.672.408,4.649a3.134,3.134,0,0,0,2.142,1.585,2.889,2.889,0,0,0,3.209-2.053Zm1.122-3.541,3.043,0.407a6.043,6.043,0,0,1-.075,1.154c-0.157,1.163-.684,2.11-1.813,1.926-0.937-.153-1.469-1.122-1.275-2.561Q307.506,183.289,307.564,182.827Zm-1.611-.216q-0.058.465-.121,0.931c-0.171,1.289-.848,2.5-2.17,2.284-1.292-.216-1.65-1.422-1.475-2.734a5.9,5.9,0,0,1,.187-0.961Z"/>
    <path id="_HAROOHIE_TRANSLATION_CLUB_" data-name="   HAROOHIE  TRANSLATION  CLUB    " class="cls-9" d="M184.2,301.947q1.294-.105,2.593-0.238-0.24-2.331-.479-4.662,2.216-.226,4.443-0.536l0.645,4.642q1.3-.182,2.613-0.392l-1.851-11.591q-1.19.19-2.378,0.356l0.7,5q-2.191.306-4.373,0.528l-0.516-5.026q-1.182.122-2.359,0.217Zm-8.658.406q1.608-.02,3.222-0.081,1.655-5.935,2.976-11.911-1.191.081-2.378,0.137-0.342,1.568-.706,3.133-1.669.066-3.332,0.086-0.467-1.543-.911-3.091-1.217,0-2.428-.017Q173.591,296.506,175.541,302.353Zm2.842-7q-0.324,1.356-.665,2.71c-0.161.692-.351,1.66-0.5,2.4l-0.051,0c-0.192-.713-0.437-1.654-0.655-2.382q-0.417-1.326-.818-2.657Q177.035,295.4,178.383,295.352Zm-13.927.476a3.146,3.146,0,0,0-2.387,2.71c-0.3,3.137,3.011,3.622,4.669,3.7a19.453,19.453,0,0,0,3.389-.092q0.148-5.788.3-11.578-1.146-.036-2.286-0.1-0.106,2.379-.214,4.756l-0.806-.044c-1.128-.068-1.6-0.58-1.812-2.109a15.476,15.476,0,0,0-.554-2.828q-1.17-.1-2.335-0.216a27.986,27.986,0,0,1,.6,3.308,2.862,2.862,0,0,0,1.444,2.439Zm3.393,1.08q-0.079,1.783-.16,3.567a4.543,4.543,0,0,1-1.148.027c-0.909-.053-2.129-0.438-2.019-1.945,0.082-1.112.962-1.787,2.331-1.7Q167.351,296.883,167.849,296.908Zm-13.006,4.149c3.368,0.523,5.772-1.834,6.1-5.321,0.324-3.392-1.183-6.137-4.224-6.6-2.863-.444-5.261,1.182-6.034,5.195C150.1,297.385,151.279,300.49,154.843,301.057Zm0.329-1.815c-1.861-.293-2.392-2.427-2.034-4.543,0.394-2.331,1.567-4.016,3.244-3.753s2.347,2.246,2.076,4.534C158.206,297.613,157.084,299.537,155.172,299.242Zm-12.122-.619c3.266,0.836,5.848-1.279,6.5-4.717,0.637-3.343-.584-6.218-3.534-6.968-2.775-.711-5.292.682-6.429,4.6C138.72,294.526,139.6,297.724,143.05,298.623Zm0.494-1.775c-1.8-.466-2.127-2.638-1.577-4.71,0.606-2.281,1.92-3.847,3.546-3.428,1.611,0.412,2.1,2.455,1.617,4.706C146.682,295.514,145.4,297.322,143.544,296.848Zm-15.961-3.493q1.13,0.454,2.27.887l1.569-4.393q1.947,0.738,3.921,1.411-0.711,2.223-1.423,4.446,1.158,0.394,2.323.766,1.678-5.6,3.355-11.2-1.062-.338-2.114-0.7-0.768,2.4-1.534,4.793-1.942-.661-3.858-1.389l1.691-4.736q-1.036-.394-2.066-0.807l-4.134,10.924h0Zm2.059-11.781q-1.019-.433-2.029-0.884-2.271,5.375-4.541,10.751,1.11,0.5,2.23.972Q127.473,286.994,129.642,281.574Zm-10.65-3.036q1.879,1.014,3.8,1.961-0.687,1.47-1.375,2.939-1.752-.865-3.475-1.786-0.414.819-.829,1.636,1.748,0.934,3.527,1.813-0.6,1.276-1.2,2.555-1.927-.952-3.82-1.968l-0.853,1.674q2.988,1.6,6.064,3.052l4.743-10.659q-2.905-1.368-5.728-2.89Zm-18.475-.057q3.5,2.508,7.167,4.785l0.987-1.667q-1.294-.8-2.568-1.637l5.136-8.223q-0.921-.6-1.831-1.223l-5.288,8.122q-1.264-.861-2.508-1.752l-1.095,1.595h0Zm-2.087-9.22a3.067,3.067,0,0,0-3.392.95c-1.958,2.426.421,4.606,1.687,5.564a18.213,18.213,0,0,0,2.728,1.749l6.59-9.385q-0.882-.646-1.752-1.309l-2.779,3.806q-0.308-.234-0.614-0.471c-0.858-.662-0.952-1.337-0.283-2.713a15.754,15.754,0,0,0,1.111-2.629q-0.881-.708-1.748-1.434a28.213,28.213,0,0,1-1.336,3.048,2.871,2.871,0,0,0-.185,2.788l-0.028.036h0Zm2.1,2.716-2.085,2.854a4.189,4.189,0,0,1-.924-0.6,1.785,1.785,0,0,1-.537-2.69,1.845,1.845,0,0,1,2.787-.151Q100.151,271.688,100.532,271.977Zm-13.27-4.354q1.112,1.038,2.247,2.049,5.113-3.209,10.014-6.665-0.852-.72-1.691-1.455-1.285.909-2.584,1.8-1.176-1.044-2.325-2.118,0.719-1.422,1.456-2.831-0.837-.793-1.66-1.6Q89.862,262.12,87.262,267.623Zm6.644-3.2q-1.132.768-2.274,1.524c-0.575.395-1.355,0.97-1.952,1.405l-0.036-.033c0.349-.64.815-1.481,1.156-2.15q0.608-1.233,1.23-2.456,0.93,0.864,1.877,1.71h0Zm-16.568-7.107q0.718,0.829,1.449,1.648l2.563-2.351c1.387-1.272,2.554-2.428,3.551-3.527l0.02,0.023a30.149,30.149,0,0,0-1.572,3.9q-0.847,2.552-1.609,5.157,0.9,0.948,1.825,1.877l8.1-8.283q-0.7-.708-1.393-1.427l-2.528,2.5c-1.468,1.451-2.593,2.627-3.543,3.7l-0.044-.046c0.544-1.259,1.079-2.773,1.5-4.061q0.854-2.592,1.8-5.129-0.736-.821-1.457-1.655Zm-5.444-7.324a6.294,6.294,0,0,0,1.232,2.47c1.691,2.151,3.856,2.433,5.285,1.193,1.142-.983,1.227-2.555.683-4.438-0.393-1.385-.348-2.146.3-2.658,0.674-.531,1.53-0.378,2.3.59a5.544,5.544,0,0,1,1.1,2.366q0.851-.436,1.7-0.879a6.479,6.479,0,0,0-1.294-2.6c-1.657-2.074-3.716-2.4-5.329-1.187-1.207.917-1.558,2.251-1.011,4.3,0.41,1.572.508,2.282-.132,2.809-0.5.412-1.343,0.377-2.125-.616a4.918,4.918,0,0,1-.961-2.06q-0.871.357-1.745,0.708h0Zm2.486-12.7q1.137,1.753,2.332,3.466l-7.9,5.6q0.7,1,1.409,1.98l9.3-6.868q-1.854-2.556-3.577-5.212Zm-11.918-.961q0.762,1.331,1.553,2.641,5.859-1.476,11.587-3.253-0.606-.944-1.194-1.9-1.5.468-3.014,0.918-0.821-1.355-1.608-2.73,1.111-1.13,2.234-2.243-0.57-1.012-1.121-2.038-4.314,4.176-8.436,8.606h0Zm7.327-1q-1.314.381-2.635,0.748c-0.669.2-1.588,0.5-2.29,0.734l-0.025-.042c0.524-.5,1.22-1.157,1.745-1.688q0.948-.984,1.906-1.956Q69.129,234.236,69.788,235.332ZM56.814,225.306q1.806,3.974,3.864,7.806l1.692-.915q-0.726-1.353-1.421-2.725l8.58-4.373q-0.5-.993-0.988-1.995l-8.661,4.209q-0.674-1.394-1.315-2.8l-1.749.8h0Zm9.975-5.989q-0.451-1.02-.883-2.051l-10.651,4.471q0.475,1.132.97,2.255Zm-14.344-4.341c1.135,3.182,4.3,4.18,7.5,2.87,3.1-1.273,4.8-3.828,3.77-6.7-0.964-2.7-3.524-4.076-7.382-2.911C53.389,209.123,51.256,211.6,52.445,214.976Zm1.736-.544c-0.624-1.761.98-3.21,2.991-3.867,2.215-.725,4.238-0.467,4.8,1.119,0.56,1.569-.851,3.075-2.971,3.888C57.027,216.329,54.826,216.237,54.181,214.432Zm-6.11-15.46q0.24,1.105.5,2.2l3.381-.787c1.829-.425,3.409-0.86,4.812-1.329l0.007,0.031a29.148,29.148,0,0,0-3.236,2.661q-1.957,1.834-3.864,3.757,0.352,1.294.731,2.58l11.089-3.242q-0.288-.978-0.56-1.964l-3.42.935c-1.985.542-3.538,1.016-4.888,1.489l-0.017-.063c1.077-.84,2.267-1.91,3.252-2.836q1.983-1.866,4.018-3.642-0.262-1.1-.5-2.213l-11.3,2.42h0Zm6.883-18.4a6.074,6.074,0,0,1,.495,1.952c0.2,2.183-1,3.737-3.6,4.057-2.773.342-4.29-1.21-4.486-3.36a5.427,5.427,0,0,1,.2-2.105q-0.918-.18-1.836-0.367a6.592,6.592,0,0,0-.211,2.755c0.323,3.514,2.786,6.152,6.784,5.562,3.4-.5,5.416-2.779,5.071-6.336a7.468,7.468,0,0,0-.657-2.614q-0.881.225-1.76,0.456h0Zm-0.142-8.84q0,2.216.087,4.415l-9.677.329q0.049,1.281.123,2.555l11.544-.623q-0.192-3.315-.2-6.67l-1.88-.006h0ZM45.6,160.3q-0.113,1.309-.2,2.616l6.977,0.5c2.056,0.152,2.854,1.011,2.79,2.307-0.06,1.23-.969,2.022-3,1.952l-6.989-.256q-0.041,1.3-.056,2.592l6.8,0.111c3.4,0.041,4.948-1.485,5.076-4.236,0.136-2.768-1.267-4.636-4.641-4.963L45.6,160.3h0Zm6.363-8.151a2.8,2.8,0,0,0-2.112-2.556,2.414,2.414,0,0,0-2.371.944A7.005,7.005,0,0,0,46.19,154.2a19.8,19.8,0,0,0-.176,3.5l11.3,1.279a25.8,25.8,0,0,0,.461-2.634c0.288-2.216.148-3.673-.408-4.649a3.13,3.13,0,0,0-2.141-1.585,2.889,2.889,0,0,0-3.209,2.052Zm-1.123,3.542-3.043-.408a6.047,6.047,0,0,1,.075-1.153c0.157-1.163.684-2.11,1.813-1.926,0.937,0.153,1.469,1.122,1.276,2.561C50.917,155.071,50.876,155.379,50.837,155.688Zm1.611,0.216c0.039-.31.08-0.621,0.121-0.931,0.171-1.29.848-2.505,2.17-2.284,1.292,0.215,1.651,1.422,1.475,2.733a5.809,5.809,0,0,1-.186.961Z"/>
  </g>
</svg>
