<svg id="Main" xmlns="http://www.w3.org/2000/svg" width="362" height="356" viewBox="0 0 362 356">
  <defs>
    <style>
      .cls-1, .cls-2 {
        stroke: #000;
      }

      .cls-1, .cls-2, .cls-3 {
        stroke-width: 4.68px;
      }

      .cls-1, .cls-2, .cls-3, .cls-4, .cls-5 {
        fill-rule: evenodd;
      }

      .cls-2, .cls-4, .cls-7 {
        fill: #ff0003;
      }

      .cls-3 {
        fill: none;
        stroke: #fff;
      }

      .cls-5, .cls-6 {
        fill: #fff;
      }
    </style>
  </defs>
  <circle id="Ellipse_1_copy_5" data-name="Ellipse 1 copy 5" cx="258.39" cy="249.391" r="72.672"/>
  <circle id="Ellipse_1_copy_4" data-name="Ellipse 1 copy 4" cx="111.39" cy="99.39" r="72.672"/>
  <path id="Shape_317_1_copy" data-name="Shape 317 1 copy" class="cls-1" d="M230.86,317.9C113.627,354.882-5.829,240.856,46.764,118.817,127.854-58.7,379.62,42.114,325.424,222.38c-57.011,174.085-74.444-43.235-74.444-43.235s2.55-64.673-67.4-68.372S87.362,234.3,187.6,243.5c101.636,6.87,51.3,63.344,51.3,63.344S251.183,310.924,230.86,317.9Z"/>
  <path id="Shape_317_1" data-name="Shape 317 1" class="cls-2" d="M225.86,311.9c-117.233,36.983-236.689-77.043-184.1-199.082C122.854-64.7,374.62,36.114,320.424,216.38c-57.011,174.085-74.444-43.235-74.444-43.235s2.55-64.673-67.4-68.372S82.362,228.3,182.6,237.5c101.636,6.87,51.3,63.344,51.3,63.344S246.183,304.924,225.86,311.9Z"/>
  <g id="arrows">
    <path class="cls-3" d="M178.5,55.563A112.5,112.5,0,1,1,66,168.062,112.5,112.5,0,0,1,178.5,55.563Zm0,0A112.5,112.5,0,1,1,66,168.062,112.5,112.5,0,0,1,178.5,55.563Z"/>
    <path id="Color_Fill_2_copy" data-name="Color Fill 2 copy" class="cls-4" d="M300.5,121.636l-21,34.033-18-31.03,13,1,25-7.007Zm-120-56.054s-2.107-10.591-11-17.016-19.209.063-19,1,13.074,17.047,15,18.017,7.055,2.572,9,1A26.087,26.087,0,0,1,180.5,65.582ZM299.5,182.7s-1.685-3.529-12-8.008-28,20.019-28,20.019,32.493,12.431,36,13.013,8.9-5.014,9-9.009S299.5,182.7,299.5,182.7Z"/>
    <path id="Color_Fill_2" data-name="Color Fill 2" class="cls-4" d="M60,216l21-34,18,31-13-1-25,7Zm120,56s2.107,10.58,11,17,19.209-.063,19-1-13.074-17.031-15-18-7.055-2.57-9-1A26.092,26.092,0,0,1,180,272ZM61,155s1.685,3.525,12,8,28-20,28-20-32.493-12.419-36-13-8.9,5.009-9,9S61,155,61,155Z"/>
    <path id="Color_Fill_1" data-name="Color Fill 1" class="cls-5" d="M66.342,212.886L99,168.63s6.7,71.921,75.6,76.414c0.041,16.17.148,19,.148,19s-58.711,2.886-87.464-59.321C75.229,209.018,66.342,212.886,66.342,212.886Z"/>
    <path id="Color_Fill_1_copy" data-name="Color Fill 1 copy" class="cls-5" d="M293.658,124.114L261,168.37s-6.7-71.921-75.6-76.414c-0.041-16.17-.148-19-0.148-19s58.711-2.886,87.464,59.321C284.771,127.982,293.658,124.114,293.658,124.114Z"/>
  </g>
  <g id="ハ">
    <circle id="Ellipse_1_copy_3" data-name="Ellipse 1 copy 3" cx="253.391" cy="243.391" r="72.672"/>
    <circle id="Ellipse_1_copy_2" data-name="Ellipse 1 copy 2" class="cls-6" cx="253.391" cy="243.391" r="67.297"/>
    <path id="ハ-2" data-name="ハ" class="cls-4" d="M264.477,197.019c11,24.311,22.9,63.287,27.73,86.54l15.157-7.134c-4.491-23.518-16.841-59.455-28.517-86.012Zm-38.733-4.888c-3.593,32.634-10.778,63.55-24.138,84.426a76.551,76.551,0,0,1,14.033,8.059c13.36-22.461,21.107-54.83,25.71-84.954a3.265,3.265,0,0,0,3.144-2.511Z"/>
  </g>
  <g id="H">
    <circle id="Ellipse_1_copy" data-name="Ellipse 1 copy" cx="108.39" cy="95.39" r="72.672"/>
    <circle class="cls-7" cx="108.391" cy="95.391" r="67.297"/>
    <path id="H-2" data-name="H" class="cls-5" d="M149.5,145.152V44.74H130.477V84.083H87.327V44.74H68.084V145.152H87.327V99.915h43.15v45.237H149.5Z"/>
  </g>
  <g id="circular_text" data-name="circular text">
    <path id="_HAROOHIE_TRANSLATION_CLUB_copy" data-name="   HAROOHIE  TRANSLATION  CLUB     copy" class="cls-5" d="M174.1,32.849q-1.32.108-2.645,0.243l0.489,4.757q-2.262.231-4.534,0.547-0.33-2.368-.658-4.736-1.332.185-2.667,0.4,0.945,5.914,1.889,11.828,1.215-.195,2.426-0.363-0.354-2.553-.709-5.107,2.236-.311,4.461-0.538l0.528,5.129q1.2-.123,2.407-0.221Zm8.835-.414q-1.639.02-3.288,0.083-1.687,6.057-3.036,12.154,1.215-.083,2.426-0.141,0.35-1.6.721-3.2,1.7-.068,3.4-0.088,0.477,1.575.93,3.154,1.242,0,2.477.017-1.638-6.017-3.629-11.983h0Zm-2.9,7.144q0.332-1.384.679-2.766c0.164-.706.358-1.693,0.511-2.445h0.052c0.2,0.727.446,1.687,0.669,2.43q0.426,1.354.834,2.711-1.37.02-2.745,0.071h0Zm14.212-.485a3.212,3.212,0,0,0,2.435-2.766c0.306-3.2-3.072-3.7-4.764-3.779a19.754,19.754,0,0,0-3.458.094q-0.151,5.907-.3,11.814,1.168,0.037,2.332.1l0.219-4.852,0.823,0.045c1.151,0.069,1.63.591,1.849,2.152a15.77,15.77,0,0,0,.564,2.886q1.194,0.1,2.383.22a28.4,28.4,0,0,1-.609-3.376,2.922,2.922,0,0,0-1.473-2.489Zm-3.463-1.1q0.083-1.82.164-3.639a4.615,4.615,0,0,1,1.171-.028c0.927,0.055,2.173.447,2.06,1.985-0.083,1.134-.982,1.823-2.378,1.739Q191.293,38.017,190.784,37.991Zm13.272-4.234c-3.437-.533-5.89,1.872-6.225,5.43-0.331,3.461,1.206,6.263,4.31,6.739,2.92,0.453,5.368-1.206,6.156-5.3C208.9,37.5,207.692,34.336,204.056,33.757Zm-0.336,1.852c1.9,0.3,2.44,2.477,2.076,4.636-0.4,2.379-1.6,4.1-3.31,3.83s-2.4-2.292-2.119-4.627C200.624,37.272,201.769,35.309,203.72,35.609Zm12.369,0.632c-3.332-.853-5.967,1.306-6.631,4.813-0.65,3.412.6,6.345,3.606,7.111,2.832,0.725,5.4-.7,6.56-4.7,0.884-3.048-.01-6.311-3.535-7.229h0Zm-0.5,1.811c1.841,0.476,2.171,2.693,1.61,4.806-0.619,2.328-1.96,3.926-3.618,3.5s-2.142-2.505-1.651-4.8C212.384,39.414,213.693,37.569,215.585,38.052Zm16.287,3.565q-1.154-.463-2.317-0.905-0.8,2.241-1.6,4.483-1.985-.754-4-1.44,0.726-2.268,1.451-4.536-1.181-.4-2.37-0.782l-3.423,11.434q1.083,0.346,2.157.712,0.783-2.446,1.565-4.891,1.983,0.676,3.937,1.417-0.862,2.417-1.726,4.833,1.059,0.4,2.108.823,2.111-5.574,4.219-11.147h0Zm-2.1,12.021q1.04,0.441,2.07.9l4.634-10.971q-1.132-.507-2.276-0.992Zm10.868,3.1q-1.918-1.035-3.875-2l1.4-3q1.788,0.883,3.546,1.822l0.846-1.669q-1.783-.953-3.6-1.85l1.219-2.607q1.967,0.971,3.9,2.008l0.87-1.709q-3.05-1.637-6.188-3.114L233.92,55.494q2.965,1.4,5.845,2.949Q240.2,57.59,240.639,56.736Zm18.851,0.058q-3.574-2.56-7.313-4.882l-1.007,1.7q1.32,0.82,2.621,1.671-2.622,4.2-5.242,8.391,0.94,0.615,1.869,1.248l5.4-8.288q1.29,0.879,2.56,1.788Zm2.13,9.409a3.128,3.128,0,0,0,3.461-.97c2-2.475-.429-4.7-1.721-5.677a18.6,18.6,0,0,0-2.784-1.784l-6.724,9.577q0.9,0.659,1.787,1.335l2.836-3.883c0.21,0.159.418,0.319,0.627,0.48,0.875,0.676.971,1.364,0.288,2.769a16.134,16.134,0,0,0-1.134,2.683q0.9,0.723,1.784,1.463a28.989,28.989,0,0,1,1.363-3.11,2.929,2.929,0,0,0,.189-2.844l0.028-.037h0Zm-2.145-2.772,2.127-2.912a4.287,4.287,0,0,1,.943.607,1.822,1.822,0,0,1,.548,2.745,1.882,1.882,0,0,1-2.843.154Q259.863,63.726,259.475,63.431Zm13.541,4.443q-1.136-1.059-2.293-2.091-5.217,3.275-10.219,6.8,0.87,0.734,1.726,1.485,1.311-.928,2.637-1.84,1.2,1.065,2.372,2.161-0.733,1.451-1.486,2.889,0.855,0.809,1.694,1.635,2.916-5.424,5.569-11.04h0Zm-6.78,3.267q1.155-.784,2.321-1.555c0.587-.4,1.382-0.99,1.992-1.433l0.036,0.033c-0.356.654-.831,1.511-1.179,2.194q-0.621,1.257-1.255,2.506Q267.2,72,266.236,71.141Zm16.907,7.252q-0.733-.847-1.479-1.682l-2.615,2.4c-1.415,1.3-2.6,2.478-3.623,3.6l-0.021-.023a30.658,30.658,0,0,0,1.6-3.975q0.864-2.6,1.642-5.263-0.923-.967-1.863-1.915l-8.266,8.451q0.717,0.723,1.422,1.457l2.58-2.549c1.5-1.48,2.645-2.681,3.615-3.779l0.045,0.047c-0.555,1.285-1.1,2.83-1.535,4.144q-0.872,2.646-1.832,5.234,0.751,0.837,1.487,1.689Zm5.555,7.473a6.423,6.423,0,0,0-1.258-2.52c-1.725-2.2-3.934-2.483-5.393-1.218-1.165,1-1.252,2.607-.7,4.528,0.4,1.414.354,2.19-.307,2.713-0.688.542-1.561,0.385-2.35-.6a5.654,5.654,0,0,1-1.119-2.413q-0.867.445-1.732,0.9a6.606,6.606,0,0,0,1.321,2.651c1.691,2.116,3.792,2.452,5.438,1.212,1.232-.936,1.59-2.3,1.032-4.388-0.418-1.6-.518-2.328.135-2.866,0.507-.421,1.371-0.385,2.168.629a5.017,5.017,0,0,1,.981,2.1Q287.805,86.224,288.7,85.866Zm-2.537,12.962q-1.16-1.79-2.38-3.537l8.058-5.716q-0.709-1.017-1.437-2.02l-9.492,7.008q1.891,2.609,3.65,5.319Zm12.162,0.98q-0.777-1.357-1.585-2.695-5.978,1.506-11.823,3.319,0.618,0.965,1.219,1.941,1.533-.479,3.075-0.937,0.838,1.381,1.641,2.785-1.134,1.153-2.28,2.289,0.582,1.033,1.145,2.079Q294.116,104.331,298.323,99.808Zm-7.477,1.016q1.341-.39,2.689-0.764c0.682-.2,1.62-0.514,2.336-0.748,0.009,0.014.017,0.028,0.025,0.043-0.535.511-1.244,1.18-1.78,1.722q-0.969,1-1.945,2Q291.52,101.941,290.846,100.824Zm13.239,10.23q-1.844-4.055-3.943-7.965l-1.726.933q0.741,1.381,1.451,2.781l-8.755,4.463q0.513,1.013,1.008,2.035l8.838-4.294q0.687,1.42,1.342,2.861l1.785-.814h0Zm-10.179,6.111q0.461,1.041.9,2.093l10.869-4.562q-0.484-1.156-.99-2.3Zm14.637,4.43c-1.158-3.247-4.392-4.265-7.648-2.928-3.169,1.3-4.9,3.906-3.848,6.835,0.984,2.76,3.6,4.159,7.533,2.97C307.581,127.568,309.757,125.04,308.543,121.6Zm-1.771.556c0.637,1.8-1,3.274-3.052,3.945-2.26.74-4.325,0.476-4.9-1.142-0.572-1.6.869-3.138,3.032-3.967C303.868,120.215,306.113,120.308,306.772,122.151Zm6.235,15.774q-0.245-1.127-.509-2.247l-3.449.8c-1.867.435-3.479,0.878-4.91,1.357,0-.01,0-0.021-0.008-0.031a29.9,29.9,0,0,0,3.3-2.716q2-1.872,3.943-3.833-0.36-1.322-.746-2.633l-11.315,3.308q0.294,1,.571,2l3.49-.954c2.026-.554,3.61-1.037,4.988-1.519l0.018,0.064c-1.1.857-2.313,1.949-3.319,2.894q-2.024,1.9-4.1,3.716,0.267,1.125.513,2.258l11.53-2.47h0ZM305.983,156.7a6.185,6.185,0,0,1-.5-1.992c-0.207-2.227,1.023-3.813,3.674-4.14,2.83-.349,4.377,1.235,4.578,3.429a5.53,5.53,0,0,1-.205,2.148q0.936,0.183,1.873.375a6.73,6.73,0,0,0,.216-2.812c-0.33-3.585-2.844-6.277-6.923-5.675-3.468.51-5.526,2.836-5.174,6.465a7.617,7.617,0,0,0,.67,2.667q0.9-.23,1.8-0.465h0Zm0.145,9.021q0-2.262-.089-4.506l9.875-.336q-0.051-1.305-.126-2.606l-11.78.636q0.2,3.381.2,6.806l1.918,0.006h0Zm9.4,11.669q0.115-1.337.2-2.669l-7.119-.512c-2.1-.155-2.912-1.032-2.847-2.354,0.061-1.255.988-2.063,3.059-1.992l7.132,0.261q0.042-1.324.057-2.644l-6.935-.114c-3.473-.041-5.049,1.515-5.18,4.323-0.139,2.824,1.293,4.73,4.736,5.064Zm-6.493,8.317a2.856,2.856,0,0,0,2.156,2.608,2.463,2.463,0,0,0,2.419-.962,7.149,7.149,0,0,0,1.313-3.737,20.324,20.324,0,0,0,.18-3.568l-11.534-1.306a26.168,26.168,0,0,0-.471,2.688c-0.293,2.261-.151,3.747.417,4.744a3.194,3.194,0,0,0,2.185,1.617,2.948,2.948,0,0,0,3.275-2.094Zm1.146-3.614,3.1,0.416a6.164,6.164,0,0,1-.077,1.177c-0.16,1.187-.7,2.153-1.85,1.965-0.956-.156-1.5-1.144-1.3-2.613Q310.124,182.566,310.184,182.093Zm-1.644-.22q-0.06.474-.124,0.95c-0.175,1.316-.865,2.555-2.214,2.33-1.318-.219-1.684-1.45-1.5-2.789a6.041,6.041,0,0,1,.19-0.98Z"/>
    <path id="_HAROOHIE_TRANSLATION_CLUB_" data-name="   HAROOHIE  TRANSLATION  CLUB    " class="cls-5" d="M184.3,304.665q1.322-.108,2.646-0.243l-0.489-4.757q2.261-.231,4.534-0.547,0.329,2.368.658,4.736,1.332-.185,2.667-0.4-0.945-5.913-1.889-11.828-1.215.195-2.427,0.363,0.355,2.554.71,5.107-2.237.31-4.462,0.538-0.262-2.563-.527-5.128-1.206.123-2.407,0.221Q183.809,298.7,184.3,304.665Zm-8.834.414q1.639-.02,3.287-0.082,1.688-6.057,3.037-12.155-1.215.084-2.427,0.141-0.348,1.6-.72,3.2-1.7.069-3.4,0.088-0.477-1.575-.93-3.154-1.24,0-2.477-.017Q173.477,299.113,175.467,305.079Zm2.9-7.144q-0.332,1.385-.679,2.766c-0.164.706-.358,1.693-0.51,2.445h-0.053c-0.195-.727-0.445-1.687-0.668-2.43q-0.426-1.353-.835-2.711Q176.991,297.987,178.366,297.935Zm-14.211.486a3.212,3.212,0,0,0-2.436,2.765c-0.306,3.2,3.073,3.7,4.764,3.779a19.735,19.735,0,0,0,3.459-.094l0.3-11.814q-1.168-.036-2.332-0.1-0.11,2.427-.218,4.853-0.413-.021-0.823-0.045c-1.151-.069-1.631-0.591-1.849-2.152a15.871,15.871,0,0,0-.564-2.886q-1.2-.1-2.383-0.22a28.45,28.45,0,0,1,.608,3.375,2.922,2.922,0,0,0,1.474,2.489Zm3.463,1.1q-0.083,1.82-.164,3.639a4.66,4.66,0,0,1-1.171.028c-0.928-.055-2.173-0.448-2.06-1.985,0.083-1.135.981-1.824,2.378-1.739Q167.108,299.5,167.618,299.524Zm-13.272,4.233c3.436,0.533,5.89-1.872,6.225-5.43,0.331-3.461-1.206-6.262-4.31-6.738-2.921-.453-5.368,1.206-6.157,5.3C149.5,300.01,150.71,303.178,154.346,303.757Zm0.336-1.852c-1.9-.3-2.441-2.477-2.076-4.636,0.4-2.379,1.6-4.1,3.31-3.829s2.4,2.291,2.119,4.626C157.777,300.242,156.633,302.206,154.682,301.9Zm-12.37-.632c3.332,0.854,5.968-1.305,6.632-4.813,0.649-3.412-.6-6.345-3.606-7.111-2.832-.725-5.4.7-6.561,4.7C137.894,297.092,138.787,300.356,142.312,301.273Zm0.5-1.811c-1.841-.475-2.172-2.692-1.61-4.806,0.619-2.328,1.96-3.926,3.618-3.5s2.141,2.5,1.65,4.8C146.018,298.1,144.709,299.945,142.817,299.462ZM126.529,295.9q1.154,0.464,2.317.905,0.8-2.241,1.6-4.482,1.986,0.753,4,1.44L133,298.3q1.18,0.4,2.371.782,1.712-5.718,3.422-11.434-1.081-.345-2.157-0.712-0.782,2.447-1.565,4.891-1.983-.675-3.937-1.417,0.864-2.416,1.726-4.833-1.057-.4-2.108-0.824-2.109,5.574-4.219,11.147h0Zm2.1-12.021q-1.041-.441-2.071-0.9l-4.633,10.971q1.132,0.505,2.275.991Q126.416,289.407,128.631,283.876Zm-10.868-3.1q1.918,1.035,3.875,2-0.7,1.5-1.4,3-1.788-.884-3.546-1.823l-0.846,1.669q1.783,0.954,3.6,1.85-0.61,1.3-1.219,2.607-1.968-.971-3.9-2.008l-0.87,1.709q3.05,1.637,6.188,3.114,2.419-5.439,4.84-10.877-2.966-1.395-5.845-2.949Q118.2,279.924,117.763,280.778Zm-18.851-.058q3.574,2.56,7.313,4.883l1.006-1.7q-1.32-.82-2.62-1.671l5.241-8.391q-0.939-.615-1.869-1.248l-5.4,8.288q-1.291-.877-2.56-1.787l-1.116,1.627h0Zm-2.13-9.408a3.128,3.128,0,0,0-3.461.97c-2,2.475.429,4.7,1.722,5.677a18.535,18.535,0,0,0,2.784,1.784l6.725-9.576q-0.9-.66-1.788-1.335l-2.836,3.883-0.627-.48c-0.875-.676-0.971-1.365-0.288-2.769a16,16,0,0,0,1.133-2.683q-0.9-.723-1.783-1.463A28.784,28.784,0,0,1,97,268.431a2.928,2.928,0,0,0-.188,2.844l-0.028.037h0Zm2.145,2.772L96.8,277a4.321,4.321,0,0,1-.943-0.607,1.822,1.822,0,0,1-.548-2.745,1.882,1.882,0,0,1,2.844-.154Q98.538,273.789,98.926,274.084Zm-13.54-4.444q1.134,1.059,2.293,2.092,5.217-3.276,10.219-6.8-0.87-.734-1.726-1.484-1.311.927-2.637,1.839-1.2-1.065-2.372-2.161,0.734-1.451,1.486-2.889-0.854-.808-1.693-1.634Q88.039,264.025,85.386,269.64Zm6.779-3.267q-1.155.785-2.321,1.556c-0.587.4-1.382,0.989-1.992,1.433l-0.037-.033c0.356-.654.832-1.512,1.18-2.195q0.621-1.257,1.254-2.5,0.949,0.88,1.915,1.744h0Zm-16.906-7.252q0.732,0.846,1.478,1.682l2.615-2.4c1.415-1.3,2.606-2.478,3.623-3.6L83,254.829a30.713,30.713,0,0,0-1.6,3.975q-0.864,2.6-1.641,5.262,0.922,0.968,1.862,1.915l8.266-8.451q-0.717-.723-1.422-1.457l-2.58,2.549c-1.5,1.48-2.646,2.681-3.615,3.779l-0.045-.047c0.555-1.285,1.1-2.83,1.535-4.144q0.872-2.646,1.832-5.234-0.751-.837-1.487-1.689ZM69.7,251.648a6.419,6.419,0,0,0,1.258,2.52c1.726,2.195,3.934,2.482,5.393,1.218,1.165-1,1.252-2.607.7-4.529-0.4-1.414-.355-2.19.306-2.712,0.688-.543,1.561-0.386,2.35.6a5.652,5.652,0,0,1,1.119,2.414q0.868-.445,1.733-0.9a6.609,6.609,0,0,0-1.321-2.651c-1.691-2.116-3.792-2.451-5.438-1.212-1.232.936-1.59,2.3-1.032,4.388,0.418,1.605.518,2.329-.135,2.867-0.507.42-1.371,0.385-2.168-.629a5.015,5.015,0,0,1-.981-2.1q-0.889.366-1.781,0.723h0Zm2.537-12.962q1.161,1.789,2.38,3.537l-8.058,5.717q0.71,1.017,1.437,2.02l9.493-7.008q-1.892-2.608-3.65-5.319Zm-12.162-.98q0.777,1.357,1.585,2.7,5.978-1.506,11.823-3.319-0.618-.964-1.219-1.94-1.533.477-3.076,0.936-0.838-1.381-1.641-2.785,1.133-1.154,2.28-2.289-0.582-1.033-1.144-2.079-4.4,4.26-8.608,8.781h0Zm7.477-1.016q-1.341.39-2.688,0.764c-0.683.2-1.62,0.515-2.337,0.748l-0.025-.042c0.535-.512,1.245-1.181,1.781-1.723q0.968-1,1.945-2Q66.882,235.573,67.555,236.69ZM54.317,226.46q1.843,4.054,3.943,7.966l1.726-.934q-0.741-1.381-1.45-2.781l8.755-4.463q-0.513-1.012-1.008-2.035l-8.838,4.3q-0.688-1.422-1.342-2.862l-1.785.814h0ZM64.5,220.349q-0.46-1.041-.9-2.093l-10.869,4.562q0.484,1.156.99,2.3Zm-14.636-4.43c1.158,3.247,4.392,4.265,7.648,2.929,3.168-1.3,4.9-3.907,3.847-6.836-0.984-2.759-3.6-4.159-7.532-2.97C50.821,209.946,48.645,212.475,49.859,215.919Zm1.771-.555c-0.636-1.8,1-3.275,3.052-3.946,2.26-.74,4.325-0.476,4.9,1.142,0.572,1.6-.869,3.138-3.031,3.967C54.533,217.3,52.288,217.206,51.629,215.364Zm-6.235-15.775q0.245,1.127.509,2.247l3.45-.8c1.867-.435,3.479-0.878,4.91-1.357l0.007,0.031a29.824,29.824,0,0,0-3.3,2.716q-2,1.872-3.943,3.834,0.36,1.32.746,2.632l11.315-3.307q-0.294-1-.571-2l-3.49.954c-2.026.554-3.61,1.037-4.988,1.52l-0.018-.065c1.1-.857,2.313-1.949,3.319-2.894q2.023-1.9,4.1-3.715-0.267-1.126-.513-2.258l-11.529,2.469h0Zm7.024-18.775a6.2,6.2,0,0,1,.505,1.992c0.206,2.228-1.023,3.813-3.674,4.14-2.83.349-4.377-1.235-4.578-3.429a5.535,5.535,0,0,1,.205-2.147q-0.937-.184-1.873-0.376a6.728,6.728,0,0,0-.215,2.812c0.33,3.585,2.843,6.277,6.922,5.675,3.468-.51,5.527-2.836,5.174-6.465a7.617,7.617,0,0,0-.67-2.667q-0.9.23-1.8,0.465h0Zm-0.145-9.021q0,2.262.089,4.506l-9.875.336q0.05,1.305.125,2.606l11.78-.636q-0.2-3.381-.2-6.806l-1.918-.006h0Zm-9.4-11.669q-0.115,1.336-.2,2.669l7.119,0.512c2.1,0.155,2.912,1.032,2.847,2.354-0.061,1.255-.988,2.063-3.06,1.992l-7.132-.261q-0.042,1.325-.057,2.644l6.935,0.114c3.473,0.041,5.049-1.515,5.18-4.323,0.139-2.824-1.293-4.73-4.736-5.064l-6.894-.637h0Zm6.493-8.317a2.856,2.856,0,0,0-2.156-2.608,2.462,2.462,0,0,0-2.419.963,7.147,7.147,0,0,0-1.312,3.736,20.191,20.191,0,0,0-.18,3.569l11.534,1.3a26.224,26.224,0,0,0,.471-2.688c0.294-2.261.151-3.747-.417-4.744a3.2,3.2,0,0,0-2.185-1.617,2.948,2.948,0,0,0-3.275,2.094Zm-1.146,3.614-3.1-.416a6.182,6.182,0,0,1,.077-1.177c0.16-1.187.7-2.153,1.85-1.965,0.956,0.156,1.5,1.144,1.3,2.613Q48.277,154.949,48.218,155.421Zm1.644,0.22q0.06-.474.124-0.95c0.175-1.316.866-2.555,2.214-2.33,1.318,0.219,1.684,1.451,1.5,2.789a5.984,5.984,0,0,1-.19.981Z"/>
  </g>
</svg>
