<svg xmlns="http://www.w3.org/2000/svg" xmlns:xlink="http://www.w3.org/1999/xlink" width="612" height="750" viewBox="0 0 612 750">
  <defs>
    <clipPath id="clip-SOS_Brigade_Vector_Logo">
      <rect width="612" height="750"/>
    </clipPath>
  </defs>
  <g id="SOS_Brigade_Vector_Logo" data-name="SOS Brigade Vector Logo" clip-path="url(#clip-SOS_Brigade_Vector_Logo)">
    <g id="Group_3" data-name="Group 3" transform="translate(0 -1.338)">
      <path id="Subtraction_4" data-name="Subtraction 4" d="M340.3-1687.412a187.162,187.162,0,0,0-22.078-1.705c-4.956,0-8.357.451-10.109,1.34a4.05,4.05,0,0,0-.5.306,300.854,300.854,0,0,1-44.679-5.867,299.247,299.247,0,0,1-57.345-18.179,303.6,303.6,0,0,1-51.894-28.767,309.221,309.221,0,0,1-45.213-38.1,312.818,312.818,0,0,1-37.3-46.176,314.254,314.254,0,0,1-28.167-53,315.362,315.362,0,0,1-17.8-58.566A320.716,320.716,0,0,1,19-1999a320.7,320.7,0,0,1,6.206-62.878,315.392,315.392,0,0,1,17.8-58.566,314.287,314.287,0,0,1,28.167-53,312.981,312.981,0,0,1,37.3-46.175,309.463,309.463,0,0,1,45.213-38.1,303.839,303.839,0,0,1,51.894-28.766,299.507,299.507,0,0,1,57.345-18.18A301.7,301.7,0,0,1,324.5-2311a301.7,301.7,0,0,1,61.569,6.339,299.486,299.486,0,0,1,57.345,18.18,303.857,303.857,0,0,1,51.893,28.766,309.189,309.189,0,0,1,45.213,38.1,313.03,313.03,0,0,1,37.3,46.175,314.172,314.172,0,0,1,28.167,53,315.247,315.247,0,0,1,17.8,58.566A320.714,320.714,0,0,1,630-1999a320.714,320.714,0,0,1-6.206,62.879,315.238,315.238,0,0,1-17.8,58.566,314.021,314.021,0,0,1-28.167,53,312.754,312.754,0,0,1-37.3,46.176,309.228,309.228,0,0,1-45.213,38.1,303.482,303.482,0,0,1-51.893,28.767,299.325,299.325,0,0,1-57.345,18.179,300.961,300.961,0,0,1-45.771,5.927ZM225.55-2241.932a222.579,222.579,0,0,0-27.393,14.693,304.048,304.048,0,0,0-27.625,19.266A295.918,295.918,0,0,0,139.5-2179.96c-24.2,25.229-42.574,53.713-54.614,84.663-15.052,38.689-20.194,81.365-15.283,126.844s18.892,85.932,41.553,120.229c18.128,27.439,41.823,51.026,70.425,70.106a285.089,285.089,0,0,0,35.756,20.237,291.853,291.853,0,0,0,30.632,12.483,213.824,213.824,0,0,0,29.443,8.076v-.008a71.943,71.943,0,0,1,3.264-16.545,75.909,75.909,0,0,1,7.645-15.257l-15.344-12.111,11.369-24.345a48.462,48.462,0,0,1-2.9-6.748,54.451,54.451,0,0,1-3.129-16.366c-.16-6.625,1.29-13.912,2.534-18.859,1.356-5.39,2.754-9.2,2.767-9.241l-21.3-10.985,12.805-17.9-.006,0a139.388,139.388,0,0,1-21.3-16.378,134.589,134.589,0,0,1-17.487-19.555,100.386,100.386,0,0,1-13.914-26.316,123.989,123.989,0,0,1-5.855-31.438,218.007,218.007,0,0,1,.242-30.826,257.631,257.631,0,0,1,4.481-32.773l-22.269-22.667,9.12-21.916-.006-.009c-.085-.115-2.1-2.868-4.574-6.965a112.7,112.7,0,0,1-8.5-17.126c-3.036-7.859-4.572-15.12-4.565-21.583.008-8.078,2.44-14.924,7.229-20.348,2.741-3.1,6.695-5.355,11.75-6.687a44.2,44.2,0,0,1,10.994-1.344c1.675,0,2.8.094,2.92.105l18.67,3.229v-13.97l-11.42-12.644,75.271,21.6-.013-.006-.01,0c-1.617-.646-10.221-4.15-20.848-9.66a211.063,211.063,0,0,1-18.6-10.8,115.972,115.972,0,0,1-17.359-13.62,80.505,80.505,0,0,1-12.154-15.252,88.464,88.464,0,0,1-7.148-14.389,75.144,75.144,0,0,1-4.231-14.9Zm132.211,410.937c.1.042,9,3.931,20.017,9.9,6.548,3.548,12.6,7.144,17.985,10.688A135.134,135.134,0,0,1,412.8-1797.4a79.291,79.291,0,0,1,11.983,13.878,74.442,74.442,0,0,1,6.862,12.591,54.793,54.793,0,0,1,3.846,12.669c.032-.016,4.811-2.416,12.971-7.322a352.569,352.569,0,0,0,30.994-21,293.286,293.286,0,0,0,37.139-33.224c13.364-14.322,23.93-29.124,31.4-43.994,31.122-61.912,45.288-114.878,25.6-202.4-21.181-80.856-67.388-127.031-102.421-151.53A242.546,242.546,0,0,0,417.822-2246c-14.81-5.531-25.536-7.592-28.819-7.592a3.364,3.364,0,0,0-.875.085c-2.938.882-5.673,4.241-7.7,9.459a43.793,43.793,0,0,0-2.854,15.053c0,6.538,3.993,7.514,6.374,7.514a8.352,8.352,0,0,0,1.85-.2,11.024,11.024,0,0,1,2.972-3.306,15.162,15.162,0,0,1,4.358-2.272,21.529,21.529,0,0,1,6.842-1.033c5.222,0,11.372,1.507,18.279,4.478,12.352,5.321,22.151,9.963,32.828,16.649,9.86,6.179,20.71,14.226,37.45,27.775,1.148,1.3,2.4,2.7,3.911,4.385l.005.006.033.037.073.081c20.442,22.793,58.491,65.22,67.166,145.424a373.764,373.764,0,0,1,2.382,51.312,224.679,224.679,0,0,1-4.363,39.019,210,210,0,0,1-9.2,31.6c-3.662,9.837-7.762,19.135-12.1,28.979l0,.007-.028.063,0,.006-.073.165-.3.687-.007.016-.011.024-.013.029c-1.24,2.812-2.782,6.312-4.3,9.818-5.979,13.826-13.065,23.871-21.061,29.856-6.874,5.146-13.062,6.226-17.042,6.226a16.15,16.15,0,0,1-5.435-.766,89.034,89.034,0,0,1-13.184,12.083,69.55,69.55,0,0,1-14.209,8.308,44.193,44.193,0,0,1-17.27,3.776h-.013a35.573,35.573,0,0,1-7.979-.9C408.685-1815.288,359.833-1830.355,357.761-1830.995Zm45.811-378.967a11.646,11.646,0,0,0-8.266,3.175,6.878,6.878,0,0,0-2.058,5.6,8.966,8.966,0,0,0,4.088,6.611c.458.311,1.642.88,3.435,1.742l.007,0,.04.019.01,0,.005,0,.062.03a237.7,237.7,0,0,1,57.4,37.853,208.012,208.012,0,0,1,35.618,41.531,198.934,198.934,0,0,1,14.9,27.566,205.306,205.306,0,0,1,11.2,32.536,250.462,250.462,0,0,1,6.531,37.321,238.774,238.774,0,0,1,.851,34.106,232.746,232.746,0,0,1-9.8,56.793,212.161,212.161,0,0,1-15.919,38.6c-5.067,9.39-9.337,15.229-10.97,16.862a19.741,19.741,0,0,0-4.319,6.488,16.086,16.086,0,0,0-1.233,6.67,8.537,8.537,0,0,0,2.731,6.323,4.308,4.308,0,0,0,2.842.925c2.378,0,5.619-1.381,8.893-3.788a27.574,27.574,0,0,0,7.3-7.732c.1-.165.222-.38.369-.63l0-.006.06-.1.021-.034c12.822-21.706,52.821-100.1,29.216-197.464a211.947,211.947,0,0,0-30.42-68.928,228.617,228.617,0,0,0-41.747-46.3,241.265,241.265,0,0,0-37.8-26.283c-10.128-5.65-17.256-8.521-18.573-8.874A17.358,17.358,0,0,0,403.572-2209.962Zm6.266,40.96h0v.005c.011.5.09,5.084-.414,11.354a97.1,97.1,0,0,1-4.32,22.721,76.8,76.8,0,0,1-10,18.936,75.725,75.725,0,0,1-6.095,7.573h0a.04.04,0,0,1,.013.007,69.04,69.04,0,0,1,6.4,3.864,111.9,111.9,0,0,1,15.067,12.193,114.525,114.525,0,0,1,17.464,21.379,111.552,111.552,0,0,1,13.6,31.431,175.713,175.713,0,0,1,5.392,34.168,171.506,171.506,0,0,1-.6,27.4,127.177,127.177,0,0,1-4.793,24.822l45.162,53.295.007-.012a84.585,84.585,0,0,0,4.8-9.373,166.549,166.549,0,0,0,9.346-27.5,221.188,221.188,0,0,0,6.242-44.629,278.7,278.7,0,0,0-4.5-60.775,177.749,177.749,0,0,0-21.479-58.366,182.547,182.547,0,0,0-31.118-39.326,190.313,190.313,0,0,0-15.192-13.121c-4.2-3.255-8.515-6.309-12.823-9.077A119.5,119.5,0,0,0,409.838-2169ZM333.06-2061.751c-16.46,0-28.946,6.466-37.112,19.219-8.368,13.071-10.125,29.481-10.125,40.946,0,9.944,1.265,28.956,9.734,44.551,8.225,15.144,20.843,22.823,37.5,22.823,16.481,0,28.736-7.873,36.424-23.4,7.532-15.211,8.657-34.08,8.657-43.973,0-11.339-1.57-27.547-9.047-40.369C361.433-2055.091,349.309-2061.751,333.06-2061.751Z" transform="translate(-19 2316.999)" fill="#38c7f2"/>
      <path id="Path_15" data-name="Path 15" d="M370.251,2479.835l-2.385,10.837s49.461,28,68.583,88.378-7.371,125.858-7.371,125.858l8.294,9.762s30.628-64.754,9.66-135.62S370.251,2479.835,370.251,2479.835Z" transform="translate(19 -2311)" fill="#2f3195"/>
      <path id="Subtraction_3" data-name="Subtraction 3" d="M373.408-1688.282v0l32.92-48.5-17.63-39.054c-.322-.238-32.484-24-43.137-30.925-2.465-1.6-4-4.522-4.559-8.676a42.551,42.551,0,0,1,.506-12.234,98.709,98.709,0,0,1,4.052-15.638l7.944-25.683,67.523,11.813,46.389,5.436,11.246-28.114-11.246-30.925L421.03-1940.3l9.841-26.708-9.841-78.719-36.616-45.2-38.852-6.816-67.913,36.549L239.7-2097.739v-43.576l77.314,21.085h67.405l-15.394-59.039-63.965-41.71-27.406-38.416,67.913-51.6-23.834.939c7.91-.625,15.93-.94,23.835-.94a301.7,301.7,0,0,1,61.569,6.339,299.516,299.516,0,0,1,57.345,18.18,303.9,303.9,0,0,1,51.893,28.765,309.216,309.216,0,0,1,45.213,38.1,313.036,313.036,0,0,1,37.3,46.175,314.17,314.17,0,0,1,28.167,53,315.313,315.313,0,0,1,17.8,58.565A320.719,320.719,0,0,1,651.063-1999a320.723,320.723,0,0,1-6.206,62.879,315.323,315.323,0,0,1-17.8,58.566,314.106,314.106,0,0,1-28.167,53,312.77,312.77,0,0,1-37.3,46.175,309.23,309.23,0,0,1-45.213,38.1,303.5,303.5,0,0,1-51.893,28.767,299.319,299.319,0,0,1-57.345,18.179,300.092,300.092,0,0,1-33.722,5.056ZM378.824-1831c.367.16,9.094,3.98,20.017,9.9,6.543,3.545,12.594,7.141,17.985,10.688a135.243,135.243,0,0,1,17.038,13.012,79.377,79.377,0,0,1,11.983,13.878,74.461,74.461,0,0,1,6.862,12.591,54.552,54.552,0,0,1,3.846,12.669c.031-.016,4.914-2.478,12.971-7.322a352.573,352.573,0,0,0,30.994-21,293.36,293.36,0,0,0,37.139-33.224c13.364-14.322,23.93-29.123,31.4-43.994,31.122-61.912,45.288-114.878,25.6-202.4-21.181-80.856-67.388-127.031-102.421-151.53A242.546,242.546,0,0,0,438.885-2246c-14.81-5.531-25.536-7.592-28.819-7.592a3.369,3.369,0,0,0-.875.085c-2.938.882-5.673,4.241-7.7,9.459a43.79,43.79,0,0,0-2.854,15.053c0,6.538,3.993,7.514,6.374,7.514a8.444,8.444,0,0,0,1.85-.2,10.845,10.845,0,0,1,2.972-3.306,15.151,15.151,0,0,1,4.358-2.272,21.529,21.529,0,0,1,6.842-1.033c5.222,0,11.371,1.507,18.279,4.478,12.353,5.323,22.154,9.964,32.828,16.649,9.863,6.181,20.713,14.228,37.45,27.775,1.152,1.308,2.4,2.7,3.911,4.385l.005.007.033.037.073.081c20.441,22.792,58.49,65.218,67.166,145.424a373.753,373.753,0,0,1,2.382,51.312,224.68,224.68,0,0,1-4.363,39.019,210,210,0,0,1-9.2,31.6c-3.652,9.811-7.742,19.089-12.073,28.911l-.03.068,0,.007-.028.063,0,.006-.073.165-.3.687-.007.016-.011.024c-1.307,2.965-2.789,6.326-4.311,9.847-5.978,13.825-13.064,23.87-21.061,29.856-6.874,5.146-13.062,6.226-17.043,6.226a16.154,16.154,0,0,1-5.435-.766,87.567,87.567,0,0,1-13.184,12.083,69.591,69.591,0,0,1-14.209,8.308,44.2,44.2,0,0,1-17.27,3.776h-.014a35.565,35.565,0,0,1-7.978-.9C429.708-1815.3,380.889-1830.357,378.824-1831Zm45.811-378.966a11.647,11.647,0,0,0-8.266,3.175,6.876,6.876,0,0,0-2.058,5.6,8.964,8.964,0,0,0,4.088,6.611c.458.311,1.642.88,3.435,1.742l.007,0,.04.019.01,0,.005,0,.062.03a237.7,237.7,0,0,1,57.4,37.853,208.076,208.076,0,0,1,35.617,41.531,199.065,199.065,0,0,1,14.9,27.566,205.427,205.427,0,0,1,11.2,32.536,250.571,250.571,0,0,1,6.531,37.321,238.911,238.911,0,0,1,.851,34.106,232.793,232.793,0,0,1-9.8,56.793,212.261,212.261,0,0,1-15.919,38.6c-5.069,9.392-9.338,15.23-10.97,16.862a19.73,19.73,0,0,0-4.319,6.488,16.075,16.075,0,0,0-1.233,6.67,8.534,8.534,0,0,0,2.731,6.322,4.308,4.308,0,0,0,2.842.925c2.377,0,5.619-1.381,8.893-3.788a27.587,27.587,0,0,0,7.3-7.732c.094-.162.217-.372.361-.615l.012-.02.06-.1.021-.034c12.822-21.707,52.821-100.1,29.216-197.464a211.942,211.942,0,0,0-30.42-68.928,228.635,228.635,0,0,0-41.747-46.3,241.284,241.284,0,0,0-37.8-26.283c-10.132-5.652-17.258-8.521-18.573-8.874A17.359,17.359,0,0,0,424.634-2209.962ZM430.9-2169h0v.007c.011.5.09,5.086-.414,11.355a97.1,97.1,0,0,1-4.32,22.721,76.809,76.809,0,0,1-10,18.936,75.2,75.2,0,0,1-6.095,7.573l0,0,.013.007a69.362,69.362,0,0,1,6.4,3.864,111.862,111.862,0,0,1,15.067,12.193,114.534,114.534,0,0,1,17.464,21.379,111.575,111.575,0,0,1,13.6,31.431,175.723,175.723,0,0,1,5.392,34.168,171.491,171.491,0,0,1-.6,27.4,148.179,148.179,0,0,1-2.969,18.041c-1,4.322-1.816,6.757-1.824,6.781l45.162,53.295.007-.012a84.687,84.687,0,0,0,4.8-9.373,166.54,166.54,0,0,0,9.346-27.5,221.254,221.254,0,0,0,6.242-44.629,278.7,278.7,0,0,0-4.5-60.775A177.769,177.769,0,0,0,502.2-2100.5a182.552,182.552,0,0,0-31.118-39.326,190.269,190.269,0,0,0-15.192-13.121c-4.206-3.258-8.52-6.312-12.823-9.077A120.088,120.088,0,0,0,430.9-2169Z" transform="translate(-40.062 2316.999)" fill="#94c23e"/>
      <path id="Path_16" data-name="Path 16" d="M374.473,2480.537l-5.6,9.944s39.7,21.116,57.017,70.732-4.039,104.547-4.039,104.547l8.294,9.762s24.484-60.437,8.05-114.309S374.473,2480.537,374.473,2480.537Z" transform="translate(9 -2292)" fill="#2f3195"/>
      <path id="Exclusion_7" data-name="Exclusion 7" d="M183.352-1869.528a41.617,41.617,0,0,1-13.44-2.7,54.1,54.1,0,0,1-6.263-2.695,175.134,175.134,0,0,1-19.09-10.08c-6.728-4.015-13.463-8.476-20.018-13.259a272.478,272.478,0,0,1-23.582-19.323,255.2,255.2,0,0,1-47.606-58.6,243.58,243.58,0,0,1-18.9-40.153c-2.714-7.471-5.1-15.2-7.1-22.982-2.088-8.132-3.807-16.541-5.108-24.993a274.475,274.475,0,0,1-3.14-49.434,261.123,261.123,0,0,1,5.011-44,265.174,265.174,0,0,1,24.941-70.272,272.334,272.334,0,0,1,15.164-25.558c4.385-6.543,9.022-12.834,13.782-18.7a167.225,167.225,0,0,1,13.885-15.386,117,117,0,0,1,12.4-11.343,76.866,76.866,0,0,1,12.134-7.984A32.949,32.949,0,0,1,129.52-2311c.241-.012.488-.019.733-.019a24.7,24.7,0,0,1,8.893,1.982,56.661,56.661,0,0,1,9.9,5.253,88.175,88.175,0,0,1,9.832,7.482,90.8,90.8,0,0,1,8.7,8.672,55.764,55.764,0,0,1,7.541,10.726c1.832,3.574,2.591,6.614,2.256,9.034a13.2,13.2,0,0,1-3.352,7.48,29.94,29.94,0,0,1-6.171,4.687c-4.775,3.035-10.188,6.476-14.2,15.223-1.5,3.275-2.535,5.355-3.289,6.873-1.917,3.858-1.917,3.858-2.8,9.842-.616,4.184-1.648,11.186-4.045,24.394-2.389,13.166-6.388,21.163-10.255,28.9-8,16-15.559,31.116-9.919,88.253a137.629,137.629,0,0,0,44.435,89.336,150.218,150.218,0,0,0,26.393,19.325,100.338,100.338,0,0,0,11.709,5.868,59.036,59.036,0,0,1,8.578,3.824,44.043,44.043,0,0,1,7.011,4.653,22.667,22.667,0,0,1,5.526,6.369,19.745,19.745,0,0,1,2.227,7.728,33.121,33.121,0,0,1-.247,7.644,42.582,42.582,0,0,1-1.979,8.173l-21.115,45.428a42.292,42.292,0,0,1-5.111,6.118,35.165,35.165,0,0,1-5.741,4.678,22.06,22.06,0,0,1-7.288,3.119A21.211,21.211,0,0,1,183.352-1869.528Zm-53.273-425.365c-6.055,0-12.992,5.2-17.744,9.558a89.864,89.864,0,0,0-8.952,9.559A122.544,122.544,0,0,0,92-2263.266,222.338,222.338,0,0,0,67.6-2225.6c-15.821,30.6-33.727,81.749-29.189,151.615s40.763,116.6,70.353,143.494a256.508,256.508,0,0,0,44.044,32.083,177.912,177.912,0,0,0,19.72,9.973c.057.038,5.79,3.783,11.14,3.783a10.081,10.081,0,0,0,2.049-.2c3.051-.635,5.726-2.914,7.432-4.713a27.028,27.028,0,0,0,3-3.791l14.765-32.975a33.012,33.012,0,0,0,1.061-5.337c.323-2.793.4-6.8-1.061-10.044s-4.462-5.711-6.721-7.213a29,29,0,0,0-4.6-2.507,148.992,148.992,0,0,1-14.358-7.989c-5.031-3.117-10.038-6.525-14.882-10.128a210.961,210.961,0,0,1-17.292-14.343,176.518,176.518,0,0,1-33.64-41.709,148.011,148.011,0,0,1-12.259-27.555,143.061,143.061,0,0,1-6.494-32.148c-1.783-20.97-1.268-40.562,1.53-58.23A154.729,154.729,0,0,1,113.192-2182a101.109,101.109,0,0,1,12.451-21.23,47.615,47.615,0,0,1,5.926-6.516,22.271,22.271,0,0,0,2.07-3.788c.851-2,1.69-4.92.85-7.425-.706-2.1-2.478-3.615-5.268-4.488a14.453,14.453,0,0,0-4.317-.676,16.674,16.674,0,0,0-10.406,4.111,22.7,22.7,0,0,0-3.9,4.111c-.036.062-3.621,6.281-8.266,16.692A282.178,282.178,0,0,0,87.2-2158.107c-8.359,32.132-13.916,79.662,7.078,123.619s43.8,66.842,59.229,78.3a95.019,95.019,0,0,0,20.717,11.947,42.414,42.414,0,0,0,8.031,2.529,14.4,14.4,0,0,1,3.056,1.57,13.644,13.644,0,0,1,4.882,5.535c1.684,3.656,1.5,8.055-.556,13.075a14.124,14.124,0,0,1-5.7,7.057,13.9,13.9,0,0,1-7.23,1.836,28.351,28.351,0,0,1-11.679-2.987,135.329,135.329,0,0,1-16.094-9.67,202.631,202.631,0,0,1-16.609-12.7,213.642,213.642,0,0,1-19.2-18.475,209.064,209.064,0,0,1-36.8-55.907A215.355,215.355,0,0,1,63.4-2050.616a240.152,240.152,0,0,1-6.158-45.64,291.052,291.052,0,0,1,1.147-41.047,236.667,236.667,0,0,1,6.121-34.77,202.816,202.816,0,0,1,9.761-28.923A183.051,183.051,0,0,1,86.335-2224.5a168.772,168.772,0,0,1,25.7-32.491,172.058,172.058,0,0,1,18.9-16l0,0a29.033,29.033,0,0,0,3.474-2.782c2.873-3.468,6.555-8.58,5.368-12.915-.671-2.452-2.857-4.357-6.5-5.664A9.461,9.461,0,0,0,130.079-2294.893Z" transform="translate(47.659 2421.213)" fill="#00a24c"/>
      <path id="Path_31_-_Outline" data-name="Path 31 - Outline" d="M271.659,2566.984c-18.156,0-25.012,19.889-25.012,39.041s6.331,45.415,25.012,45.415,22.167-27.281,22.167-45.415-4.011-39.041-22.167-39.041m0-30c8.711,0,52.167,3.329,52.167,69.041,0,69.977-39.929,75.415-52.167,75.415-32.9,0-55.012-30.307-55.012-75.415C216.647,2564.729,238.754,2536.984,271.659,2536.984Z" transform="translate(42.25 -2289.977)" fill="#222625"/>
      <path id="Union_5" data-name="Union 5" d="M201.674-1563.867c-16.173,0-39.094-2.341-61.315-6.26-10.277-1.812-19.568-3.827-26.868-5.826-7.675-2.1-12.877-4.124-15.044-5.847-1.244-.989-2.242-3.074-2.966-6.2a64.9,64.9,0,0,1-1.325-11.542,244.052,244.052,0,0,1,1.27-31.688c1.13-11.877,2.878-24.524,5.055-36.571a287.392,287.392,0,0,1,7.447-32.039,93.774,93.774,0,0,1,4.185-11.379,22.269,22.269,0,0,1,4.261-6.714,20.4,20.4,0,0,1,9.076-4.794,45.184,45.184,0,0,1,11.4-1.225c4.57,0,9.508.4,14.284.794l.128.011.013,0h.014c4.836.394,9.835.8,14.63.8,6.8,0,11.971-.823,16.279-2.591,7.9-3.246,12.279-6.614,13.766-10.6,1.8-4.814-.861-10.078-3.937-16.174l-.2-.388c-1.272-2.521-3.829-5.079-7.6-7.6a71.508,71.508,0,0,0-11.29-5.95,130.4,130.4,0,0,0-14.711-5.264c-.032-.011-3.3-1.089-8.05-3.178a119.177,119.177,0,0,1-17.709-9.616,70.54,70.54,0,0,1-17.708-16.181c-5.341-7.189-8.05-14.884-8.05-22.871,0-9.347.889-17.116,2.719-23.752a46.343,46.343,0,0,1,9.833-18.724,47.975,47.975,0,0,1,8.367-7.473,64.9,64.9,0,0,1,11.087-6.209,99.992,99.992,0,0,1,14.119-4.945,163.317,163.317,0,0,1,17.467-3.677,97.079,97.079,0,0,1,15.107-1.232c19.926,0,34.043,6.83,45.226,13.511,2.309,1.379,4.488,2.75,6.6,4.077l.032.021.013.008a119.435,119.435,0,0,0,11.388,6.629,23.94,23.94,0,0,0,10.39,2.775c.216,0,.437,0,.66-.013,4.689-.191,7.337-1.206,8.094-3.1a4.671,4.671,0,0,0-.294-3.515,20.209,20.209,0,0,0-2.721-4.444,128.519,128.519,0,0,0-9.616-10.574l0,0-.037-.038c-2.335-2.4-4.747-4.879-6.879-7.264a326.133,326.133,0,0,0-25.154-24.758l-.005,0a80.329,80.329,0,0,1-14.766,10.823,83.809,83.809,0,0,1-16.736,7.445,71.2,71.2,0,0,1-21.44,3.385h-.011c-1.076,0-2.173-.027-3.256-.08-8.691-.422-15.842-.858-22.491-1.616a106.214,106.214,0,0,1-18.9-3.659,66.308,66.308,0,0,1-16.592-7.519,79.107,79.107,0,0,1-15.572-13.195A123.588,123.588,0,0,1,80.261-1936.2a77.059,77.059,0,0,1-8.491-17.077,87.384,87.384,0,0,1-4.276-19.91,163.384,163.384,0,0,1-.431-24.821c1.064-21.766,4.368-30.833,6.342-36.251,1.4-3.83,2.1-5.753.785-9s-6.939-8.8-14.059-15.837l-.014-.014c-10-9.876-22.446-22.167-29.683-34.617-6.386-10.984-10.139-21.214-11.153-30.4a41.192,41.192,0,0,1,.634-13.566,34.973,34.973,0,0,1,5.3-12.133,19.248,19.248,0,0,1,8.974-7.043,33.9,33.9,0,0,1,12.457-2.062c6.881,0,15.2,1.373,25.428,4.2,8.9,2.458,18.008,5.669,26.044,8.5l.013,0c11.367,4.009,21.182,7.469,26.573,7.487,2.819.01,5.781.157,8.916.314l.054,0h.032c3.319.166,6.752.338,10.066.338,6.7,0,14.975-.616,19.5-5.415a12.407,12.407,0,0,0,2.824-4.965,20.721,20.721,0,0,0,.7-7.2c-.945-16.087-9.531-20.014-23.756-26.523a194.806,194.806,0,0,1-19.834-10.107c-25.785-15.372-36.067-22.466-41.766-36.09a49.453,49.453,0,0,1-4.04-21.326,47.177,47.177,0,0,1,5.477-19.833,67.977,67.977,0,0,1,13.884-17.841,111.211,111.211,0,0,1,21.182-15.352c9.619-5.481,22.692-8.261,38.855-8.261a172.711,172.711,0,0,1,20.354,1.291c5.734.688,11.668,1.643,17.635,2.841,9.645,1.935,16.368,3.909,17.1,4.127l.009,0-20.408,43.691-.013,0c-.553-.157-5.606-1.581-12.555-3.15a204.127,204.127,0,0,0-26.05-4.3c-1.824-.156-3.6-.236-5.291-.236a38.514,38.514,0,0,0-11.558,1.571,19.448,19.448,0,0,0-8.238,4.845c-3.223,3.33-4.765,7.887-4.581,13.544a10.2,10.2,0,0,0,2.859,6.323,34.172,34.172,0,0,0,7.311,6.007c6.077,3.948,14.26,7.814,22.922,11.908l.007,0,.008.005.024.011c6.538,3.09,13.3,6.284,19.6,9.725a94.586,94.586,0,0,1,16.8,11.182,55.551,55.551,0,0,1,18.47,31.586,66.557,66.557,0,0,1,1.136,16.342,80.569,80.569,0,0,1-2.2,14.951,31.565,31.565,0,0,1-6.242,12.332,50.227,50.227,0,0,1-10.6,9.6c-6.647,4.606-15.072,8.682-25.757,12.464-7.326,2.592-17.986,4.018-30.018,4.018-12.271,0-23.944-1.5-31.224-4.018-4.916-1.7-11.449-6.028-18.365-10.612l-.011-.007,0,0c-5.148-3.412-10.471-6.941-15.5-9.632-5.688-3.044-10.135-4.524-13.6-4.524a8.441,8.441,0,0,0-5.437,1.75c-1.742,1.4-2.047,3.749-.908,6.986,3.254,9.249,16.9,22.667,22.613,28.007a177.625,177.625,0,0,0,13.956,11.847c4.185,3.14,7.133,4.87,8.3,4.87,1.4,0,2.7-1.138,4.664-2.862a47.339,47.339,0,0,1,15.525-9.561,78.8,78.8,0,0,1,15.635-4.055,148.013,148.013,0,0,1,23.353-1.669c1.941,0,3.933.028,5.921.082,13.668.373,25.08,1.946,34.889,4.81a68.584,68.584,0,0,1,23.913,11.956,66.392,66.392,0,0,1,15.965,18.778c4.017,6.824,7.526,14.854,11.042,25.273a105.922,105.922,0,0,1,4.963,30.2,186.694,186.694,0,0,1-1.547,29.494,225.248,225.248,0,0,1-6.173,31.277l.005.005c.532.489,13.18,12.141,26.1,26.812a222.265,222.265,0,0,1,18.941,24.326c6.022,9.179,9.618,17.063,10.689,23.432a40.48,40.48,0,0,1-.112,15.549,25.938,25.938,0,0,1-5.459,11.2c-5.753,6.8-15.281,10.549-26.828,10.549-1.495,0-3.029-.065-4.56-.193a79.671,79.671,0,0,1-18.147-3.759c-5.6-1.817-11.008-4.112-16.232-6.331l-.019-.008a163.834,163.834,0,0,0-22.042-8.107c-12.593-3.366-20.99-4.073-25.816-4.073a25.828,25.828,0,0,0-3.722.2,24.122,24.122,0,0,0-5.1-.508c-6.043,0-16.533,2.145-18.9,16.508a23.961,23.961,0,0,0,1.042,12.836,19.784,19.784,0,0,0,5.662,7.817,25.39,25.39,0,0,0,9.3,4.947c.1.039,9.905,3.97,21.749,10.053,7.006,3.6,13.371,7.244,18.919,10.835a106.689,106.689,0,0,1,16.932,13.169c7.611,7.53,11.91,13.642,13.937,19.819,1.907,5.811,1.752,11.4,1.556,18.476v.017c-.067,2.39-.135,4.862-.135,7.631a21.3,21.3,0,0,1-2.741,11.307,26.741,26.741,0,0,1-5.824,6.331c-3.629,3.151-7.057,6.126-6.792,13.1.057,1.508,1.5,2.111,3.5,2.947l.006,0a17.67,17.67,0,0,1,8.76,6.611,25.389,25.389,0,0,1,3.479,8.462,60.448,60.448,0,0,1,1.294,14.19c-.091,8.221-.612,17.743-1.506,27.535-.922,10.112-2.228,20.322-3.777,29.526a213.84,213.84,0,0,1-5.757,25.784c-2.347,7.763-4.853,13.252-7.447,16.311-1.38,1.628-4.333,2.858-8.779,3.658a93.986,93.986,0,0,1-16,1.111Zm-65.461-120.249c-1.156.588-2.336,2.009-3.508,4.226a50.041,50.041,0,0,0-3.248,8.229,174.3,174.3,0,0,0-5.241,23.729,242.619,242.619,0,0,0-2.944,29.481c-.261,9.135.446,15.017,1.992,16.563,1.191,1.192,4.827,2.5,10.805,3.891,5.312,1.237,12.367,2.5,20.4,3.653,15.7,2.255,32.9,3.77,42.8,3.77,4.746,0,7.663-.328,8.676-.978,1.184-.759,2.51-4.307,3.945-10.548,1.264-5.5,2.561-12.925,3.749-21.468,1.53-10.994,2.726-22.7,3.282-32.106.6-10.189.374-16.432-.641-17.58-1.483-1.676-12.743-4.662-28.021-7.43-7.547-1.368-15.258-2.531-22.3-3.363a174.271,174.271,0,0,0-19.647-1.408C141.364-1685.455,137.964-1685,136.213-1684.116ZM124.052-2038.87a61.345,61.345,0,0,0-7.8,19.323,96.336,96.336,0,0,0-2.32,21.623c0,9.944,1.264,28.956,9.734,44.549,8.225,15.145,20.843,22.824,37.5,22.824,16.481,0,28.736-7.873,36.425-23.4a80.958,80.958,0,0,0,6.819-21.874,128.352,128.352,0,0,0,1.838-22.1c0-11.339-1.57-27.547-9.048-40.369-7.662-13.135-19.786-19.8-36.034-19.8C144.7-2058.089,132.215-2051.622,124.052-2038.87ZM180.644-1597.9a8,8,0,0,1-6.984-8.9l4.851-40.19-33.826-3.9a8,8,0,0,1-7.03-8.864,8,8,0,0,1,8.864-7.031l33.908,3.912.232-1.923a8,8,0,0,1,8.9-6.984,8,8,0,0,1,6.984,8.9l-.221,1.84,2.2.254a8,8,0,0,1,7.03,8.864,8,8,0,0,1-7.937,7.084,8.3,8.3,0,0,1-.927-.053l-2.28-.264-4.861,40.274a8,8,0,0,1-7.933,7.042A8.031,8.031,0,0,1,180.644-1597.9Zm-32.771-14.616-9-14a8,8,0,0,1,2.4-11.056,8,8,0,0,1,11.056,2.4l9,14a8,8,0,0,1-2.4,11.056,7.967,7.967,0,0,1-4.319,1.272A7.993,7.993,0,0,1,147.873-1612.512Z" transform="translate(152.898 2313.338)" fill="#db286c"/>
    </g>
  </g>
</svg>
