<svg xmlns="http://www.w3.org/2000/svg" xmlns:xlink="http://www.w3.org/1999/xlink" width="1025" height="1025" viewBox="0 0 1025 1025">
  <defs>
    <linearGradient id="linear-gradient" x1="0.074" y1="0.055" x2="0.919" y2="0.944" gradientUnits="objectBoundingBox">
      <stop offset="0" stop-color="#00c4f5"/>
      <stop offset="1" stop-color="#88c224"/>
    </linearGradient>
    <filter id="Union_2" x="252.269" y="160.871" width="543.236" height="714.282" filterUnits="userSpaceOnUse">
      <feOffset dx="6" dy="6" input="SourceAlpha"/>
      <feGaussianBlur stdDeviation="7" result="blur"/>
      <feFlood flood-opacity="0.161"/>
      <feComposite operator="in" in2="blur"/>
      <feComposite in="SourceGraphic"/>
    </filter>
    <clipPath id="clip-Windows">
      <rect width="1025" height="1025"/>
    </clipPath>
  </defs>
  <g id="Windows" clip-path="url(#clip-Windows)">
    <rect id="Rectangle_2" data-name="Rectangle 2" width="1025" height="1025" rx="125" fill="url(#linear-gradient)"/>
    <g transform="matrix(1, 0, 0, 1, 0, 0)" filter="url(#Union_2)">
      <path id="Union_2-2" data-name="Union 2" d="M259.882,658.43c-8.123-5.551-34.719-24.123-40.282-56.913-6.058-35.708-1.774-57.174,36.416-111.5s57.36-91.035,69.414-132.216-2.278-87-2.278-87,79.555-4.129,79.555-4.1c0,.086,10.513,43.679,3.16,96.216S369,468.049,352.53,494.178s-60.857,76.951-27.1,98.341c11.943,6.85,55.321-2.643,88.677-8.684s64.225-15.295,64.225-15.295l22.9,71.29s-46.89,12.967-94.212,21.08-79.981,11.371-95.077,11.371C289.4,672.282,272.368,666.963,259.882,658.43ZM80.122,422.475s-24.17-5.632-44.2-15.826S0,381.7,0,381.7l30.538-67.064s21.153,16,39.21,23.606a285.16,285.16,0,0,0,37.631,12.371s26.015,6.738,45.627,4.314,31.95-4.245,41.154-14.015a25.219,25.219,0,0,0,5.743-10.1,42.192,42.192,0,0,0,1.423-14.657c-1.92-32.742-19.387-40.735-48.32-53.984a394.876,394.876,0,0,1-40.342-20.57C60.215,210.316,39.3,195.875,27.712,168.145a100.686,100.686,0,0,1-8.222-43.408A96.169,96.169,0,0,1,30.63,84.375,138.5,138.5,0,0,1,58.875,48.062a225.852,225.852,0,0,1,43.084-31.246C121.522,5.659,148.117,0,180.992,0a350.212,350.212,0,0,1,41.4,2.63c11.668,1.4,23.733,3.34,35.872,5.779,19.62,3.94,33.294,7.957,34.785,8.4h.016l-41.512,88.926h-.026c-1.123-.32-11.4-3.219-25.539-6.41A414.9,414.9,0,0,0,173,90.573c-3.711-.316-7.322-.481-10.762-.481a78.3,78.3,0,0,0-23.505,3.2,39.54,39.54,0,0,0-16.759,9.863c-6.556,6.777-9.691,16.05-9.318,27.565a20.806,20.806,0,0,0,5.816,12.871,69.591,69.591,0,0,0,14.869,12.224c12.361,8.035,29.006,15.9,46.629,24.235h.01l.016.011.051.026c13.3,6.29,27.051,12.788,39.867,19.793a192.237,192.237,0,0,1,34.174,22.76,113.088,113.088,0,0,1,37.569,64.288,135.76,135.76,0,0,1,2.308,33.265,163.787,163.787,0,0,1-4.476,30.427,64.145,64.145,0,0,1-12.7,25.1,102.116,102.116,0,0,1-21.56,19.539c-13.519,9.376-30.655,17.671-52.387,25.369-14.9,5.276-36.586,8.181-61.06,8.181C116.824,428.805,80.122,422.475,80.122,422.475Z" transform="translate(267.27 175.87)" fill="#db0056"/>
    </g>
    <path id="Subtraction_7" data-name="Subtraction 7" d="M451,872c-15.385,0-30.9-.757-46.113-2.25-15-1.474-30.068-3.7-44.781-6.607a456.932,456.932,0,0,1-161.266-65.6A451.4,451.4,0,0,1,132.095,744.3a442.72,442.72,0,0,1-55.072-64.528,431.635,431.635,0,0,1-41.581-74.06A421.618,421.618,0,0,1,2.328,480.578a427.934,427.934,0,0,1,0-89.158A421.615,421.615,0,0,1,35.442,266.29a431.583,431.583,0,0,1,41.581-74.062A442.749,442.749,0,0,1,132.095,127.7a451.284,451.284,0,0,1,66.746-53.24,456.958,456.958,0,0,1,161.266-65.6c14.7-2.909,29.768-5.133,44.781-6.608C420.1.757,435.616,0,451,0s30.9.757,46.112,2.249c15.011,1.476,30.077,3.7,44.78,6.608a456.94,456.94,0,0,1,161.266,65.6A451.327,451.327,0,0,1,769.9,127.7a442.673,442.673,0,0,1,55.071,64.527,431.653,431.653,0,0,1,41.582,74.062,421.589,421.589,0,0,1,33.113,125.131,427.725,427.725,0,0,1,0,89.158A421.578,421.578,0,0,1,866.558,605.71a431.78,431.78,0,0,1-41.582,74.061A442.8,442.8,0,0,1,769.9,744.3a451.408,451.408,0,0,1-66.747,53.239,456.914,456.914,0,0,1-161.266,65.6c-14.716,2.911-29.782,5.133-44.78,6.607C481.9,871.243,466.384,872,451,872Zm.645-822.1C231.069,49.9,51.617,223.383,51.617,436.623S231.069,823.347,451.645,823.347a410.4,410.4,0,0,0,131.788-21.562c9.672-3.271,19.367-6.969,28.817-10.989,1.725-.29,3.478-.588,5.212-.886,48.246-8.293,95.015-21.209,96.982-21.754A29.838,29.838,0,0,0,734.829,730.3l-5.106-15.933a396.562,396.562,0,0,0,36.1-38.62,386.459,386.459,0,0,0,46.143-71.22,373.883,373.883,0,0,0,39.707-167.908C851.673,223.383,672.221,49.9,451.645,49.9Zm-3.633,732.269h0c-11.221-.09-22.533-.687-33.621-1.775-11.918-1.171-23.88-2.936-35.555-5.246a362.76,362.76,0,0,1-128.044-52.09,358.328,358.328,0,0,1-53-42.272,351.594,351.594,0,0,1-43.727-51.234,342.77,342.77,0,0,1-33.015-58.8A334.662,334.662,0,0,1,94.759,471.4a339.725,339.725,0,0,1,0-70.791,334.656,334.656,0,0,1,26.291-99.354,342.722,342.722,0,0,1,33.015-58.8,351.421,351.421,0,0,1,43.727-51.234c1.65-1.6,3.34-3.2,5.021-4.76a128.521,128.521,0,0,0-7.094,36.264,131.585,131.585,0,0,0,2.2,28.7c-3.674,4.692-7.25,9.54-10.626,14.41a304.6,304.6,0,0,0-28.965,51.939,297.58,297.58,0,0,0,.024,237.533,304.616,304.616,0,0,0,28.994,51.959,312.7,312.7,0,0,0,38.4,45.37,319.743,319.743,0,0,0,99.972,66.085,323.847,323.847,0,0,0,59.044,18.272c7.878,1.634,15.95,2.994,23.991,4.042,9.069,15.542,22.276,29.385,39.253,41.146Zm-53.787-88.555h0A271.691,271.691,0,0,1,298.339,654.6a268.287,268.287,0,0,1-39.691-31.66A263.19,263.19,0,0,1,225.9,584.573a256.61,256.61,0,0,1-24.726-44.04,252.51,252.51,0,0,1-12.3-34.895c3.231,2.8,8.5,7.164,15.271,12.018a190.257,190.257,0,0,0,24.216,14.882c5.053,2.578,10.7,5.1,16.778,7.492,3.311,6.234,6.98,12.4,10.9,18.315a224.493,224.493,0,0,0,44.348,49.135,229.759,229.759,0,0,0,57.475,34.672,232.393,232.393,0,0,0,37.893,12.163c-2.565,12.421-3.053,24.908-1.533,39.3Zm321.125-24.1v0l-3.392-10.586A29.752,29.752,0,0,0,690.4,639.011c2.814-3.1,5.606-6.3,8.3-9.512A307.522,307.522,0,0,0,736.66,572.23a297.609,297.609,0,0,0,11.282-246.713,303.253,303.253,0,0,0-25.279-49.251,310.86,310.86,0,0,0-33.634-43.786,317.289,317.289,0,0,0-40.975-37.342,321.186,321.186,0,0,0-99.915-51.428c-8.664-2.678-17.583-5.025-26.509-6.975l3.934-8.45a29.866,29.866,0,0,0-4.177-31.78l.616.119,1.164.229A362.768,362.768,0,0,1,651.21,148.941a358.425,358.425,0,0,1,53,42.272,351.534,351.534,0,0,1,43.727,51.234,342.842,342.842,0,0,1,33.016,58.8A334.771,334.771,0,0,1,807.24,400.6a339.533,339.533,0,0,1,0,70.791,334.777,334.777,0,0,1-26.291,99.353,342.928,342.928,0,0,1-33.016,58.8,351.325,351.325,0,0,1-32.582,39.965ZM549.413,664.48v0c3.868-11.425,17.2-30.655,23.6-39.9l.01-.015.189-.273.194-.28c4.073-2.592,8.116-5.35,12.021-8.2a225.879,225.879,0,0,0,48.162-47.61,217.224,217.224,0,0,0,31.555-59.9,213.633,213.633,0,0,0-3.624-147.248A217.5,217.5,0,0,0,643.882,326.1a222.9,222.9,0,0,0-23.492-31.183,227.542,227.542,0,0,0-28.648-26.734,230.44,230.44,0,0,0-69.98-37.433,233.448,233.448,0,0,0-39.941-9.354,29.96,29.96,0,0,0,2.3-4.08L499.164,185c1.077.2,2.143.4,3.171.608a271.706,271.706,0,0,1,95.9,39.011,268.279,268.279,0,0,1,39.692,31.66,263.356,263.356,0,0,1,32.749,38.371A256.87,256.87,0,0,1,695.4,338.694a251.806,251.806,0,0,1,0,201.839,256.906,256.906,0,0,1-24.727,44.04,263.48,263.48,0,0,1-32.749,38.371,268.461,268.461,0,0,1-39.692,31.66c-1.754,1.146-3.547,2.286-5.328,3.39-16,2.974-32.334,5.818-43.49,6.485ZM181.228,463.541v0c-.75-7.92-1.131-15.969-1.131-23.922a251.086,251.086,0,0,1,21.075-100.921,256.5,256.5,0,0,1,18.963-35.427c7.364,9.834,16.65,18.841,29.225,28.345a216.505,216.505,0,0,0-17.078,36.835c-1.987,5.62-3.758,11.39-5.263,17.149a29.762,29.762,0,0,0-17.61,15.9l-28.179,62.04ZM363.58,234.774v0h0c-3.365-1.886-6.286-3.639-8.929-5.358a39.22,39.22,0,0,1-6.252-4.773,5.085,5.085,0,0,1,.311-1.344,9.82,9.82,0,0,1,4.227-2.459,48.329,48.329,0,0,1,13.726-1.993l1.325.011c2.468,0,5.241.119,7.808.336,9.48.943,19.082,2.266,28.54,3.932-5.794,1.1-11.619,2.43-17.314,3.966A232.57,232.57,0,0,0,363.58,234.774Z" transform="translate(61 77)" fill="#fff" opacity="0.6"/>
  </g>
</svg>
