<svg xmlns="http://www.w3.org/2000/svg" xmlns:xlink="http://www.w3.org/1999/xlink" width="500" height="500" viewBox="0 0 500 500">
  <defs>
    <clipPath id="clip-DS_lite_icon">
      <rect width="500" height="500"/>
    </clipPath>
  </defs>
  <g id="DS_lite_icon" data-name="DS lite icon" clip-path="url(#clip-DS_lite_icon)">
    <path id="Rectangle_12" data-name="Rectangle 12" d="M5,0H418a5,5,0,0,1,5,5V215a21,21,0,0,1-21,21H21A21,21,0,0,1,0,215V5A5,5,0,0,1,5,0Z" transform="translate(39 250)" fill="#cdcdcd"/>
    <path id="Rectangle_1" data-name="Rectangle 1" d="M21,0H402a21,21,0,0,1,21,21V231a5,5,0,0,1-5,5H5a5,5,0,0,1-5-5V21A21,21,0,0,1,21,0Z" transform="translate(39 14)" fill="#cdcdcd"/>
    <rect id="Rectangle_20" data-name="Rectangle 20" width="122" height="133" transform="translate(190 69)" fill="#fff"/>
    <path id="Exclusion_22" data-name="Exclusion 22" d="M-381,145H-570V0h189V145Zm-96.32-133.03a14.611,14.611,0,0,0-5.134.8,48.637,48.637,0,0,0-5.522.824,48.488,48.488,0,0,0-9.292,2.946,49.206,49.206,0,0,0-8.409,4.66A50.155,50.155,0,0,0-513,27.372a50.706,50.706,0,0,0-6.044,7.482,50.854,50.854,0,0,0-4.564,8.587,51.164,51.164,0,0,0-2.885,9.49A51.981,51.981,0,0,0-527.5,63.118a52,52,0,0,0,1.005,10.188,51.077,51.077,0,0,0,2.885,9.49,50.914,50.914,0,0,0,4.564,8.587A50.631,50.631,0,0,0-513,98.864a50.091,50.091,0,0,0,7.326,6.173,49.167,49.167,0,0,0,8.409,4.661,48.489,48.489,0,0,0,9.292,2.946c.721.151,1.455.287,2.183.4-.23.959-.45,2.015-.653,3.141-.353,1.956-.636,4.005-.819,5.926a39.479,39.479,0,0,0-.205,5.135,10.484,10.484,0,0,0,.214,1.869,1.82,1.82,0,0,0,.481,1,8.08,8.08,0,0,0,2.438.948c1.186.325,2.691.651,4.353.944a62.238,62.238,0,0,0,9.934,1.014,15.207,15.207,0,0,0,2.593-.18,2.479,2.479,0,0,0,1.423-.593,7.776,7.776,0,0,0,1.206-2.642,34.681,34.681,0,0,0,.933-4.178c.251-1.49.462-3.144.612-4.784.144-1.579.229-3.121.244-4.461a9.814,9.814,0,0,0-.21-2.3,4.123,4.123,0,0,0-.563-1.371,2.574,2.574,0,0,0-.747-.735,48.779,48.779,0,0,0,5.827-2.086c1.07-.462,2.139-.971,3.178-1.512a49.449,49.449,0,0,0,5.23-3.149A50.141,50.141,0,0,0-443,98.864a50.68,50.68,0,0,0,6.044-7.482A50.857,50.857,0,0,0-432.39,82.8a51.076,51.076,0,0,0,2.884-9.49A51.994,51.994,0,0,0-428.5,63.118a51.98,51.98,0,0,0-1.005-10.188c-.165-.82-.352-1.649-.558-2.465a51.233,51.233,0,0,0-2.327-7.025,50.855,50.855,0,0,0-4.564-8.587A50.652,50.652,0,0,0-443,27.372a50.151,50.151,0,0,0-7.326-6.174,49.635,49.635,0,0,0-5.231-3.149c-1.036-.539-2.1-1.047-3.177-1.511a48.628,48.628,0,0,0-8.251-2.716c-.342-.079-.692-.156-1.041-.229-.151-.031-.3-.063-.455-.093l.088-.189c-.045-.012-1.14-.342-2.773-.67-.957-.192-1.918-.347-2.858-.46A28.008,28.008,0,0,0-477.32,11.971Zm6.557,116.73a56.8,56.8,0,0,1-6.935-.61c-1.306-.188-2.45-.393-3.306-.592a4.572,4.572,0,0,1-1.75-.63,5.083,5.083,0,0,1-.323-2.684,39.5,39.5,0,0,1,.477-4.777,28.309,28.309,0,0,1,.85-3.845,8.074,8.074,0,0,1,.526-1.333,1.807,1.807,0,0,1,.493-.64c.022-.014.043-.028.064-.04l.011-.005a4.144,4.144,0,0,1,1.638-.217h.042a30.548,30.548,0,0,1,3.535.276c1.031.13,2.144.3,3.218.5a16.133,16.133,0,0,1,4.541,1.2,7.4,7.4,0,0,1,.1,2.849c-.09,1.529-.284,3.425-.532,5.2-.193,1.39-.4,2.592-.608,3.479-.232,1.012-.447,1.587-.639,1.709A3.532,3.532,0,0,1-470.762,128.7Zm-8.373-12.358h0a1.3,1.3,0,0,0-1.287,1.148,1.3,1.3,0,0,0,1.139,1.436l5.48.632-.786,6.512a1.3,1.3,0,0,0,1.131,1.443,1.326,1.326,0,0,0,.158.009,1.3,1.3,0,0,0,1.285-1.141l.788-6.526.369.043a1.425,1.425,0,0,0,.15.009,1.3,1.3,0,0,0,1.286-1.148,1.3,1.3,0,0,0-1.139-1.436l-.355-.04.036-.3a1.3,1.3,0,0,0-1.131-1.442,1.316,1.316,0,0,0-.157-.009,1.3,1.3,0,0,0-1.286,1.141l-.038.311-5.494-.634a1.31,1.31,0,0,0-.149-.009Zm0,4.538a1.291,1.291,0,0,0-.7.206,1.288,1.288,0,0,0-.566.815,1.288,1.288,0,0,0,.176.977l1.458,2.268a1.294,1.294,0,0,0,1.092.6,1.292,1.292,0,0,0,.7-.206,1.287,1.287,0,0,0,.566-.815,1.289,1.289,0,0,0-.177-.977l-1.458-2.268A1.292,1.292,0,0,0-479.136,120.881Zm-6.494-15.364h0a34.427,34.427,0,0,1-4.769-1.308,47.305,47.305,0,0,1-4.964-2.022,46.232,46.232,0,0,1-5.793-3.279,40.456,40.456,0,0,1-11.411-11.36,43.358,43.358,0,0,1-6.733-19.48,43.338,43.338,0,0,1,2.476-20.552,41.561,41.561,0,0,1,8.85-13.718,47.815,47.815,0,0,1,5.027-4.539,49.239,49.239,0,0,1,4.476-3.122,36.332,36.332,0,0,1,4.436-2.379l0,.014a12.681,12.681,0,0,0,.684,2.4,14.388,14.388,0,0,0,1.158,2.331,13.047,13.047,0,0,0,1.969,2.471,18.845,18.845,0,0,0,2.813,2.207,34.3,34.3,0,0,0,3.013,1.75c1.735.9,3.118,1.462,3.378,1.565l-11.7-3.357a14.874,14.874,0,0,0-1.321-1.3,14.209,14.209,0,0,0-1.593-1.212,9.151,9.151,0,0,0-1.6-.851,4,4,0,0,0-1.441-.321l-.119,0a5.354,5.354,0,0,0-2.121.652,12.408,12.408,0,0,0-1.966,1.293,19.187,19.187,0,0,0-2.005,1.832l-.006.006,0,0a27.677,27.677,0,0,0-2.246,2.489c-.767.945-1.518,1.964-2.233,3.03a44.08,44.08,0,0,0-2.457,4.141,42.976,42.976,0,0,0-4.041,11.386,42.318,42.318,0,0,0-.812,7.13,44.547,44.547,0,0,0,.508,8.01c.213,1.375.491,2.737.828,4.049.324,1.26.711,2.513,1.15,3.724a39.486,39.486,0,0,0,3.062,6.505,41.335,41.335,0,0,0,7.714,9.5,44.137,44.137,0,0,0,3.821,3.131c1.064.776,2.156,1.5,3.244,2.148a28.77,28.77,0,0,0,3.088,1.631l0,0,.007,0a9.065,9.065,0,0,0,1.008.433,6.746,6.746,0,0,0,2.177.437,3.411,3.411,0,0,0,.711-.07,3.587,3.587,0,0,0,1.181-.5,5.73,5.73,0,0,0,.931-.759,6.952,6.952,0,0,0,.825-.986l0,0,.106-.23,2.452,1.935a12.312,12.312,0,0,0-1.238,2.472,11.648,11.648,0,0,0-.529,2.681Zm25.613-3.392h0v-.006c-.005-.036-.035-.231-.113-.541a.1.1,0,0,1,0-.012h0l0,0a10.114,10.114,0,0,0-.5-1.488,12.029,12.029,0,0,0-1.112-2.04,12.858,12.858,0,0,0-1.941-2.249l-.035-.032-.036-.032a22.231,22.231,0,0,0-2.69-2.044c-.355-.233-.722-.465-1.093-.689-.568-.344-1.181-.7-1.822-1.042-.222-.12-.436-.234-.637-.338l-.009,0-.006,0c-1.395-.728-2.459-1.2-2.575-1.25.8.245,4.987,1.528,8.824,2.575,1.492.407,2.755.73,3.754.959a5.788,5.788,0,0,0,1.293.145,7.165,7.165,0,0,0,2.8-.611c.269-.115.542-.246.813-.392a12.182,12.182,0,0,0,1.49-.955,14.467,14.467,0,0,0,2.1-1.911l.025-.029,0,0,.011-.013a2.668,2.668,0,0,0,.88.123,4.6,4.6,0,0,0,2.762-1.008,11.749,11.749,0,0,0,3.412-4.838c.172-.4.339-.779.509-1.166l.09-.205.1-.22,0-.009.051-.114.012-.027.005-.011.005-.012.021-.047c.694-1.575,1.35-3.063,1.935-4.638a33.935,33.935,0,0,0,1.491-5.12A36.3,36.3,0,0,0-439.5,66.5c.014-.477.021-.96.021-1.434a64.311,64.311,0,0,0-.407-6.88,39.087,39.087,0,0,0-10.883-23.563l-.012-.014-.005-.006c-.226-.251-.444-.495-.634-.711a64.78,64.78,0,0,0-5.88-4.382l-.188-.119a37.135,37.135,0,0,0-5.319-2.7,8.174,8.174,0,0,0-2.679-.716c-.09-.006-.185-.009-.283-.009a3.474,3.474,0,0,0-1.109.167,2.47,2.47,0,0,0-.707.368,1.809,1.809,0,0,0-.469.514c-.008.012-.011.019-.012.021a1.41,1.41,0,0,1-.3.032c-.386,0-1.032-.158-1.032-1.217a7.084,7.084,0,0,1,.463-2.439,2.372,2.372,0,0,1,1.247-1.533.508.508,0,0,1,.142-.014,17.984,17.984,0,0,1,4.669,1.23,39.337,39.337,0,0,1,8.645,4.58c5.677,3.97,13.164,11.452,16.6,24.553a54.293,54.293,0,0,1,1.467,12,38.268,38.268,0,0,1-1.517,10.732,58.267,58.267,0,0,1-4.1,10.059,30.942,30.942,0,0,1-5.089,7.128,46.126,46.126,0,0,1-4.758,4.4c-.414.334-.837.666-1.259.986a57.02,57.02,0,0,1-5.022,3.4c-1.3.78-2.068,1.17-2.1,1.186Zm-30-3.594a3.906,3.906,0,0,1-1.8-.613,28.711,28.711,0,0,1-3.2-1.615,41.635,41.635,0,0,1-7.136-5.2,34.058,34.058,0,0,1-11.4-23.251,46.52,46.52,0,0,1,4.73-24.566,36.077,36.077,0,0,1,3.952-6.1,19.767,19.767,0,0,1,1.845-2.027,14.466,14.466,0,0,1,1.451-1.549A5.056,5.056,0,0,1-498.7,32.06a1.536,1.536,0,0,1,.518.087,1.489,1.489,0,0,1,1.053.918c.193.7-.4,1.531-.869,2.092a4.613,4.613,0,0,1-.549.44l-.014.011a27.715,27.715,0,0,0-3.062,2.592,27.375,27.375,0,0,0-4.165,5.265,29.629,29.629,0,0,0-1.955,3.809,32.861,32.861,0,0,0-1.581,4.686,38.3,38.3,0,0,0-.992,5.634,47.217,47.217,0,0,0-.186,6.65,38.862,38.862,0,0,0,1,7.4,34.9,34.9,0,0,0,2.094,6.2,33.851,33.851,0,0,0,5.963,9.059,34.625,34.625,0,0,0,3.11,2.993,32.6,32.6,0,0,0,2.691,2.057,21.885,21.885,0,0,0,2.607,1.567,4.608,4.608,0,0,0,1.893.484,2.252,2.252,0,0,0,1.171-.3,2.288,2.288,0,0,0,.924-1.144,2.615,2.615,0,0,0,.09-2.119,2.212,2.212,0,0,0-.791-.9,2.357,2.357,0,0,0-.493-.254,7.1,7.1,0,0,1-1.3-.41,15.419,15.419,0,0,1-3.357-1.936c-2.5-1.857-6.2-5.565-9.6-12.686s-2.5-14.824-1.147-20.03a45.68,45.68,0,0,1,2.452-6.984c.755-1.692,1.335-2.7,1.339-2.7a3.679,3.679,0,0,1,.631-.666,2.706,2.706,0,0,1,1.687-.667h.05a12.221,12.221,0,0,0,.517,1.66c.134.347.286.7.45,1.049a8.741,8.741,0,0,0-.9,1,16.41,16.41,0,0,0-2.018,3.44,25.051,25.051,0,0,0-1.779,6.233,39.335,39.335,0,0,0-.248,9.435,23.2,23.2,0,0,0,1.052,5.209,24.058,24.058,0,0,0,1.986,4.465,28.6,28.6,0,0,0,5.451,6.757,33.93,33.93,0,0,0,2.8,2.325c.791.588,1.6,1.14,2.411,1.641a23.8,23.8,0,0,0,2.327,1.294,4.811,4.811,0,0,1,.745.407,3.006,3.006,0,0,1,1.089,1.168,2.226,2.226,0,0,1,.154.509,8.058,8.058,0,0,0-.033.916c0,.141.011.281.022.416a5.227,5.227,0,0,1-.142.651l-2.392,5.343a4.514,4.514,0,0,1-.487.614,2.5,2.5,0,0,1-1.2.764A1.632,1.632,0,0,1-490.018,98.531Zm38.952-11.14-.051,0a.671.671,0,0,1-.409-.148,1.32,1.32,0,0,1-.428-.863c-.007-.049-.012-.1-.014-.161,0-.032,0-.065,0-.1a2.67,2.67,0,0,1,.2-.983,3.213,3.213,0,0,1,.7-1.051,8.678,8.678,0,0,0,.937-1.289c.277-.437.56-.922.841-1.443a34.391,34.391,0,0,0,2.579-6.255,37.714,37.714,0,0,0,1.589-9.2c.027-.561.04-1.139.041-1.72,0-1.263-.058-2.543-.18-3.806a40.561,40.561,0,0,0-1.057-6.047,33.3,33.3,0,0,0-1.815-5.272c-.32-.724-.671-1.444-1.044-2.14-.423-.793-.885-1.576-1.371-2.326a33.722,33.722,0,0,0-5.771-6.729,38.479,38.479,0,0,0-9.3-6.133l-.01-.005-.009,0a6.234,6.234,0,0,1-.557-.283,1.454,1.454,0,0,1-.662-1.071c0-.03,0-.061,0-.1a1.1,1.1,0,0,1,.337-.81,1.89,1.89,0,0,1,1.339-.514,2.847,2.847,0,0,1,.726.1,20.262,20.262,0,0,1,3.01,1.438,39.143,39.143,0,0,1,6.125,4.259,37.054,37.054,0,0,1,6.763,7.5A34.328,34.328,0,0,1-443.635,53.4a42.092,42.092,0,0,1,1.184,9.931,44.808,44.808,0,0,1-5.831,21.915l-.06.1-.027.047,0,.005-.01.017-.014.022-.009.016-.017.03-.02.035a4.475,4.475,0,0,1-1.183,1.253A2.722,2.722,0,0,1-451.066,87.391Zm-36.949-3.1h0c-.1-.052-.194-.107-.3-.169a24.416,24.416,0,0,1-4.277-3.131,22.305,22.305,0,0,1-7.2-14.476c-.913-9.249.327-11.734,1.525-14.136l3.545,3.609a41.843,41.843,0,0,0-.726,5.31,35.266,35.266,0,0,0-.039,4.995,20.09,20.09,0,0,0,.949,5.094,16.264,16.264,0,0,0,2.255,4.263,21.771,21.771,0,0,0,2.833,3.169A22.523,22.523,0,0,0-486,81.476l-2.015,2.818Zm36.3-5.112-4.626-5.459c.161-.4,3.909-9.96,1.3-18.511A23.43,23.43,0,0,0-461.2,45.4a23.469,23.469,0,0,0-4.163-3.263l-.01.017a10.509,10.509,0,0,0,.436-1.063c.041-.119.082-.247.125-.391a23.935,23.935,0,0,1,4.541,3.636,27.6,27.6,0,0,1,3.6,4.429,25.648,25.648,0,0,1,2.971,6.256,25.422,25.422,0,0,1,1.12,7.314,34.943,34.943,0,0,1-.556,6.552,36.106,36.106,0,0,1-1.759,6.528L-453.554,77a31.815,31.815,0,0,0,2.057-6.681,32.218,32.218,0,0,0-.491-15.294,27.48,27.48,0,0,0-12.434-16.073c.078-.486.14-1,.184-1.538.059-.747.068-1.35.068-1.643,0-.074,0-.129,0-.164,0-.015,0-.027,0-.033A19.64,19.64,0,0,1-462.2,36.7c.7.451,1.4.946,2.078,1.471a30.789,30.789,0,0,1,2.388,2.056l.074.07a29.6,29.6,0,0,1,5.042,6.372,28.836,28.836,0,0,1,3.452,9.3c.007.043.015.086.023.128V56.1l0,.025a46.193,46.193,0,0,1,.761,8.205c0,.533-.011,1.085-.033,1.642a35.852,35.852,0,0,1-1.011,7.232l-.03.118a26.961,26.961,0,0,1-1.485,4.338,13.68,13.68,0,0,1-.779,1.518Zm-24.9-5.567a7.913,7.913,0,0,1-1.334-.11,6.54,6.54,0,0,1-4.742-3.588A13.555,13.555,0,0,1-484.12,65.1a19.745,19.745,0,0,1-.147-2.4v-.121c0-.035,0-.07,0-.105a.086.086,0,0,0,0-.015c0-.015,0-.03,0-.046s0-.032,0-.048a.185.185,0,0,0,0-.022c0-.015,0-.03,0-.046v-.007c0-.013,0-.027,0-.041s0-.01,0-.015,0-.01,0-.015c0-.027,0-.05,0-.074s0-.032,0-.049v-.018l0-.045c0-.018,0-.036,0-.053v-.065c0-.006,0-.013,0-.019s0-.017,0-.024,0-.023,0-.035v-.08c0-.013,0-.026,0-.038s0-.026,0-.039,0-.02,0-.03l0-.046,0-.043a.063.063,0,0,0,0-.014,14.666,14.666,0,0,1,.339-2.35,10.008,10.008,0,0,1,1.211-3.047l0,0,.015-.025.007-.012.028-.043c.049-.077.1-.154.158-.238a6.7,6.7,0,0,1,5.854-2.876,6.306,6.306,0,0,1,5.838,3.208,13.422,13.422,0,0,1,1.466,6.54v.1c0,.007,0,.014,0,.021s0,.014,0,.021v.03a18.036,18.036,0,0,1-1.081,6.235l0,.007-.005.012c0,.01-.008.021-.013.031l-.006.014-.006.016-.005.014c-.073.174-.142.33-.212.479l0,.005-.009.02-.009.02-.008.015-.008.018-.008.017-.011.023-.013.026A6.222,6.222,0,0,1-476.613,73.616Zm18.927-1.477h0l-1.347-1.59c0-.01.119-.362.258-.943.165-.681.3-1.413.409-2.174a.019.019,0,0,1,0-.006l.005-.041v-.009l0-.012,0-.012,0-.011c0-.014,0-.026,0-.038v-.01c.033-.249.064-.507.091-.765.093-.9.141-1.833.144-2.764,0-.56-.015-1.124-.047-1.676a28.448,28.448,0,0,0-.874-5.537,18.066,18.066,0,0,0-2.2-5.092,18.51,18.51,0,0,0-2.83-3.464,18.22,18.22,0,0,0-2.441-1.976c-.171-.114-.346-.226-.519-.332-.3-.18-.483-.276-.518-.293a.317.317,0,0,1,.03-.035c.051-.057.172-.19.332-.383.214-.258.424-.531.624-.811.1-.147.21-.3.311-.456l-.025.045.006,0a18.7,18.7,0,0,1,3.561,2.714,22.264,22.264,0,0,1,5.671,8.745c2.746,7.871-.51,16.559-.65,16.925Z" transform="translate(728 60)"/>
    <rect id="Rectangle_6" data-name="Rectangle 6" width="189" height="145" transform="translate(158 296)"/>
    <path id="Union_1" data-name="Union 1" d="M28.236,80V51.765H0V28.236H28.236V0H51.765V28.236H80V51.765H51.765V80Z" transform="translate(61 313)"/>
    <circle id="Ellipse_1" data-name="Ellipse 1" cx="15" cy="15" r="15" transform="translate(389 363)"/>
    <circle id="Ellipse_2" data-name="Ellipse 2" cx="15" cy="15" r="15" transform="translate(389 313)"/>
    <circle id="Ellipse_3" data-name="Ellipse 3" cx="15" cy="15" r="15" transform="translate(364 338)"/>
    <circle id="Ellipse_4" data-name="Ellipse 4" cx="15" cy="15" r="15" transform="translate(414 338)"/>
  </g>
</svg>
