<svg xmlns="http://www.w3.org/2000/svg" xmlns:xlink="http://www.w3.org/1999/xlink" width="500" height="500" viewBox="0 0 500 500">
  <defs>
    <clipPath id="clip-Error_platform">
      <rect width="500" height="500"/>
    </clipPath>
  </defs>
  <g id="Error_platform" data-name="Error platform" clip-path="url(#clip-Error_platform)">
    <path id="Path_31" data-name="Path 31" d="M108.859,58.02q-9.362,0-14.536-6.159T89.149,35.354A104.549,104.549,0,0,1,97.772-7.021Q106.4-26.73,127.09-49.888q15.767-17.246,21.926-29.564a57.621,57.621,0,0,0,6.159-26.115q0-16.26-11.826-25.622t-33.506-9.362a115.821,115.821,0,0,0-35.723,5.174,168.847,168.847,0,0,0-32.274,14.535q-13.3,7.884-23.4,5.174A21.724,21.724,0,0,1,3.907-127.247q-4.435-8.869-1.478-19.709T18.2-166.172A160.632,160.632,0,0,1,64.513-186.62q26.115-7.145,49.273-7.145,31.042,0,54.447,10.347t36.462,28.578q13.057,18.231,13.057,42.867a91.579,91.579,0,0,1-10.1,42.375q-10.1,19.709-35.723,42.867Q148.77-5.542,139.9,9.732a89.378,89.378,0,0,0-11.333,32.52A15.839,15.839,0,0,1,122.9,53.585Q117.728,58.02,108.859,58.02ZM107.873,161q-16.753,0-26.854-10.347t-10.1-26.607q0-15.767,10.1-25.868t26.854-10.1q17.246,0,26.854,10.1t9.608,25.868q0,16.26-9.608,26.607T107.873,161Z" transform="translate(140.501 266.383)" fill="#cdcdcd"/>
  </g>
</svg>
