<svg xmlns="http://www.w3.org/2000/svg" xmlns:xlink="http://www.w3.org/1999/xlink" width="500" height="500" viewBox="0 0 500 500">
  <defs>
    <clipPath id="clip-_3DS_icon">
      <rect width="500" height="500"/>
    </clipPath>
  </defs>
  <g id="_3DS_icon" data-name="3DS icon" clip-path="url(#clip-_3DS_icon)">
    <path id="Rectangle_12" data-name="Rectangle 12" d="M5,0H418a5,5,0,0,1,5,5V215a21,21,0,0,1-21,21H21A21,21,0,0,1,0,215V5A5,5,0,0,1,5,0Z" transform="translate(39 250)" fill="#cdcdcd"/>
    <rect id="Rectangle_15" data-name="Rectangle 15" width="189" height="44" rx="8" transform="translate(158 424)" fill="#bebebe"/>
    <path id="Rectangle_1" data-name="Rectangle 1" d="M21,0H402a21,21,0,0,1,21,21V231a5,5,0,0,1-5,5H5a5,5,0,0,1-5-5V21A21,21,0,0,1,21,0Z" transform="translate(39 14)" fill="#cdcdcd"/>
    <rect id="Rectangle_20" data-name="Rectangle 20" width="122" height="133" transform="translate(190 69)" fill="#fff"/>
    <path id="Exclusion_20" data-name="Exclusion 20" d="M-343-396H-570V-541h227v145Zm-115.32-133.03a14.607,14.607,0,0,0-5.134.8,48.638,48.638,0,0,0-5.522.824,48.5,48.5,0,0,0-9.292,2.946,49.206,49.206,0,0,0-8.409,4.66A50.149,50.149,0,0,0-494-513.628a50.708,50.708,0,0,0-6.044,7.482,50.856,50.856,0,0,0-4.564,8.587,51.161,51.161,0,0,0-2.885,9.49,51.982,51.982,0,0,0-1.005,10.188,52,52,0,0,0,1.005,10.188,51.076,51.076,0,0,0,2.885,9.49,50.917,50.917,0,0,0,4.564,8.587A50.629,50.629,0,0,0-494-442.136a50.084,50.084,0,0,0,7.326,6.173,49.161,49.161,0,0,0,8.409,4.661,48.492,48.492,0,0,0,9.292,2.946c.7.147,1.437.283,2.183.4-.23.958-.45,2.014-.653,3.141-.353,1.956-.636,4.005-.819,5.926a39.474,39.474,0,0,0-.205,5.135,10.478,10.478,0,0,0,.214,1.869,1.82,1.82,0,0,0,.481,1,8.079,8.079,0,0,0,2.438.948c1.186.325,2.692.651,4.353.944a62.234,62.234,0,0,0,9.934,1.014,15.2,15.2,0,0,0,2.593-.18,2.479,2.479,0,0,0,1.423-.593,7.776,7.776,0,0,0,1.206-2.642,34.682,34.682,0,0,0,.933-4.178c.251-1.49.462-3.144.612-4.784.144-1.579.229-3.122.244-4.461a9.817,9.817,0,0,0-.21-2.3,4.123,4.123,0,0,0-.563-1.371,2.574,2.574,0,0,0-.747-.735,48.77,48.77,0,0,0,5.827-2.086c1.07-.462,2.139-.971,3.178-1.512a49.449,49.449,0,0,0,5.23-3.149A50.14,50.14,0,0,0-424-442.136a50.682,50.682,0,0,0,6.044-7.482,50.858,50.858,0,0,0,4.564-8.587,51.083,51.083,0,0,0,2.884-9.49,52,52,0,0,0,1.005-10.188,51.982,51.982,0,0,0-1.005-10.188c-.164-.816-.351-1.646-.558-2.465a51.237,51.237,0,0,0-2.326-7.024,50.856,50.856,0,0,0-4.564-8.587A50.652,50.652,0,0,0-424-513.628a50.144,50.144,0,0,0-7.326-6.174,49.64,49.64,0,0,0-5.231-3.149c-1.04-.541-2.109-1.049-3.177-1.511a48.628,48.628,0,0,0-8.251-2.716c-.342-.079-.692-.156-1.041-.23-.151-.031-.3-.063-.455-.093l.088-.189c-.045-.012-1.136-.342-2.773-.67-.956-.192-1.917-.347-2.857-.46A28.013,28.013,0,0,0-458.32-529.029Zm6.557,116.73a56.8,56.8,0,0,1-6.935-.61c-1.307-.188-2.45-.393-3.306-.592a4.573,4.573,0,0,1-1.75-.63,5.083,5.083,0,0,1-.323-2.684,39.506,39.506,0,0,1,.477-4.777,28.31,28.31,0,0,1,.85-3.845,8.075,8.075,0,0,1,.526-1.333,1.807,1.807,0,0,1,.493-.64c.022-.014.043-.028.064-.04l.011-.005a4.145,4.145,0,0,1,1.638-.217h.042a30.533,30.533,0,0,1,3.535.276c1.034.13,2.147.3,3.218.5a16.133,16.133,0,0,1,4.54,1.2,7.4,7.4,0,0,1,.1,2.848c-.09,1.529-.284,3.425-.532,5.2-.193,1.389-.4,2.592-.607,3.479-.232,1.012-.447,1.587-.639,1.709A3.532,3.532,0,0,1-451.762-412.3Zm-8.373-12.357a1.3,1.3,0,0,0-1.287,1.148,1.3,1.3,0,0,0,1.139,1.436l5.48.632-.786,6.512a1.3,1.3,0,0,0,1.131,1.443,1.315,1.315,0,0,0,.158.009,1.3,1.3,0,0,0,1.285-1.141l.787-6.526.369.043a1.419,1.419,0,0,0,.15.009,1.3,1.3,0,0,0,1.286-1.148,1.3,1.3,0,0,0-1.139-1.436l-.355-.04.036-.3a1.3,1.3,0,0,0-1.131-1.442,1.316,1.316,0,0,0-.157-.009,1.3,1.3,0,0,0-1.286,1.141l-.038.311-5.494-.634A1.322,1.322,0,0,0-460.135-424.656Zm0,4.537a1.291,1.291,0,0,0-.7.206,1.288,1.288,0,0,0-.566.815,1.288,1.288,0,0,0,.176.977l1.458,2.268a1.294,1.294,0,0,0,1.092.6,1.292,1.292,0,0,0,.7-.206,1.287,1.287,0,0,0,.566-.815,1.288,1.288,0,0,0-.177-.977l-1.458-2.268A1.292,1.292,0,0,0-460.136-420.119Zm-6.494-15.364h0a34.732,34.732,0,0,1-4.769-1.308,47.32,47.32,0,0,1-4.964-2.022,46.23,46.23,0,0,1-5.793-3.279,40.456,40.456,0,0,1-11.411-11.36,43.359,43.359,0,0,1-6.733-19.48,43.34,43.34,0,0,1,2.476-20.552,41.562,41.562,0,0,1,8.85-13.718,47.826,47.826,0,0,1,5.027-4.539,49.235,49.235,0,0,1,4.476-3.122,36.254,36.254,0,0,1,4.436-2.379l0,.012a12.617,12.617,0,0,0,.684,2.4,14.387,14.387,0,0,0,1.158,2.331,13.048,13.048,0,0,0,1.969,2.471,18.842,18.842,0,0,0,2.813,2.207,34.274,34.274,0,0,0,3.013,1.75c1.736.9,3.118,1.462,3.378,1.565l-11.7-3.357a14.882,14.882,0,0,0-1.321-1.3,14.219,14.219,0,0,0-1.593-1.212,9.153,9.153,0,0,0-1.6-.851,4,4,0,0,0-1.441-.321l-.119,0a5.353,5.353,0,0,0-2.121.652,12.413,12.413,0,0,0-1.966,1.293,19.213,19.213,0,0,0-2,1.832l-.006.006,0,0a27.652,27.652,0,0,0-2.246,2.489c-.767.946-1.519,1.965-2.233,3.03a44.092,44.092,0,0,0-2.457,4.141,42.973,42.973,0,0,0-4.041,11.386,42.323,42.323,0,0,0-.812,7.13,44.554,44.554,0,0,0,.508,8.01c.212,1.374.491,2.737.828,4.049.324,1.26.711,2.513,1.15,3.724a39.491,39.491,0,0,0,3.062,6.505,41.336,41.336,0,0,0,7.714,9.495,44.125,44.125,0,0,0,3.82,3.131c1.064.776,2.155,1.5,3.244,2.148a28.8,28.8,0,0,0,3.088,1.631l0,0,.007,0a9.148,9.148,0,0,0,1.009.433,6.745,6.745,0,0,0,2.177.437,3.413,3.413,0,0,0,.711-.07,3.587,3.587,0,0,0,1.181-.5,5.729,5.729,0,0,0,.931-.759,6.974,6.974,0,0,0,.825-.986l0-.005.106-.23,2.452,1.935a12.342,12.342,0,0,0-1.238,2.472,11.629,11.629,0,0,0-.529,2.681Zm25.614-3.392h0v-.007c-.005-.036-.034-.23-.112-.542l0-.007,0-.007a10.26,10.26,0,0,0-.506-1.49,12.033,12.033,0,0,0-1.112-2.04,12.854,12.854,0,0,0-1.941-2.249l-.035-.031-.006-.006-.029-.027a22.234,22.234,0,0,0-2.69-2.044c-.345-.227-.712-.459-1.093-.689-.576-.349-1.188-.7-1.822-1.042-.208-.113-.422-.227-.637-.339l-.012-.006-.007,0c-1.4-.73-2.455-1.2-2.571-1.248.491.149,4.9,1.5,8.824,2.575,1.488.406,2.751.729,3.754.959a5.787,5.787,0,0,0,1.293.145,7.165,7.165,0,0,0,2.8-.611c.273-.116.546-.248.813-.392a12.107,12.107,0,0,0,1.49-.955,14.452,14.452,0,0,0,2.1-1.911l.025-.029.016-.018a2.659,2.659,0,0,0,.88.123,4.6,4.6,0,0,0,2.762-1.008,11.749,11.749,0,0,0,3.412-4.837c.17-.4.332-.762.509-1.166l.092-.21.095-.215,0-.009.051-.114.012-.027.005-.011.005-.012.02-.046c.695-1.577,1.35-3.064,1.936-4.639a33.935,33.935,0,0,0,1.491-5.12,36.3,36.3,0,0,0,.707-6.322c.014-.48.021-.962.021-1.434a64.329,64.329,0,0,0-.407-6.88,39.087,39.087,0,0,0-10.883-23.563l-.012-.014-.005-.006c-.247-.276-.451-.5-.634-.711a64.782,64.782,0,0,0-5.88-4.382l-.188-.119a37.139,37.139,0,0,0-5.319-2.7,8.176,8.176,0,0,0-2.679-.716c-.09-.006-.185-.009-.283-.009a3.475,3.475,0,0,0-1.109.167,2.47,2.47,0,0,0-.706.368,1.814,1.814,0,0,0-.469.514l-.013.022a1.45,1.45,0,0,1-.3.031c-.386,0-1.032-.158-1.032-1.217a7.083,7.083,0,0,1,.463-2.439,2.372,2.372,0,0,1,1.247-1.533.509.509,0,0,1,.142-.014,17.98,17.98,0,0,1,4.669,1.23,39.331,39.331,0,0,1,8.645,4.58c5.677,3.97,13.164,11.452,16.6,24.553a54.354,54.354,0,0,1,1.468,12,38.28,38.28,0,0,1-1.517,10.732,58.277,58.277,0,0,1-4.1,10.059,30.946,30.946,0,0,1-5.089,7.128,46.02,46.02,0,0,1-4.758,4.4c-.4.322-.821.653-1.259.986a57.027,57.027,0,0,1-5.022,3.4c-1.181.71-1.952,1.111-2.095,1.184l-.006,0Zm-30-3.594a3.973,3.973,0,0,1-1.8-.613,28.959,28.959,0,0,1-3.2-1.616,41.63,41.63,0,0,1-7.136-5.2,34.058,34.058,0,0,1-11.4-23.251,46.519,46.519,0,0,1,4.729-24.566,36.088,36.088,0,0,1,3.952-6.1,19.905,19.905,0,0,1,1.845-2.027,14.826,14.826,0,0,1,1.451-1.549,5.057,5.057,0,0,1,2.876-1.549,1.536,1.536,0,0,1,.518.087,1.489,1.489,0,0,1,1.053.918c.193.7-.4,1.531-.869,2.092a4.6,4.6,0,0,1-.548.439l-.016.012a27.712,27.712,0,0,0-3.062,2.592,27.375,27.375,0,0,0-4.165,5.265,29.615,29.615,0,0,0-1.955,3.809,32.86,32.86,0,0,0-1.581,4.686,38.307,38.307,0,0,0-.992,5.634,47.222,47.222,0,0,0-.186,6.65,38.865,38.865,0,0,0,1,7.4,34.9,34.9,0,0,0,2.094,6.2,33.851,33.851,0,0,0,5.963,9.059,34.628,34.628,0,0,0,3.11,2.993,32.6,32.6,0,0,0,2.691,2.056,21.792,21.792,0,0,0,2.607,1.567,4.61,4.61,0,0,0,1.893.484,2.252,2.252,0,0,0,1.171-.3,2.289,2.289,0,0,0,.924-1.144,2.615,2.615,0,0,0,.09-2.119,2.212,2.212,0,0,0-.791-.9,2.349,2.349,0,0,0-.493-.254,7.137,7.137,0,0,1-1.3-.41,15.417,15.417,0,0,1-3.357-1.936c-2.5-1.857-6.2-5.566-9.6-12.686s-2.5-14.824-1.147-20.03a45.673,45.673,0,0,1,2.453-6.984c.754-1.69,1.335-2.7,1.339-2.7a3.651,3.651,0,0,1,.631-.666,2.706,2.706,0,0,1,1.687-.667h.05a12.22,12.22,0,0,0,.517,1.66c.133.345.285.7.451,1.048a8.566,8.566,0,0,0-.9,1,16.409,16.409,0,0,0-2.018,3.44,25.05,25.05,0,0,0-1.779,6.233,39.336,39.336,0,0,0-.248,9.435,23.2,23.2,0,0,0,1.052,5.209,24.059,24.059,0,0,0,1.986,4.465,28.6,28.6,0,0,0,5.451,6.757,33.91,33.91,0,0,0,2.8,2.325c.791.588,1.6,1.14,2.411,1.641a23.888,23.888,0,0,0,2.326,1.294,4.83,4.83,0,0,1,.745.407,3.005,3.005,0,0,1,1.089,1.168,2.184,2.184,0,0,1,.154.509,8.289,8.289,0,0,0-.033.916c0,.141.011.281.022.416a5.275,5.275,0,0,1-.141.648l-2.393,5.346a4.478,4.478,0,0,1-.487.614,2.5,2.5,0,0,1-1.2.764A1.632,1.632,0,0,1-471.018-442.469Zm38.952-11.14-.05,0a.682.682,0,0,1-.411-.149,1.306,1.306,0,0,1-.428-.863c-.007-.049-.012-.1-.014-.161,0-.032,0-.065,0-.1a2.668,2.668,0,0,1,.2-.983,3.212,3.212,0,0,1,.7-1.051,8.68,8.68,0,0,0,.937-1.289c.277-.436.56-.922.841-1.443a34.393,34.393,0,0,0,2.579-6.255,37.714,37.714,0,0,0,1.589-9.2c.027-.562.04-1.141.041-1.72,0-1.263-.058-2.543-.18-3.806a40.56,40.56,0,0,0-1.057-6.047,33.291,33.291,0,0,0-1.815-5.272c-.32-.725-.672-1.445-1.044-2.14-.423-.793-.884-1.575-1.371-2.327a33.723,33.723,0,0,0-5.771-6.729,38.479,38.479,0,0,0-9.3-6.133l-.01-.005-.009,0a6.215,6.215,0,0,1-.557-.283,1.454,1.454,0,0,1-.662-1.071c0-.03,0-.062,0-.1a1.1,1.1,0,0,1,.337-.81,1.89,1.89,0,0,1,1.339-.514,2.848,2.848,0,0,1,.726.1,20.261,20.261,0,0,1,3.01,1.438,39.148,39.148,0,0,1,6.124,4.259,37.051,37.051,0,0,1,6.764,7.5,34.329,34.329,0,0,1,4.929,11.168,42.089,42.089,0,0,1,1.184,9.931,44.808,44.808,0,0,1-5.831,21.915l-.087.149,0,.005-.01.017-.011.018-.012.02-.02.034,0,.006-.015.025a4.474,4.474,0,0,1-1.183,1.253A2.722,2.722,0,0,1-432.066-453.609Zm-36.949-3.1h0c-.092-.05-.191-.106-.3-.169a24.419,24.419,0,0,1-4.277-3.131,22.305,22.305,0,0,1-7.2-14.476c-.913-9.249.327-11.734,1.526-14.136l3.545,3.609a41.606,41.606,0,0,0-.726,5.31,35.27,35.27,0,0,0-.039,4.995,20.091,20.091,0,0,0,.949,5.094,16.266,16.266,0,0,0,2.254,4.263,21.772,21.772,0,0,0,2.833,3.169A22.6,22.6,0,0,0-467-459.524l-2.015,2.818Zm36.3-5.112-4.626-5.459c.161-.4,3.908-9.961,1.3-18.511A23.429,23.429,0,0,0-442.2-495.6a23.35,23.35,0,0,0-4.163-3.263l-.01.017a10.365,10.365,0,0,0,.436-1.063c.041-.12.082-.248.125-.391a23.935,23.935,0,0,1,4.541,3.635,27.6,27.6,0,0,1,3.6,4.429,25.649,25.649,0,0,1,2.971,6.256,25.422,25.422,0,0,1,1.12,7.314,34.939,34.939,0,0,1-.556,6.551,36.139,36.139,0,0,1-1.759,6.528l1.344,1.582a31.848,31.848,0,0,0,2.057-6.681,32.218,32.218,0,0,0-.492-15.294,27.479,27.479,0,0,0-12.434-16.073c.08-.5.142-1.016.184-1.538.06-.748.068-1.35.068-1.642,0-.105,0-.175,0-.2A19.415,19.415,0,0,1-443.2-504.3c.7.451,1.4.946,2.078,1.472a30.955,30.955,0,0,1,2.389,2.056l.036.035.036.035a29.606,29.606,0,0,1,5.042,6.372,28.811,28.811,0,0,1,3.452,9.3l.015.081.014.077a46.187,46.187,0,0,1,.761,8.205c0,.556-.011,1.109-.033,1.642a35.851,35.851,0,0,1-1.011,7.232l0,.016-.026.1a26.967,26.967,0,0,1-1.485,4.338,13.625,13.625,0,0,1-.779,1.518Zm-24.9-5.567a7.837,7.837,0,0,1-1.334-.111,6.537,6.537,0,0,1-4.742-3.587,13.557,13.557,0,0,1-1.431-4.814,19.757,19.757,0,0,1-.147-2.4v-.121c0-.018,0-.036,0-.053v-.006c0-.015,0-.031,0-.046v-.015c0-.015,0-.03,0-.046s0-.032,0-.048a.191.191,0,0,0,0-.022c0-.016,0-.032,0-.048s0-.031,0-.046,0-.02,0-.03c0-.026,0-.049,0-.074s0-.033,0-.049l0-.044v-.019c0-.017,0-.035,0-.052l0-.046v-.019c0-.007,0-.014,0-.021s0-.015,0-.022,0-.02,0-.029v-.006c0-.011,0-.022,0-.033v-.047c0-.011,0-.021,0-.032v-.006c0-.013,0-.026,0-.04s0-.02,0-.03l.005-.089a.067.067,0,0,0,0-.013,14.769,14.769,0,0,1,.339-2.35,10.009,10.009,0,0,1,1.211-3.047l0,0,.012-.018.012-.018.013-.022.014-.022c.048-.077.1-.154.158-.238a6.7,6.7,0,0,1,5.855-2.876,6.306,6.306,0,0,1,5.838,3.208,13.422,13.422,0,0,1,1.466,6.54v.1c0,.014,0,.028,0,.042v.029a18.039,18.039,0,0,1-1.081,6.236l-.008.019c0,.01-.008.021-.013.031l-.006.015-.006.015,0,.007,0,.007c-.072.173-.142.33-.212.479l0,.005-.013.027-.006.013-.008.015-.008.017-.008.017-.024.049A6.222,6.222,0,0,1-457.613-467.384Zm18.928-1.477h0l-1.348-1.59s.111-.325.258-.943c.165-.683.3-1.414.409-2.174v-.006l0-.021,0-.021v-.021a.173.173,0,0,0,0-.019l0-.022,0-.019a.045.045,0,0,1,0-.005c.034-.258.065-.517.091-.77a27.65,27.65,0,0,0,.144-2.764c0-.561-.015-1.125-.047-1.676a28.445,28.445,0,0,0-.874-5.537,18.066,18.066,0,0,0-2.2-5.092,18.51,18.51,0,0,0-2.83-3.464,18.215,18.215,0,0,0-2.441-1.976c-.17-.114-.345-.226-.519-.332-.3-.181-.484-.276-.518-.293a.321.321,0,0,1,.03-.035c.056-.062.172-.19.332-.382.215-.259.425-.532.624-.811.1-.137.2-.29.311-.456l-.025.045.006,0a18.71,18.71,0,0,1,3.561,2.714,22.264,22.264,0,0,1,5.671,8.745c2.737,7.843-.51,16.558-.649,16.925Z" transform="translate(709 601)"/>
    <rect id="Rectangle_6" data-name="Rectangle 6" width="189" height="145" transform="translate(158 293)"/>
    <path id="Union_1" data-name="Union 1" d="M22.588,64V41.412H0V22.588H22.588V0H41.412V22.588H64V41.412H41.412V64Z" transform="translate(70 379)"/>
    <circle id="Ellipse_1" data-name="Ellipse 1" cx="13.5" cy="13.5" r="13.5" transform="translate(386 352)"/>
    <ellipse id="Ellipse_2" data-name="Ellipse 2" cx="13.5" cy="13" rx="13.5" ry="13" transform="translate(386 308)"/>
    <circle id="Ellipse_3" data-name="Ellipse 3" cx="13.5" cy="13.5" r="13.5" transform="translate(364 330)"/>
    <ellipse id="Ellipse_4" data-name="Ellipse 4" cx="13" cy="13.5" rx="13" ry="13.5" transform="translate(409 330)"/>
    <rect id="Rectangle_13" data-name="Rectangle 13" width="423" height="29" rx="8" transform="translate(39 237)" fill="#bebebe"/>
    <circle id="Ellipse_5" data-name="Ellipse 5" cx="8" cy="8" r="8" transform="translate(244 30)"/>
    <ellipse id="Ellipse_8" data-name="Ellipse 8" cx="30.5" cy="31" rx="30.5" ry="31" transform="translate(72 300)"/>
    <rect id="Rectangle_14" data-name="Rectangle 14" width="20" height="20" rx="7" transform="translate(364 443)"/>
  </g>
</svg>
