<svg xmlns="http://www.w3.org/2000/svg" xmlns:xlink="http://www.w3.org/1999/xlink" width="500" height="500" viewBox="0 0 500 500">
  <defs>
    <clipPath id="clip-DS_Icon">
      <rect width="500" height="500"/>
    </clipPath>
  </defs>
  <g id="DS_Icon" data-name="DS Icon" clip-path="url(#clip-DS_Icon)">
    <path id="Rectangle_1" data-name="Rectangle 1" d="M21,0H402a21,21,0,0,1,21,21V231a5,5,0,0,1-5,5H5a5,5,0,0,1-5-5V21A21,21,0,0,1,21,0Z" transform="translate(37 20)" fill="#cdcdcd"/>
    <rect id="Rectangle_3" data-name="Rectangle 3" width="455" height="248" rx="25" transform="translate(23 232)" fill="#cdcdcd"/>
    <rect id="Rectangle_4" data-name="Rectangle 4" width="213" height="178" transform="translate(144 47)" fill="#bebebe"/>
    <rect id="Rectangle_20" data-name="Rectangle 20" width="122" height="133" transform="translate(190 69)" fill="#fff"/>
    <path id="Exclusion_23" data-name="Exclusion 23" d="M189,145H0V0H189V145ZM94.68,12.471a14.629,14.629,0,0,0-5.133.8,48.371,48.371,0,0,0-14.815,3.771,49.209,49.209,0,0,0-8.409,4.66A50.152,50.152,0,0,0,59,27.872,50.8,50.8,0,0,0,45.5,53.43a52.126,52.126,0,0,0,0,20.376A50.747,50.747,0,0,0,59,99.364a50.042,50.042,0,0,0,7.326,6.174,49.164,49.164,0,0,0,8.409,4.661,48.484,48.484,0,0,0,9.292,2.945c.726.152,1.461.288,2.184.4-.232.97-.453,2.027-.654,3.142-.353,1.955-.636,4-.819,5.926a39.472,39.472,0,0,0-.205,5.134,10.484,10.484,0,0,0,.214,1.869,1.827,1.827,0,0,0,.481,1,8.114,8.114,0,0,0,2.438.948c1.18.323,2.686.649,4.353.943a62.147,62.147,0,0,0,9.934,1.015,15.106,15.106,0,0,0,2.593-.181,2.477,2.477,0,0,0,1.423-.592,7.776,7.776,0,0,0,1.206-2.642,34.716,34.716,0,0,0,.933-4.178c.251-1.49.463-3.145.612-4.785.144-1.579.229-3.121.244-4.46a9.816,9.816,0,0,0-.21-2.3,4.138,4.138,0,0,0-.563-1.372,2.574,2.574,0,0,0-.747-.735,48.5,48.5,0,0,0,5.827-2.085c1.067-.462,2.137-.971,3.179-1.513a49.272,49.272,0,0,0,5.229-3.148A50.09,50.09,0,0,0,129,99.364a50.8,50.8,0,0,0,13.493-25.557,52.128,52.128,0,0,0,0-20.376c-.163-.82-.351-1.65-.558-2.466A50.743,50.743,0,0,0,129,27.872a50.152,50.152,0,0,0-7.326-6.174,49.338,49.338,0,0,0-5.231-3.149c-1.045-.544-2.114-1.052-3.177-1.511a48.434,48.434,0,0,0-8.251-2.716c-.349-.082-.7-.159-1.041-.229-.137-.029-.274-.057-.411-.085L103.521,14l.087-.188c-.045-.012-1.139-.342-2.773-.67-.957-.192-1.918-.347-2.858-.46A28.007,28.007,0,0,0,94.68,12.471Zm6.557,116.73a56.637,56.637,0,0,1-6.935-.611C93,128.4,91.856,128.2,91,128a4.6,4.6,0,0,1-1.75-.63,5.083,5.083,0,0,1-.323-2.684,39.5,39.5,0,0,1,.477-4.777,28.357,28.357,0,0,1,.85-3.846,8.1,8.1,0,0,1,.527-1.333,1.794,1.794,0,0,1,.494-.639.438.438,0,0,1,.064-.04l.01-.005a4.144,4.144,0,0,1,1.638-.217h.042a30.514,30.514,0,0,1,3.535.276c1.029.129,2.142.3,3.218.5a16.2,16.2,0,0,1,4.54,1.2,7.408,7.408,0,0,1,.1,2.849c-.09,1.53-.284,3.426-.532,5.2-.193,1.388-.4,2.591-.607,3.479-.232,1.012-.447,1.587-.639,1.708A3.511,3.511,0,0,1,101.237,129.2Zm-8.372-12.357a1.3,1.3,0,0,0-.149,2.585l5.48.632-.786,6.511a1.3,1.3,0,0,0,1.131,1.444,1.539,1.539,0,0,0,.158.009,1.3,1.3,0,0,0,1.285-1.141l.788-6.527.369.044c.045,0,.1.008.15.008a1.3,1.3,0,0,0,.147-2.585l-.355-.04.036-.3a1.3,1.3,0,0,0-1.131-1.442,1.314,1.314,0,0,0-.158-.01,1.3,1.3,0,0,0-1.285,1.141l-.038.311-5.494-.634A1.313,1.313,0,0,0,92.866,116.844Zm0,4.537a1.3,1.3,0,0,0-1.089,2l1.458,2.268a1.3,1.3,0,1,0,2.181-1.4l-1.458-2.267A1.292,1.292,0,0,0,92.864,121.381ZM86.37,106.017h-.006a35.449,35.449,0,0,1-4.764-1.308,47.1,47.1,0,0,1-4.964-2.022,46.114,46.114,0,0,1-5.793-3.278,40.456,40.456,0,0,1-11.411-11.36A43.359,43.359,0,0,1,52.7,68.567a43.34,43.34,0,0,1,2.476-20.552A41.562,41.562,0,0,1,64.025,34.3a47.82,47.82,0,0,1,5.027-4.539,49.241,49.241,0,0,1,4.476-3.122,36.354,36.354,0,0,1,4.436-2.379l0,.015a12.748,12.748,0,0,0,.684,2.4A14.384,14.384,0,0,0,79.81,29a13.047,13.047,0,0,0,1.969,2.471,18.845,18.845,0,0,0,2.813,2.207,34.307,34.307,0,0,0,3.013,1.75c1.736.9,3.118,1.462,3.378,1.565l-11.7-3.357a14.5,14.5,0,0,0-1.321-1.305,14.212,14.212,0,0,0-1.593-1.212,9.149,9.149,0,0,0-1.6-.851,4,4,0,0,0-1.441-.321l-.119,0a5.353,5.353,0,0,0-2.121.652A12.409,12.409,0,0,0,69.121,31.9a19.19,19.19,0,0,0-2.005,1.832l-.006.006,0,0a27.66,27.66,0,0,0-2.246,2.489c-.767.945-1.518,1.965-2.233,3.03A44.079,44.079,0,0,0,60.17,43.4a42.973,42.973,0,0,0-4.041,11.386,42.324,42.324,0,0,0-.812,7.13,44.553,44.553,0,0,0,.508,8.01c.212,1.375.491,2.737.828,4.048.324,1.26.71,2.513,1.15,3.725a39.446,39.446,0,0,0,3.062,6.5,41.359,41.359,0,0,0,7.714,9.5,44.3,44.3,0,0,0,3.82,3.131c1.065.776,2.156,1.5,3.244,2.148a29.349,29.349,0,0,0,3.089,1.632l.011.005a9.027,9.027,0,0,0,1.008.433,6.745,6.745,0,0,0,2.177.437,3.409,3.409,0,0,0,.711-.071,3.566,3.566,0,0,0,1.181-.5,5.729,5.729,0,0,0,.931-.759,6.813,6.813,0,0,0,.828-.991l.107-.229,2.451,1.935a12.317,12.317,0,0,0-1.238,2.472,11.64,11.64,0,0,0-.529,2.681Zm25.613-3.393v0a.015.015,0,0,0,0-.005c-.005-.036-.034-.229-.112-.542a.119.119,0,0,0,0-.015,10.276,10.276,0,0,0-.506-1.489,12.027,12.027,0,0,0-1.112-2.04,12.854,12.854,0,0,0-1.941-2.249l-.069-.064a22.2,22.2,0,0,0-2.691-2.045c-.338-.223-.705-.454-1.092-.688-.584-.354-1.2-.7-1.822-1.042-.187-.1-.384-.207-.636-.339l-.006,0-.006,0-.007,0c-1.494-.78-2.577-1.25-2.588-1.255l.03.009c1.137.35,5.133,1.569,8.812,2.573,1.535.418,2.763.732,3.753.959a5.788,5.788,0,0,0,1.293.145,7.164,7.164,0,0,0,2.8-.611c.271-.115.545-.247.814-.392a12.151,12.151,0,0,0,1.489-.954,14.316,14.316,0,0,0,2.1-1.912l.04-.046a2.666,2.666,0,0,0,.88.123,4.6,4.6,0,0,0,2.762-1.009,11.736,11.736,0,0,0,3.412-4.838c.176-.406.348-.8.509-1.165l.187-.425,0-.009.051-.114.012-.027.005-.011.005-.013.006-.013c.7-1.587,1.36-3.085,1.95-4.671a33.953,33.953,0,0,0,1.491-5.12A36.3,36.3,0,0,0,132.5,67c.014-.456.021-.925.021-1.435a63.848,63.848,0,0,0-.407-6.879,39.077,39.077,0,0,0-10.883-23.563l-.012-.014-.005-.005c-.246-.274-.448-.5-.634-.712a64.665,64.665,0,0,0-5.88-4.381c-.063-.04-.125-.08-.188-.119a37.13,37.13,0,0,0-5.319-2.7,8.191,8.191,0,0,0-2.678-.717c-.1-.005-.191-.008-.284-.008a3.475,3.475,0,0,0-1.109.167,2.471,2.471,0,0,0-.706.368,1.853,1.853,0,0,0-.469.513l-.008.014-.005.009a1.426,1.426,0,0,1-.3.031c-.386,0-1.032-.158-1.032-1.217a7.084,7.084,0,0,1,.463-2.439,2.372,2.372,0,0,1,1.247-1.533.508.508,0,0,1,.142-.014,17.983,17.983,0,0,1,4.669,1.23,39.337,39.337,0,0,1,8.645,4.58c5.677,3.97,13.164,11.453,16.6,24.553a54.3,54.3,0,0,1,1.468,12,38.264,38.264,0,0,1-1.517,10.733,58.261,58.261,0,0,1-4.1,10.06,30.959,30.959,0,0,1-5.089,7.128,46.1,46.1,0,0,1-4.757,4.4c-.411.331-.835.662-1.26.985a56.864,56.864,0,0,1-5.022,3.4c-1.31.788-2.092,1.182-2.1,1.186Zm-30-3.594a3.924,3.924,0,0,1-1.8-.613,28.422,28.422,0,0,1-3.2-1.615,41.663,41.663,0,0,1-7.136-5.2,34.063,34.063,0,0,1-11.4-23.251,46.519,46.519,0,0,1,4.729-24.566,36.081,36.081,0,0,1,3.952-6.1,19.939,19.939,0,0,1,1.845-2.027,14.654,14.654,0,0,1,1.451-1.549A5.057,5.057,0,0,1,73.3,32.56a1.535,1.535,0,0,1,.518.087,1.489,1.489,0,0,1,1.053.918c.193.7-.4,1.531-.869,2.092a4.6,4.6,0,0,1-.547.439l-.016.012A27.7,27.7,0,0,0,70.376,38.7a27.374,27.374,0,0,0-4.165,5.265,29.624,29.624,0,0,0-1.955,3.809,32.861,32.861,0,0,0-1.581,4.686,38.305,38.305,0,0,0-.992,5.634,47.227,47.227,0,0,0-.186,6.65,38.866,38.866,0,0,0,1,7.4,34.9,34.9,0,0,0,2.094,6.2,33.832,33.832,0,0,0,5.963,9.058,34.371,34.371,0,0,0,3.11,2.993,32.817,32.817,0,0,0,2.691,2.057,21.813,21.813,0,0,0,2.607,1.567,4.575,4.575,0,0,0,1.893.484,2.244,2.244,0,0,0,1.171-.3,2.282,2.282,0,0,0,.924-1.143,2.615,2.615,0,0,0,.09-2.119,2.212,2.212,0,0,0-.791-.9,2.358,2.358,0,0,0-.493-.254,7.1,7.1,0,0,1-1.3-.41,15.42,15.42,0,0,1-3.357-1.936c-2.5-1.858-6.2-5.568-9.6-12.686S65,59.93,66.351,54.724A45.677,45.677,0,0,1,68.8,47.74c.759-1.7,1.335-2.7,1.339-2.7a3.681,3.681,0,0,1,.631-.666A2.706,2.706,0,0,1,72.46,43.7h.05a12.348,12.348,0,0,0,.517,1.661c.129.334.281.687.451,1.049a8.518,8.518,0,0,0-.9,1,16.409,16.409,0,0,0-2.018,3.44,25.049,25.049,0,0,0-1.779,6.233,39.337,39.337,0,0,0-.248,9.435,23.2,23.2,0,0,0,1.052,5.209,24.078,24.078,0,0,0,1.986,4.465,28.6,28.6,0,0,0,5.451,6.757,33.891,33.891,0,0,0,2.8,2.324c.789.587,1.6,1.139,2.411,1.642a23.9,23.9,0,0,0,2.326,1.294,4.713,4.713,0,0,1,.745.407A3.006,3.006,0,0,1,86.4,89.786a2.165,2.165,0,0,1,.154.509,8.279,8.279,0,0,0-.033.916c0,.131.011.267.022.416a5.24,5.24,0,0,1-.142.648l-2.393,5.346,0,.005a4.489,4.489,0,0,1-.483.609,2.5,2.5,0,0,1-1.2.764A1.635,1.635,0,0,1,81.982,99.031Zm38.952-11.139-.051,0a.68.68,0,0,1-.41-.148,1.311,1.311,0,0,1-.428-.863c-.005-.043-.011-.1-.014-.161,0-.032,0-.066,0-.1a2.706,2.706,0,0,1,.2-.983,3.22,3.22,0,0,1,.7-1.052,8.567,8.567,0,0,0,.937-1.288c.281-.443.563-.929.841-1.443a34.448,34.448,0,0,0,2.579-6.255,37.719,37.719,0,0,0,1.589-9.2c.027-.574.041-1.153.042-1.72,0-1.275-.059-2.555-.181-3.805a40.561,40.561,0,0,0-1.058-6.047,33.3,33.3,0,0,0-1.815-5.272c-.313-.71-.664-1.43-1.043-2.141-.426-.8-.887-1.579-1.372-2.326a33.754,33.754,0,0,0-5.771-6.73,38.495,38.495,0,0,0-9.3-6.132l-.01-.005-.009,0a6.221,6.221,0,0,1-.557-.283,1.454,1.454,0,0,1-.662-1.071c0-.034,0-.066,0-.1a1.1,1.1,0,0,1,.337-.81,1.89,1.89,0,0,1,1.339-.514,2.846,2.846,0,0,1,.726.1,20.258,20.258,0,0,1,3.01,1.438,39.144,39.144,0,0,1,6.125,4.259,37.053,37.053,0,0,1,6.763,7.5A34.329,34.329,0,0,1,128.364,53.9a42.083,42.083,0,0,1,1.185,9.931,44.814,44.814,0,0,1-5.831,21.915l-.063.106,0,0-.023.038,0,.005-.01.017-.007.012-.006.011,0,.007,0,.007-.038.065a4.491,4.491,0,0,1-1.183,1.253A2.722,2.722,0,0,1,120.934,87.891ZM83.985,84.8h0l-.028-.016-.274-.153A24.415,24.415,0,0,1,79.406,81.5a22.307,22.307,0,0,1-7.2-14.477c-.912-9.253.327-11.735,1.526-14.135l3.544,3.609a41.5,41.5,0,0,0-.726,5.31,35.267,35.267,0,0,0-.039,4.995,20.1,20.1,0,0,0,.949,5.094,16.264,16.264,0,0,0,2.255,4.263,21.771,21.771,0,0,0,2.833,3.169A22.675,22.675,0,0,0,86,81.976l-2.014,2.819Zm36.3-5.112-4.626-5.459c.161-.4,3.915-9.941,1.3-18.511a24.607,24.607,0,0,0-10.324-13.072l-.009.016a10.258,10.258,0,0,0,.435-1.062c.043-.123.084-.251.125-.391l.007,0a23.864,23.864,0,0,1,4.424,3.526,27.657,27.657,0,0,1,3.655,4.455,24.668,24.668,0,0,1,4.145,13.65,34.937,34.937,0,0,1-.556,6.551,36.108,36.108,0,0,1-1.759,6.527l1.344,1.582a31.815,31.815,0,0,0,2.057-6.681,32.216,32.216,0,0,0-.492-15.293,27.479,27.479,0,0,0-12.434-16.073c.079-.488.141-1.006.184-1.538.062-.762.069-1.356.068-1.642,0-.108,0-.177,0-.2A19.457,19.457,0,0,1,109.8,37.2c.7.451,1.4.946,2.078,1.472a30.631,30.631,0,0,1,2.389,2.056l.073.07a29.605,29.605,0,0,1,5.042,6.372,28.778,28.778,0,0,1,3.451,9.3c.01.052.02.105.029.158a46.025,46.025,0,0,1,.761,8.205c0,.556-.011,1.108-.033,1.642a35.848,35.848,0,0,1-1.011,7.231l-.03.118a26.9,26.9,0,0,1-1.485,4.338,13.993,13.993,0,0,1-.778,1.518Zm-24.9-5.567a7.813,7.813,0,0,1-1.333-.111,6.54,6.54,0,0,1-4.743-3.587,13.549,13.549,0,0,1-1.43-4.814,19.61,19.61,0,0,1-.148-2.4c0-.017,0-.035,0-.052s0-.042,0-.06v-.01c0-.017,0-.035,0-.052s0-.037,0-.054v-.014c0-.014,0-.028,0-.042s0-.036,0-.052v-.023l0-.094c0-.01,0-.02,0-.03s0-.049,0-.074c0-.008,0-.016,0-.025s0-.017,0-.025,0-.021,0-.031,0-.021,0-.032l0-.053c0-.021,0-.041,0-.061l0-.046,0-.068,0-.032v-.015c0-.013,0-.026,0-.039s0-.026,0-.039,0-.021,0-.031l0-.067V62.06s0,0,0-.007a.065.065,0,0,0,0-.007,14.766,14.766,0,0,1,.338-2.35,10.049,10.049,0,0,1,1.212-3.048l.014-.022.011-.019.027-.042c.048-.075.1-.152.158-.238a6.7,6.7,0,0,1,5.854-2.876,6.306,6.306,0,0,1,5.838,3.208,13.422,13.422,0,0,1,1.466,6.54v.173a17.691,17.691,0,0,1-1.082,6.235l0,.01,0,.01-.008.019,0,.012-.006.015-.006.015-.005.013c-.065.158-.136.319-.212.479l0,.005-.01.02-.01.02,0,.008,0,.008-.008.017-.008.017-.025.05A6.223,6.223,0,0,1,95.386,74.116Zm18.928-1.477h0l-1.348-1.59s.111-.325.259-.944c.165-.686.3-1.418.408-2.174a.016.016,0,0,0,0-.006c0-.008,0-.015,0-.023l0-.019,0-.021v-.023l.005-.038,0-.009c.034-.259.065-.517.09-.765a27.417,27.417,0,0,0,.144-2.765c0-.56-.015-1.123-.047-1.675a28.448,28.448,0,0,0-.874-5.537,18.064,18.064,0,0,0-2.2-5.092,18.51,18.51,0,0,0-2.83-3.464,18.217,18.217,0,0,0-2.441-1.976c-.173-.116-.347-.228-.519-.332-.29-.176-.472-.272-.517-.293a.251.251,0,0,1,.027-.032c.051-.057.172-.189.335-.387.143-.17.367-.449.624-.81.108-.151.213-.305.312-.457l-.026.046.006,0a18.69,18.69,0,0,1,3.562,2.714,22.264,22.264,0,0,1,5.671,8.745c2.737,7.843-.51,16.558-.649,16.925Z" transform="translate(156 63)"/>
    <rect id="Rectangle_6" data-name="Rectangle 6" width="189" height="145" transform="translate(155 270)"/>
    <path id="Union_1" data-name="Union 1" d="M24,68V44H0V24H24V0H44V24H68V44H44V68Z" transform="translate(43 318)"/>
    <circle id="Ellipse_1" data-name="Ellipse 1" cx="15" cy="15" r="15" transform="translate(409 312)"/>
    <circle id="Ellipse_2" data-name="Ellipse 2" cx="15" cy="15" r="15" transform="translate(435 337)"/>
    <circle id="Ellipse_3" data-name="Ellipse 3" cx="15" cy="15" r="15" transform="translate(409 362)"/>
    <circle id="Ellipse_4" data-name="Ellipse 4" cx="15" cy="15" r="15" transform="translate(385 337)"/>
    <rect id="Rectangle_9" data-name="Rectangle 9" width="40" height="15" rx="5" transform="translate(59 280)"/>
    <rect id="Rectangle_10" data-name="Rectangle 10" width="34" height="15" rx="5" transform="translate(388 280)"/>
    <rect id="Rectangle_11" data-name="Rectangle 11" width="34" height="15" rx="5" transform="translate(427 280)"/>
  </g>
</svg>
