<svg xmlns="http://www.w3.org/2000/svg" xmlns:xlink="http://www.w3.org/1999/xlink" width="500" height="500" viewBox="0 0 500 500">
  <defs>
    <clipPath id="clip-DSi_icon">
      <rect width="500" height="500"/>
    </clipPath>
  </defs>
  <g id="DSi_icon" data-name="DSi icon" clip-path="url(#clip-DSi_icon)">
    <path id="Rectangle_12" data-name="Rectangle 12" d="M5,0H418a5,5,0,0,1,5,5V215a21,21,0,0,1-21,21H21A21,21,0,0,1,0,215V5A5,5,0,0,1,5,0Z" transform="translate(37 250)" fill="#cdcdcd"/>
    <path id="Rectangle_1" data-name="Rectangle 1" d="M21,0H402a21,21,0,0,1,21,21V231a5,5,0,0,1-5,5H5a5,5,0,0,1-5-5V21A21,21,0,0,1,21,0Z" transform="translate(37 14)" fill="#cdcdcd"/>
    <rect id="Rectangle_20" data-name="Rectangle 20" width="122" height="133" transform="translate(190 69)" fill="#fff"/>
    <path id="Exclusion_21" data-name="Exclusion 21" d="M189-396H0V-541H189v145ZM94.68-529.029a14.608,14.608,0,0,0-5.133.8,48.685,48.685,0,0,0-5.523.824,48.494,48.494,0,0,0-9.292,2.946,49.2,49.2,0,0,0-8.409,4.66A50.155,50.155,0,0,0,59-513.628a50.708,50.708,0,0,0-6.044,7.482,50.855,50.855,0,0,0-4.564,8.587,51.157,51.157,0,0,0-2.884,9.49A51.982,51.982,0,0,0,44.5-477.882,51.994,51.994,0,0,0,45.5-467.694a51.077,51.077,0,0,0,2.884,9.49,50.914,50.914,0,0,0,4.564,8.587A50.636,50.636,0,0,0,59-442.136a50.087,50.087,0,0,0,7.326,6.173,49.167,49.167,0,0,0,8.409,4.661,48.49,48.49,0,0,0,9.292,2.946c.707.148,1.441.284,2.184.4-.232.969-.453,2.025-.654,3.141-.353,1.956-.636,4.005-.819,5.926a39.472,39.472,0,0,0-.205,5.134,10.48,10.48,0,0,0,.214,1.869,1.82,1.82,0,0,0,.481,1,8.08,8.08,0,0,0,2.438.948c1.186.325,2.691.651,4.353.944a62.237,62.237,0,0,0,9.934,1.014,15.2,15.2,0,0,0,2.593-.18,2.479,2.479,0,0,0,1.423-.593,7.776,7.776,0,0,0,1.206-2.642,34.681,34.681,0,0,0,.933-4.178c.251-1.49.462-3.144.612-4.784.144-1.578.229-3.121.244-4.461a9.817,9.817,0,0,0-.21-2.3,4.124,4.124,0,0,0-.563-1.371,2.551,2.551,0,0,0-.747-.735,48.66,48.66,0,0,0,5.827-2.086c1.064-.46,2.134-.968,3.179-1.512a49.426,49.426,0,0,0,5.229-3.149A50.146,50.146,0,0,0,129-442.136a50.691,50.691,0,0,0,6.044-7.482,50.856,50.856,0,0,0,4.564-8.587,51.08,51.08,0,0,0,2.885-9.49,52,52,0,0,0,1.005-10.188,51.983,51.983,0,0,0-1.005-10.188c-.163-.817-.351-1.647-.558-2.465a51.112,51.112,0,0,0-2.327-7.024,50.857,50.857,0,0,0-4.564-8.587A50.652,50.652,0,0,0,129-513.628a50.147,50.147,0,0,0-7.326-6.174,49.627,49.627,0,0,0-5.231-3.149c-1.035-.539-2.1-1.047-3.177-1.511a48.592,48.592,0,0,0-8.251-2.716c-.348-.081-.7-.158-1.041-.23-.151-.031-.3-.063-.454-.093l.087-.189c-.045-.013-1.141-.343-2.773-.67-.957-.192-1.918-.347-2.858-.46A28,28,0,0,0,94.68-529.029Zm6.557,116.73a56.8,56.8,0,0,1-6.935-.61C93-413.1,91.852-413.3,91-413.5a4.571,4.571,0,0,1-1.75-.63,5.083,5.083,0,0,1-.323-2.684,39.5,39.5,0,0,1,.477-4.777,28.306,28.306,0,0,1,.85-3.845,8.074,8.074,0,0,1,.527-1.333,1.8,1.8,0,0,1,.494-.64.675.675,0,0,1,.064-.04l.01-.005a4.144,4.144,0,0,1,1.638-.217h.042a30.506,30.506,0,0,1,3.535.276c1.034.13,2.147.3,3.218.5a16.132,16.132,0,0,1,4.54,1.2,7.4,7.4,0,0,1,.1,2.848c-.09,1.529-.284,3.425-.532,5.2-.193,1.389-.4,2.592-.607,3.479-.232,1.012-.447,1.587-.639,1.709A3.533,3.533,0,0,1,101.237-412.3Zm-8.373-12.357a1.3,1.3,0,0,0-1.287,1.148,1.3,1.3,0,0,0,1.139,1.436l5.48.632-.786,6.512a1.3,1.3,0,0,0,1.131,1.443,1.32,1.32,0,0,0,.158.009,1.3,1.3,0,0,0,1.285-1.141l.788-6.526.369.043a1.417,1.417,0,0,0,.15.009,1.3,1.3,0,0,0,1.286-1.148,1.3,1.3,0,0,0-1.139-1.436l-.355-.04.036-.3a1.288,1.288,0,0,0-.267-.955,1.287,1.287,0,0,0-.864-.487,1.321,1.321,0,0,0-.157-.009,1.3,1.3,0,0,0-1.286,1.141l-.038.311-5.494-.634A1.309,1.309,0,0,0,92.864-424.656Zm0,4.537a1.291,1.291,0,0,0-.7.206,1.3,1.3,0,0,0-.39,1.792l1.458,2.268a1.294,1.294,0,0,0,1.092.6,1.292,1.292,0,0,0,.7-.206,1.287,1.287,0,0,0,.566-.815,1.288,1.288,0,0,0-.177-.977l-1.458-2.268A1.292,1.292,0,0,0,92.864-420.119ZM86.37-435.483h0a34.677,34.677,0,0,1-4.769-1.308,47.306,47.306,0,0,1-4.964-2.022,46.233,46.233,0,0,1-5.793-3.279,40.456,40.456,0,0,1-11.411-11.36,43.359,43.359,0,0,1-6.733-19.48,43.34,43.34,0,0,1,2.476-20.552,41.562,41.562,0,0,1,8.85-13.718,47.822,47.822,0,0,1,5.027-4.539,49.211,49.211,0,0,1,4.476-3.122,36.2,36.2,0,0,1,4.436-2.379l0,.01a12.547,12.547,0,0,0,.684,2.4A14.39,14.39,0,0,0,79.81-512.5a13.047,13.047,0,0,0,1.969,2.471,18.844,18.844,0,0,0,2.813,2.207,34.312,34.312,0,0,0,3.013,1.75c1.735.9,3.118,1.462,3.378,1.565l-11.7-3.357a14.748,14.748,0,0,0-1.321-1.3,14.211,14.211,0,0,0-1.593-1.212,9.151,9.151,0,0,0-1.6-.851,4,4,0,0,0-1.441-.321l-.119,0a5.354,5.354,0,0,0-2.121.652,12.413,12.413,0,0,0-1.966,1.293,19.2,19.2,0,0,0-2,1.832l-.006.006,0,0a27.656,27.656,0,0,0-2.246,2.489c-.767.945-1.518,1.965-2.233,3.03A44.077,44.077,0,0,0,60.17-498.1a42.974,42.974,0,0,0-4.041,11.386,42.323,42.323,0,0,0-.812,7.13,44.553,44.553,0,0,0,.508,8.01c.212,1.374.491,2.737.828,4.049.324,1.26.711,2.513,1.15,3.724a39.489,39.489,0,0,0,3.062,6.505A41.334,41.334,0,0,0,68.58-447.8a44.126,44.126,0,0,0,3.82,3.131c1.065.776,2.156,1.5,3.244,2.148a28.793,28.793,0,0,0,3.089,1.631l0,0,.007,0a9.025,9.025,0,0,0,1.008.433,6.743,6.743,0,0,0,2.177.437,3.411,3.411,0,0,0,.711-.07,3.587,3.587,0,0,0,1.181-.5,5.73,5.73,0,0,0,.931-.759,6.97,6.97,0,0,0,.825-.986l0,0,.107-.23,2.451,1.935a12.312,12.312,0,0,0-1.238,2.472,11.633,11.633,0,0,0-.529,2.681Zm25.614-3.392h0a.02.02,0,0,0,0-.007c-.005-.036-.035-.23-.112-.542a.085.085,0,0,0,0-.014,10.244,10.244,0,0,0-.506-1.49,12.029,12.029,0,0,0-1.112-2.04,12.857,12.857,0,0,0-1.941-2.249l-.045-.042-.024-.022a22.176,22.176,0,0,0-2.691-2.044c-.351-.231-.718-.463-1.092-.689-.57-.346-1.183-.7-1.822-1.042-.227-.123-.435-.234-.636-.339l-.013-.006-.007,0c-1.5-.782-2.577-1.25-2.588-1.255l.032.01c1.138.35,5.137,1.57,8.81,2.572,1.49.407,2.753.73,3.753.959a5.788,5.788,0,0,0,1.293.145,7.165,7.165,0,0,0,2.8-.611c.268-.114.542-.246.814-.392a12.156,12.156,0,0,0,1.489-.955,14.462,14.462,0,0,0,2.1-1.911l.04-.047a2.656,2.656,0,0,0,.88.123,4.6,4.6,0,0,0,2.762-1.008,11.749,11.749,0,0,0,3.412-4.837c.176-.407.348-.8.509-1.166l.092-.21.095-.215,0-.009.051-.114.012-.027.005-.011.005-.012.02-.045c.694-1.576,1.35-3.064,1.936-4.639a33.931,33.931,0,0,0,1.491-5.12,36.3,36.3,0,0,0,.707-6.322c.014-.456.021-.925.021-1.434a63.856,63.856,0,0,0-.407-6.88,39.088,39.088,0,0,0-10.883-23.563l-.012-.013-.005-.006c-.244-.271-.445-.5-.634-.711a64.679,64.679,0,0,0-5.88-4.382c-.063-.041-.125-.08-.188-.119a37.133,37.133,0,0,0-5.319-2.7,8.167,8.167,0,0,0-2.678-.716c-.092-.006-.187-.009-.284-.009a3.477,3.477,0,0,0-1.109.167,2.472,2.472,0,0,0-.706.368,1.836,1.836,0,0,0-.469.514l-.008.015,0,.007a1.422,1.422,0,0,1-.3.031c-.386,0-1.032-.158-1.032-1.217a7.084,7.084,0,0,1,.463-2.439,2.372,2.372,0,0,1,1.247-1.533.509.509,0,0,1,.142-.014,17.981,17.981,0,0,1,4.669,1.23,39.335,39.335,0,0,1,8.645,4.58c5.677,3.97,13.164,11.453,16.6,24.553a54.3,54.3,0,0,1,1.468,12,38.262,38.262,0,0,1-1.517,10.732,58.242,58.242,0,0,1-4.1,10.059,30.945,30.945,0,0,1-5.089,7.128,46.1,46.1,0,0,1-4.757,4.4c-.4.327-.829.658-1.26.986a57.013,57.013,0,0,1-5.022,3.4c-1.3.782-2.093,1.183-2.1,1.187Zm-30-3.594a3.948,3.948,0,0,1-1.8-.613,29.025,29.025,0,0,1-3.2-1.615,41.634,41.634,0,0,1-7.136-5.2,34.058,34.058,0,0,1-11.4-23.251,46.519,46.519,0,0,1,4.729-24.566,36.082,36.082,0,0,1,3.952-6.1,19.943,19.943,0,0,1,1.845-2.027,14.482,14.482,0,0,1,1.451-1.549A5.057,5.057,0,0,1,73.3-508.94a1.535,1.535,0,0,1,.518.087,1.489,1.489,0,0,1,1.053.918c.193.7-.4,1.531-.869,2.092a4.605,4.605,0,0,1-.548.44l-.015.011a27.7,27.7,0,0,0-3.062,2.592,27.376,27.376,0,0,0-4.165,5.265,29.628,29.628,0,0,0-1.955,3.809,32.859,32.859,0,0,0-1.581,4.686,38.31,38.31,0,0,0-.992,5.634,47.227,47.227,0,0,0-.186,6.65,38.866,38.866,0,0,0,1,7.4,34.9,34.9,0,0,0,2.094,6.2,33.852,33.852,0,0,0,5.963,9.059,34.629,34.629,0,0,0,3.11,2.993,32.6,32.6,0,0,0,2.691,2.057,21.653,21.653,0,0,0,2.607,1.567,4.634,4.634,0,0,0,1.893.484,2.252,2.252,0,0,0,1.171-.3,2.289,2.289,0,0,0,.924-1.144,2.615,2.615,0,0,0,.09-2.119,2.212,2.212,0,0,0-.791-.9,2.363,2.363,0,0,0-.493-.254,7.1,7.1,0,0,1-1.3-.41,15.419,15.419,0,0,1-3.357-1.936c-2.5-1.857-6.2-5.566-9.6-12.686s-2.5-14.824-1.147-20.03a45.681,45.681,0,0,1,2.452-6.984c.766-1.717,1.335-2.7,1.339-2.7a3.681,3.681,0,0,1,.631-.666,2.706,2.706,0,0,1,1.687-.667h.05a12.344,12.344,0,0,0,.517,1.66c.129.335.281.687.451,1.048a8.557,8.557,0,0,0-.9,1,16.411,16.411,0,0,0-2.018,3.44,25.049,25.049,0,0,0-1.779,6.233,39.336,39.336,0,0,0-.248,9.435,23.2,23.2,0,0,0,1.052,5.209,24.058,24.058,0,0,0,1.986,4.465,28.6,28.6,0,0,0,5.451,6.757,33.918,33.918,0,0,0,2.8,2.325c.791.588,1.6,1.14,2.411,1.641a23.387,23.387,0,0,0,2.326,1.294,4.8,4.8,0,0,1,.745.407,3.006,3.006,0,0,1,1.089,1.168,2.165,2.165,0,0,1,.154.509,8.279,8.279,0,0,0-.033.916c0,.13.011.27.022.416a5.2,5.2,0,0,1-.142.648l-2.393,5.346a4.452,4.452,0,0,1-.487.614,2.5,2.5,0,0,1-1.2.764A1.632,1.632,0,0,1,81.982-442.469Zm38.952-11.14-.05,0a.682.682,0,0,1-.411-.149,1.311,1.311,0,0,1-.428-.863c-.007-.062-.012-.113-.014-.161,0-.033,0-.065,0-.1a2.706,2.706,0,0,1,.2-.983,3.212,3.212,0,0,1,.7-1.051,8.6,8.6,0,0,0,.937-1.289c.277-.437.56-.922.841-1.443a34.393,34.393,0,0,0,2.579-6.255,37.715,37.715,0,0,0,1.589-9.2c.027-.575.041-1.154.042-1.72,0-1.275-.059-2.555-.181-3.806a40.563,40.563,0,0,0-1.058-6.047,33.3,33.3,0,0,0-1.815-5.272c-.314-.712-.665-1.432-1.043-2.14-.425-.8-.887-1.579-1.372-2.327a33.722,33.722,0,0,0-5.771-6.729,38.481,38.481,0,0,0-9.3-6.133l-.01-.005-.009,0a6.239,6.239,0,0,1-.557-.283,1.454,1.454,0,0,1-.662-1.071c0-.035,0-.066,0-.1a1.1,1.1,0,0,1,.337-.81,1.89,1.89,0,0,1,1.339-.514,2.848,2.848,0,0,1,.726.1,20.26,20.26,0,0,1,3.01,1.438,39.15,39.15,0,0,1,6.125,4.259,37.054,37.054,0,0,1,6.763,7.5,34.329,34.329,0,0,1,4.929,11.168,42.093,42.093,0,0,1,1.185,9.931,44.814,44.814,0,0,1-5.831,21.915l-.06.1,0,.007-.024.04,0,.005-.01.017,0,.008-.008.015-.006.009,0,.005-.02.034-.018.031a4.475,4.475,0,0,1-1.183,1.253A2.722,2.722,0,0,1,120.934-453.609Zm-36.949-3.1h0c-.1-.053-.2-.11-.3-.169a24.417,24.417,0,0,1-4.277-3.131,22.306,22.306,0,0,1-7.2-14.476c-.912-9.252.327-11.735,1.526-14.136l3.544,3.609a41.5,41.5,0,0,0-.726,5.31,35.267,35.267,0,0,0-.039,4.995,20.09,20.09,0,0,0,.949,5.094,16.264,16.264,0,0,0,2.255,4.263,21.771,21.771,0,0,0,2.833,3.169A22.455,22.455,0,0,0,86-459.524l-2.014,2.818Zm36.3-5.112-4.626-5.459c.161-.4,3.919-9.927,1.3-18.511A23.43,23.43,0,0,0,110.8-495.6a23.417,23.417,0,0,0-4.163-3.263l-.009.017a10.356,10.356,0,0,0,.435-1.063c.043-.123.084-.251.125-.391l.007,0a23.836,23.836,0,0,1,4.424,3.526,27.656,27.656,0,0,1,3.655,4.455,25.636,25.636,0,0,1,3.024,6.336,25.422,25.422,0,0,1,1.12,7.314,34.94,34.94,0,0,1-.556,6.551,36.051,36.051,0,0,1-1.759,6.528L118.445-464a31.816,31.816,0,0,0,2.057-6.681,32.218,32.218,0,0,0-.492-15.294,27.476,27.476,0,0,0-12.434-16.073c.079-.489.141-1.007.184-1.538.062-.762.069-1.356.068-1.642,0-.114,0-.178,0-.2A19.439,19.439,0,0,1,109.8-504.3c.7.451,1.4.946,2.078,1.472a30.614,30.614,0,0,1,2.389,2.056l.073.07a29.6,29.6,0,0,1,5.042,6.372,28.79,28.79,0,0,1,3.451,9.3l0,.022c.009.046.017.091.025.137a46.025,46.025,0,0,1,.761,8.205c0,.556-.011,1.108-.033,1.642a35.848,35.848,0,0,1-1.011,7.231v.006l-.028.112a26.827,26.827,0,0,1-1.485,4.338,13.8,13.8,0,0,1-.778,1.518Zm-24.9-5.567a7.814,7.814,0,0,1-1.333-.111,6.537,6.537,0,0,1-4.743-3.587,13.546,13.546,0,0,1-1.43-4.814,19.611,19.611,0,0,1-.148-2.4c0-.018,0-.037,0-.055s0-.039,0-.056v-.01c0-.018,0-.035,0-.053s0-.037,0-.053v-.015c0-.015,0-.031,0-.046s0-.032,0-.047v-.116c0-.01,0-.02,0-.03s0-.047,0-.071,0-.017,0-.025,0-.018,0-.026,0-.021,0-.031,0-.022,0-.032l0-.054c0-.021,0-.042,0-.064l0-.043v-.068l0-.03v-.017c0-.013,0-.026,0-.039s0-.025,0-.038,0-.02,0-.03l0-.046,0-.043s0,0,0-.007a.065.065,0,0,0,0-.007,14.769,14.769,0,0,1,.338-2.35,10.033,10.033,0,0,1,1.212-3.047l0,0,.011-.017.012-.019.013-.022.014-.022c.048-.075.1-.152.158-.238a6.7,6.7,0,0,1,5.854-2.876,6.306,6.306,0,0,1,5.838,3.208,13.422,13.422,0,0,1,1.466,6.54v.173a17.694,17.694,0,0,1-1.082,6.236l0,.009,0,.009-.006.015-.006.015-.006.015-.006.015-.005.014c-.062.151-.132.308-.212.479l0,.005-.01.02-.01.02,0,.008,0,.007-.008.017-.008.017-.025.05A6.222,6.222,0,0,1,95.386-467.384Zm18.928-1.477h0l-1.348-1.59s.111-.325.259-.943c.165-.688.3-1.42.408-2.174a.014.014,0,0,0,0-.006l0-.018,0-.023v-.043l.005-.038v-.005c.036-.271.066-.521.091-.77a27.379,27.379,0,0,0,.144-2.764c0-.56-.015-1.124-.047-1.676a28.449,28.449,0,0,0-.874-5.537,18.065,18.065,0,0,0-2.2-5.092,18.51,18.51,0,0,0-2.83-3.464,18.221,18.221,0,0,0-2.441-1.976c-.173-.116-.347-.228-.519-.332-.322-.2-.51-.289-.517-.293a.143.143,0,0,1,.018-.022c.047-.051.171-.188.344-.4.213-.256.423-.529.624-.811.105-.148.21-.3.312-.456l-.026.045.006,0a18.7,18.7,0,0,1,3.561,2.714,22.264,22.264,0,0,1,5.671,8.745c2.737,7.843-.51,16.558-.649,16.925Z" transform="translate(156 601)"/>
    <rect id="Rectangle_6" data-name="Rectangle 6" width="189" height="145" transform="translate(156 296)"/>
    <path id="Union_1" data-name="Union 1" d="M28.236,80V51.765H0V28.236H28.236V0H51.765V28.236H80V51.765H51.765V80Z" transform="translate(59 313)"/>
    <circle id="Ellipse_1" data-name="Ellipse 1" cx="15" cy="15" r="15" transform="translate(387 363)"/>
    <circle id="Ellipse_2" data-name="Ellipse 2" cx="15" cy="15" r="15" transform="translate(387 313)"/>
    <circle id="Ellipse_3" data-name="Ellipse 3" cx="15" cy="15" r="15" transform="translate(362 338)"/>
    <circle id="Ellipse_4" data-name="Ellipse 4" cx="15" cy="15" r="15" transform="translate(412 338)"/>
    <rect id="Rectangle_13" data-name="Rectangle 13" width="429" height="32" rx="16" transform="translate(36 234)" fill="#bebebe"/>
    <circle id="Ellipse_5" data-name="Ellipse 5" cx="10" cy="10" r="10" transform="translate(240 240)"/>
    <circle id="Ellipse_6" data-name="Ellipse 6" cx="7.5" cy="7.5" r="7.5" transform="translate(362 422)"/>
    <circle id="Ellipse_7" data-name="Ellipse 7" cx="7.5" cy="7.5" r="7.5" transform="translate(362 446)"/>
    <circle id="Ellipse_8" data-name="Ellipse 8" cx="7.5" cy="7.5" r="7.5" transform="translate(124 446)"/>
  </g>
</svg>
