<svg xmlns="http://www.w3.org/2000/svg" xmlns:xlink="http://www.w3.org/1999/xlink" width="500" height="500" viewBox="0 0 500 500">
  <defs>
    <clipPath id="clip-Wii_U_Icon">
      <rect width="500" height="500"/>
    </clipPath>
  </defs>
  <g id="Wii_U_Icon" data-name="Wii U Icon" clip-path="url(#clip-Wii_U_Icon)">
    <g id="Group_5" data-name="Group 5">
      <path id="Subtraction_5" data-name="Subtraction 5" d="M377,108H331.878A58.647,58.647,0,0,0,277.34,71.3H0V18A18,18,0,0,1,18,0H377a18,18,0,0,1,18,18V90a18,18,0,0,1-18,18Zm-59.031,0H18A18,18,0,0,1,0,90V83.883H277.34A46.224,46.224,0,0,1,317.969,108v0h0Z" transform="translate(90 94)" fill="#cdcdcd"/>
      <path id="Subtraction_7" data-name="Subtraction 7" d="M22.615,13H.385a10.223,10.223,0,0,1,9.83-13h2.57a10.223,10.223,0,0,1,9.83,13Z" transform="translate(119 153)"/>
      <path id="Subtraction_6" data-name="Subtraction 6" d="M188,23h-.093a67.019,67.019,0,0,0-32.036-7.961H.208A10.072,10.072,0,0,1,0,13V10A10.011,10.011,0,0,1,10,0H188a10.011,10.011,0,0,1,10,10v3A10.011,10.011,0,0,1,188,23Z" transform="translate(213 153)"/>
      <rect id="Rectangle_23" data-name="Rectangle 23" width="289" height="13" rx="6.5" transform="translate(164 116)"/>
      <rect id="Rectangle_24" data-name="Rectangle 24" width="25" height="13" rx="6.5" transform="translate(118 116)"/>
    </g>
    <g id="Group_4" data-name="Group 4">
      <rect id="Rectangle_21" data-name="Rectangle 21" width="401" height="228" rx="44" transform="translate(14 178)" fill="#cdcdcd"/>
      <ellipse id="Ellipse_10" data-name="Ellipse 10" cx="21" cy="21.5" rx="21" ry="21.5" transform="translate(36 202)"/>
      <ellipse id="Ellipse_11" data-name="Ellipse 11" cx="21" cy="21.5" rx="21" ry="21.5" transform="translate(348 202)"/>
      <ellipse id="Ellipse_12" data-name="Ellipse 12" cx="10" cy="9.5" rx="10" ry="9.5" transform="translate(354 296)"/>
      <circle id="Ellipse_13" data-name="Ellipse 13" cx="10" cy="10" r="10" transform="translate(354 263)"/>
      <ellipse id="Ellipse_14" data-name="Ellipse 14" cx="9.5" cy="10" rx="9.5" ry="10" transform="translate(338 279)"/>
      <ellipse id="Ellipse_15" data-name="Ellipse 15" cx="9.5" cy="10" rx="9.5" ry="10" transform="translate(371 279)"/>
      <circle id="Ellipse_16" data-name="Ellipse 16" cx="8" cy="8" r="8" transform="translate(338 320)"/>
      <circle id="Ellipse_17" data-name="Ellipse 17" cx="8" cy="8" r="8" transform="translate(338 346)"/>
      <ellipse id="Ellipse_18" data-name="Ellipse 18" cx="12.5" cy="13" rx="12.5" ry="13" transform="translate(202 369)"/>
      <rect id="Rectangle_28" data-name="Rectangle 28" width="131" height="17" rx="8.5" transform="translate(148 187)"/>
      <path id="Union_6" data-name="Union 6" d="M18.353,52V33.647H0V18.353H18.353V0H33.647V18.353H52V33.647H33.647V52Z" transform="translate(36 263)"/>
    </g>
    <path id="Exclusion_39" data-name="Exclusion 39" d="M225-940H0v-142H225v142ZM114.164-1070.352a14.28,14.28,0,0,0-5.01.777,47.542,47.542,0,0,0-5.39.8A47.364,47.364,0,0,0,94.7-1065.9a48.034,48.034,0,0,0-8.206,4.548,49.028,49.028,0,0,0-7.15,6.024,49.535,49.535,0,0,0-5.9,7.3,49.679,49.679,0,0,0-4.454,8.379,49.9,49.9,0,0,0-2.815,9.26,50.74,50.74,0,0,0-.981,9.942,50.734,50.734,0,0,0,.981,9.941,49.875,49.875,0,0,0,2.815,9.26,49.683,49.683,0,0,0,4.454,8.38,49.5,49.5,0,0,0,5.9,7.3,48.827,48.827,0,0,0,7.15,6.024,48.1,48.1,0,0,0,8.206,4.549,47.3,47.3,0,0,0,9.068,2.874c.7.146,1.415.279,2.132.394-.227.949-.442,1.98-.638,3.065-.346,1.916-.622,3.915-.8,5.782a38.589,38.589,0,0,0-.2,5.01,10.231,10.231,0,0,0,.209,1.825,1.772,1.772,0,0,0,.47.979,7.912,7.912,0,0,0,2.379.925c1.158.317,2.628.635,4.249.921a60.646,60.646,0,0,0,9.7.99,14.924,14.924,0,0,0,2.531-.176,2.42,2.42,0,0,0,1.388-.579,7.592,7.592,0,0,0,1.177-2.578,33.731,33.731,0,0,0,.911-4.077c.245-1.459.452-3.073.6-4.668.141-1.546.223-3.052.238-4.354a9.553,9.553,0,0,0-.2-2.243,4.02,4.02,0,0,0-.55-1.338,2.528,2.528,0,0,0-.73-.718,47.448,47.448,0,0,0,5.687-2.035,48.054,48.054,0,0,0,8.085-4.465l.122-.084a48.827,48.827,0,0,0,7.15-6.024,49.456,49.456,0,0,0,5.9-7.3,49.652,49.652,0,0,0,4.454-8.38,49.871,49.871,0,0,0,2.815-9.26,50.734,50.734,0,0,0,.981-9.941,50.74,50.74,0,0,0-.981-9.942,49.876,49.876,0,0,0-2.815-9.26,49.64,49.64,0,0,0-4.454-8.379,49.54,49.54,0,0,0-5.9-7.3,48.935,48.935,0,0,0-7.15-6.024,48.064,48.064,0,0,0-8.206-4.548,47.326,47.326,0,0,0-9.068-2.875l-.056-.011-.05-.01-.34-.069.086-.185c-.006,0-1.082-.327-2.705-.652-.934-.188-1.872-.339-2.789-.449A27.184,27.184,0,0,0,114.164-1070.352Zm6.4,113.909a55.326,55.326,0,0,1-6.769-.6c-1.269-.182-2.384-.381-3.226-.577a4.477,4.477,0,0,1-1.709-.616,4.941,4.941,0,0,1-.315-2.619,38.56,38.56,0,0,1,.465-4.661,27.629,27.629,0,0,1,.829-3.752,7.953,7.953,0,0,1,.514-1.3,1.774,1.774,0,0,1,.479-.623.506.506,0,0,1,.076-.045,4.026,4.026,0,0,1,1.6-.212h.085a30.43,30.43,0,0,1,3.407.27c1.008.127,2.094.294,3.141.484a15.752,15.752,0,0,1,4.431,1.175,7.207,7.207,0,0,1,.1,2.779c-.088,1.491-.278,3.342-.519,5.076-.189,1.356-.394,2.529-.592,3.395a3.558,3.558,0,0,1-.625,1.668A3.441,3.441,0,0,1,120.564-956.443ZM112.391-968.5a1.264,1.264,0,0,0-1.255,1.12,1.268,1.268,0,0,0,1.112,1.4l5.349.617-.767,6.355a1.257,1.257,0,0,0,.261.933,1.257,1.257,0,0,0,.844.475,1.239,1.239,0,0,0,.153.009,1.265,1.265,0,0,0,1.255-1.113l.769-6.368.361.042a1.323,1.323,0,0,0,.146.008,1.265,1.265,0,0,0,1.256-1.12,1.266,1.266,0,0,0-1.112-1.4l-.347-.04.035-.292a1.256,1.256,0,0,0-.261-.932,1.257,1.257,0,0,0-.844-.475,1.264,1.264,0,0,0-.153-.009,1.265,1.265,0,0,0-1.254,1.113l-.037.3-5.362-.618A1.266,1.266,0,0,0,112.391-968.5Zm0,4.427a1.26,1.26,0,0,0-.683.2,1.257,1.257,0,0,0-.552.8,1.256,1.256,0,0,0,.172.953l1.423,2.214a1.262,1.262,0,0,0,1.066.581,1.266,1.266,0,0,0,.683-.2,1.267,1.267,0,0,0,.38-1.748l-1.424-2.214A1.259,1.259,0,0,0,112.392-964.075Zm-6.338-14.993h0a33.268,33.268,0,0,1-4.655-1.277,45.892,45.892,0,0,1-4.844-1.974,45.089,45.089,0,0,1-5.655-3.2A39.481,39.481,0,0,1,79.763-996.6a42.311,42.311,0,0,1-6.571-19.01,42.283,42.283,0,0,1,2.417-20.056,40.575,40.575,0,0,1,8.636-13.387,46.845,46.845,0,0,1,4.907-4.429,48.326,48.326,0,0,1,4.369-3.047,35.587,35.587,0,0,1,4.325-2.32l.007,0a11.953,11.953,0,0,0,.669,2.356,14.032,14.032,0,0,0,1.13,2.275,12.742,12.742,0,0,0,1.922,2.411,18.323,18.323,0,0,0,2.745,2.154,33.238,33.238,0,0,0,2.941,1.707c1.534.8,2.816,1.333,3.3,1.527L99.14-1049.7a14.552,14.552,0,0,0-1.291-1.274,13.96,13.96,0,0,0-1.554-1.183,8.934,8.934,0,0,0-1.565-.83,3.894,3.894,0,0,0-1.407-.314c-.045,0-.082,0-.116,0a5.207,5.207,0,0,0-2.07.634,12.218,12.218,0,0,0-1.919,1.263,18.807,18.807,0,0,0-1.956,1.787l-.006.006a26.033,26.033,0,0,0-2.2,2.433c-.75.922-1.483,1.917-2.18,2.957a43.045,43.045,0,0,0-2.4,4.041,41.893,41.893,0,0,0-3.944,11.11,41.216,41.216,0,0,0-.793,6.957,43.375,43.375,0,0,0,.5,7.816c.2,1.334.476,2.664.807,3.952.316,1.231.694,2.453,1.123,3.633a38.457,38.457,0,0,0,2.988,6.349,40.354,40.354,0,0,0,7.528,9.266,43.389,43.389,0,0,0,3.729,3.055c1.042.76,2.107,1.465,3.166,2.1a28.4,28.4,0,0,0,3.014,1.592l0,0a8.665,8.665,0,0,0,.989.425,6.586,6.586,0,0,0,2.126.427,3.366,3.366,0,0,0,.693-.068,3.493,3.493,0,0,0,1.153-.493,5.578,5.578,0,0,0,.908-.74,6.868,6.868,0,0,0,.8-.962l0-.005.1-.223,2.393,1.888a11.947,11.947,0,0,0-1.209,2.412,11.455,11.455,0,0,0-.517,2.616Zm25-3.31h0a5.306,5.306,0,0,0-.111-.533,10.059,10.059,0,0,0-.5-1.469c-.009-.022-.018-.043-.028-.065a11.677,11.677,0,0,0-1.058-1.926,12.522,12.522,0,0,0-1.895-2.194,21.305,21.305,0,0,0-2.695-2.057c-.486-.32-1.024-.653-1.6-.99-.4-.237-.824-.472-1.246-.7-.277-.15-.549-.294-.809-.428l-.009-.005-.015-.008c-1.157-.6-2.046-1-2.29-1.106l-.036-.016-.005,0c.079.022,7.941,2.458,12.292,3.455a5.613,5.613,0,0,0,1.262.142,7,7,0,0,0,2.733-.6,11,11,0,0,0,2.246-1.314,13.893,13.893,0,0,0,2.085-1.911,2.488,2.488,0,0,0,.86.122,4.486,4.486,0,0,0,2.695-.985,11.462,11.462,0,0,0,3.331-4.72c.194-.449.388-.891.56-1.28l.066-.151.024-.055.029-.067,0-.008.049-.112.011-.025.005-.012.005-.012c.684-1.551,1.33-3.016,1.909-4.571a33.259,33.259,0,0,0,1.455-5,35.286,35.286,0,0,0,.68-5.859c0-.1.007-.206.01-.31.013-.446.02-.917.02-1.4a62.511,62.511,0,0,0-.4-6.714,38.243,38.243,0,0,0-10.467-22.822l-.091-.1-.063-.07-.012-.013-.005-.006-.09-.1c-.2-.223-.37-.413-.529-.593-1.546-1.252-2.755-2.19-3.8-2.952-.755-.548-1.448-1.02-2.119-1.44a36.268,36.268,0,0,0-5.191-2.632,7.524,7.524,0,0,0-2.891-.708,3.411,3.411,0,0,0-1.082.163,2.408,2.408,0,0,0-.689.359,1.728,1.728,0,0,0-.47.523,1.409,1.409,0,0,1-.292.031c-.376,0-1.008-.154-1.008-1.188a6.924,6.924,0,0,1,.452-2.38,2.317,2.317,0,0,1,1.218-1.5.529.529,0,0,1,.139-.014,17.552,17.552,0,0,1,4.557,1.2,38.344,38.344,0,0,1,8.438,4.469c5.54,3.873,12.847,11.174,16.2,23.959a53.041,53.041,0,0,1,1.433,11.713,37.336,37.336,0,0,1-1.48,10.473,56.85,56.85,0,0,1-4,9.817,30.22,30.22,0,0,1-4.966,6.955A46.339,46.339,0,0,1,138-986.856a55.715,55.715,0,0,1-4.9,3.32c-1.116.67-1.846,1.053-2.043,1.154l-.007,0Zm-29.281-3.506a3.852,3.852,0,0,1-1.761-.6,27.72,27.72,0,0,1-3.118-1.577,40.527,40.527,0,0,1-6.965-5.072A33.231,33.231,0,0,1,78.8-1015.82a45.386,45.386,0,0,1,4.615-23.972,35.155,35.155,0,0,1,3.857-5.955,19.145,19.145,0,0,1,1.8-1.978,14.216,14.216,0,0,1,1.416-1.511,4.926,4.926,0,0,1,2.805-1.512,1.49,1.49,0,0,1,.507.086,1.452,1.452,0,0,1,1.028.9c.187.683-.395,1.493-.849,2.042a4.707,4.707,0,0,1-.55.439l-.011.008a27.256,27.256,0,0,0-2.977,2.522,26.673,26.673,0,0,0-4.064,5.138,28.877,28.877,0,0,0-1.908,3.716,32.076,32.076,0,0,0-1.544,4.574,37.333,37.333,0,0,0-.967,5.5,46.044,46.044,0,0,0-.182,6.49,38.053,38.053,0,0,0,.974,7.216,34.04,34.04,0,0,0,2.045,6.046,33.039,33.039,0,0,0,5.819,8.84,33.688,33.688,0,0,0,3.036,2.921,32.114,32.114,0,0,0,2.626,2.007,21.422,21.422,0,0,0,2.545,1.529,4.471,4.471,0,0,0,1.847.473,2.2,2.2,0,0,0,1.143-.291,2.235,2.235,0,0,0,.9-1.116,2.547,2.547,0,0,0,.088-2.067,2.166,2.166,0,0,0-.772-.875,2.35,2.35,0,0,0-.481-.248,6.936,6.936,0,0,1-1.272-.4A15.048,15.048,0,0,1,97-997.2c-2.44-1.811-6.046-5.429-9.366-12.38s-2.441-14.464-1.12-19.545a44.571,44.571,0,0,1,2.394-6.816c.675-1.513,1.205-2.46,1.3-2.635l0-.005a3.675,3.675,0,0,1,.616-.65,2.637,2.637,0,0,1,1.645-.65h.049a12.138,12.138,0,0,0,.5,1.62c.129.334.277.679.439,1.023a8.363,8.363,0,0,0-.876.976,16.013,16.013,0,0,0-1.969,3.357,24.47,24.47,0,0,0-1.737,6.082,38.39,38.39,0,0,0-.242,9.207,22.658,22.658,0,0,0,1.027,5.083,23.486,23.486,0,0,0,1.939,4.357,27.944,27.944,0,0,0,5.32,6.594,33.421,33.421,0,0,0,2.734,2.268c.761.566,1.552,1.1,2.354,1.6a24.249,24.249,0,0,0,2.266,1.261l0,0a4.578,4.578,0,0,1,.727.4,2.944,2.944,0,0,1,1.063,1.14,2.167,2.167,0,0,1,.15.5,7.841,7.841,0,0,0-.032.893c0,.138.011.276.022.408a5.144,5.144,0,0,1-.139.634l-2.335,5.214a4.2,4.2,0,0,1-.475.6,2.434,2.434,0,0,1-1.175.745A1.562,1.562,0,0,1,101.771-985.884Zm38.015-10.871a.682.682,0,0,1-.449-.147,1.348,1.348,0,0,1-.432-1c0-.031,0-.064,0-.1a2.594,2.594,0,0,1,.2-.959,3.119,3.119,0,0,1,.683-1.026,14.267,14.267,0,0,0,1.734-2.666c.368-.681.726-1.413,1.062-2.175a35.183,35.183,0,0,0,1.455-3.929c.018-.058.036-.118.053-.177a36.8,36.8,0,0,0,1.5-8.8c.026-.553.04-1.117.041-1.678,0-1.235-.056-2.485-.176-3.715a39.645,39.645,0,0,0-1.032-5.9c-.229-.9-.5-1.8-.8-2.66-.291-.841-.619-1.677-.976-2.484a31.51,31.51,0,0,0-2.357-4.359,32.877,32.877,0,0,0-5.632-6.567,37.514,37.514,0,0,0-9.077-5.985l-.01-.005-.009,0-.026-.012c-.259-.125-.447-.215-.518-.264a1.417,1.417,0,0,1-.647-1.045c0-.03,0-.06,0-.1a1.069,1.069,0,0,1,.329-.79,1.84,1.84,0,0,1,1.307-.5,2.747,2.747,0,0,1,.708.1,19.6,19.6,0,0,1,2.938,1.4,38.1,38.1,0,0,1,5.977,4.155,36.137,36.137,0,0,1,6.6,7.321,33.505,33.505,0,0,1,4.811,10.9,41.078,41.078,0,0,1,1.156,9.69,43.307,43.307,0,0,1-2.3,13.79,41.551,41.551,0,0,1-3.478,7.742l0,.005-.009.015-.044.075-.015.026-.011.019a4.393,4.393,0,0,1-1.143,1.2A2.65,2.65,0,0,1,139.786-996.755Zm-36.06-3.021h0c-.1-.055-.2-.109-.294-.165A23.743,23.743,0,0,1,99.257-1003a21.762,21.762,0,0,1-7.027-14.125c-.891-9.027.319-11.451,1.489-13.8l3.461,3.522a41.232,41.232,0,0,0-.709,5.182,34.493,34.493,0,0,0-.038,4.874,19.561,19.561,0,0,0,.926,4.971,15.833,15.833,0,0,0,2.2,4.161,21.183,21.183,0,0,0,2.765,3.092,22.248,22.248,0,0,0,3.369,2.589l-1.966,2.75Zm35.426-4.989-4.515-5.327c.157-.393,3.824-9.692,1.27-18.064a22.863,22.863,0,0,0-6.013-9.572,22.807,22.807,0,0,0-4.063-3.184l-.006.011a10.114,10.114,0,0,0,.422-1.031c.042-.122.083-.249.121-.379l.009,0a23.4,23.4,0,0,1,4.324,3.446,26.983,26.983,0,0,1,3.564,4.345,25.015,25.015,0,0,1,2.948,6.177,24.8,24.8,0,0,1,1.094,7.137,34.083,34.083,0,0,1-.542,6.393,35.289,35.289,0,0,1-1.717,6.37l1.311,1.543a30.924,30.924,0,0,0,2.007-6.519,31.426,31.426,0,0,0-.48-14.923,27.629,27.629,0,0,0-7.2-11.935,22.824,22.824,0,0,0-4.936-3.75c.078-.482.138-.986.179-1.5.059-.731.068-1.318.068-1.6,0-.1,0-.172,0-.192.158.075.587.291,1.192.649.256.152.5.3.733.453.211.135.429.28.648.429.459.314.923.652,1.38,1.005a30.38,30.38,0,0,1,2.4,2.074,28.883,28.883,0,0,1,4.92,6.218,28.1,28.1,0,0,1,3.4,9.229,45.047,45.047,0,0,1,.743,8.008c0,.536-.011,1.075-.032,1.6-.047,1.144-.144,2.278-.289,3.371a33.267,33.267,0,0,1-.7,3.686,26.256,26.256,0,0,1-1.478,4.348,13.19,13.19,0,0,1-.76,1.481Zm-24.3-5.432a6.377,6.377,0,0,1-5.93-3.609,15.5,15.5,0,0,1-1.54-7.044v-.117c0-.018,0-.035,0-.053s0-.037,0-.055v-.005c0-.035,0-.069,0-.1v-.01c0-.036,0-.071,0-.106v-.005l0-.07v-.038a14.843,14.843,0,0,1,.358-2.854,9.876,9.876,0,0,1,1.132-2.893l.008-.013.013-.021.005-.008.006-.009.007-.012.007-.012.009-.014.009-.014,0-.008,0-.008.012-.019.017-.026a6.528,6.528,0,0,1,5.869-3.038,6.159,6.159,0,0,1,5.7,3.129,12.98,12.98,0,0,1,1.429,6.213c0,.058,0,.114,0,.17v.1c0,.014,0,.03,0,.045v.021a16.625,16.625,0,0,1-1.339,6.729l-.015.031-.014.028A6.073,6.073,0,0,1,114.854-1010.2Zm18.473-1.441h0l-1.315-1.551s.024-.072.065-.211l0-.006a.051.051,0,0,1,0-.011h0v0q.075-.26.146-.541a23.1,23.1,0,0,0,.541-3.15,26.822,26.822,0,0,0,.14-2.7c0-.542-.015-1.092-.046-1.635a27.781,27.781,0,0,0-.852-5.4,17.661,17.661,0,0,0-2.151-4.969,18.08,18.08,0,0,0-2.762-3.38,17.676,17.676,0,0,0-2.382-1.928l-.038-.025a10.413,10.413,0,0,0-.974-.586l.019-.023c.076-.084.253-.28.487-.574.151-.188.3-.391.455-.6.105-.148.209-.3.307-.449l-.027.048.006,0a18.282,18.282,0,0,1,3.475,2.648,21.724,21.724,0,0,1,5.535,8.533c2.676,7.666-.5,16.158-.634,16.516Z" transform="translate(102 1299)"/>
  </g>
</svg>
