<svg xmlns="http://www.w3.org/2000/svg" xmlns:xlink="http://www.w3.org/1999/xlink" width="500" height="500" viewBox="0 0 500 500">
  <defs>
    <clipPath id="clip-EMU_icon">
      <rect width="500" height="500"/>
    </clipPath>
  </defs>
  <g id="EMU_icon" data-name="EMU icon" clip-path="url(#clip-EMU_icon)">
    <rect id="Rectangle_19" data-name="Rectangle 19" width="137.046" height="7.25" rx="3.625" transform="translate(415.875 250) rotate(90)" fill="#bebebe"/>
    <rect id="Rectangle_16" data-name="Rectangle 16" width="137.046" height="32" rx="16" transform="translate(266 250) rotate(90)" fill="#bebebe"/>
    <rect id="Rectangle_1" data-name="Rectangle 1" width="423" height="277" rx="10" transform="translate(39 14)" fill="#cdcdcd"/>
    <rect id="Rectangle_20" data-name="Rectangle 20" width="184" height="212" transform="translate(160 52)" fill="#fff"/>
    <path id="Exclusion_19" data-name="Exclusion 19" d="M382-838H8a8.009,8.009,0,0,1-8-8v-228a8.009,8.009,0,0,1,8-8H382a8.009,8.009,0,0,1,8,8v228A8.009,8.009,0,0,1,382-838ZM196.14-1061.986a24.526,24.526,0,0,0-8.608,1.335,81.887,81.887,0,0,0-9.26,1.382,81.417,81.417,0,0,0-15.58,4.939,82.506,82.506,0,0,0-14.1,7.816,83.99,83.99,0,0,0-12.285,10.351,85,85,0,0,0-10.135,12.545,85.419,85.419,0,0,0-7.653,14.4,85.7,85.7,0,0,0-4.837,15.912A87.134,87.134,0,0,0,112-976.225a87.153,87.153,0,0,0,1.686,17.084,85.78,85.78,0,0,0,4.837,15.911,85.371,85.371,0,0,0,7.653,14.4,85.059,85.059,0,0,0,10.135,12.546,83.94,83.94,0,0,0,12.285,10.35,82.423,82.423,0,0,0,14.1,7.816,81.273,81.273,0,0,0,15.58,4.939c1.2.251,2.435.479,3.663.678-.383,1.595-.752,3.366-1.1,5.267-.593,3.285-1.068,6.721-1.373,9.935a66.219,66.219,0,0,0-.344,8.609,17.644,17.644,0,0,0,.359,3.136,3.043,3.043,0,0,0,.805,1.684,13.579,13.579,0,0,0,4.087,1.589c1.981.543,4.506,1.09,7.3,1.583a104.372,104.372,0,0,0,16.658,1.7,25.5,25.5,0,0,0,4.348-.3,4.153,4.153,0,0,0,2.385-.994,13.082,13.082,0,0,0,2.023-4.431,58.417,58.417,0,0,0,1.565-7.006c.419-2.486.774-5.26,1.026-8.022.242-2.661.383-5.247.409-7.481a16.453,16.453,0,0,0-.352-3.856,6.9,6.9,0,0,0-.945-2.3,4.319,4.319,0,0,0-1.252-1.233,81.647,81.647,0,0,0,9.77-3.5,82.328,82.328,0,0,0,8.228-4.119c2-1.146,3.978-2.39,5.87-3.7a83.978,83.978,0,0,0,12.284-10.35,85,85,0,0,0,10.135-12.545,85.18,85.18,0,0,0,7.653-14.4,85.716,85.716,0,0,0,4.837-15.911A87.217,87.217,0,0,0,278-976.225a87.212,87.212,0,0,0-1.685-17.083,85.7,85.7,0,0,0-4.837-15.912c-.68-1.642-1.418-3.278-2.2-4.864l0-.009,0-.009,0,0a85.345,85.345,0,0,0-5.446-9.512,85.035,85.035,0,0,0-10.135-12.545,83.886,83.886,0,0,0-11.873-10.065l-.411-.285a82.915,82.915,0,0,0-9.207-5.507c-1.6-.822-3.249-1.6-4.891-2.308l-.471-.2a81.361,81.361,0,0,0-15.11-4.738c-.277-.058-.527-.109-.764-.156l.148-.317c-.018,0-1.849-.56-4.648-1.122-1.618-.324-3.23-.584-4.792-.771A47.008,47.008,0,0,0,196.14-1061.986Zm11,195.729a95.19,95.19,0,0,1-11.629-1.024c-2.186-.314-4.1-.657-5.542-.993a7.66,7.66,0,0,1-2.936-1.057c-.42-.42-.612-2.018-.542-4.5a66.221,66.221,0,0,1,.8-8.01,47.536,47.536,0,0,1,1.424-6.447,13.816,13.816,0,0,1,.883-2.236,3.055,3.055,0,0,1,.817-1.065,1.2,1.2,0,0,1,.136-.083,2.1,2.1,0,0,1,.381-.142,9.458,9.458,0,0,1,2.366-.222,50.8,50.8,0,0,1,6,.464c1.724.217,3.59.5,5.4.833,4.15.752,7.209,1.564,7.612,2.019.276.31.338,2.007.175,4.776-.15,2.548-.475,5.728-.892,8.723-.322,2.316-.675,4.333-1.019,5.833-.389,1.7-.749,2.659-1.072,2.866A5.924,5.924,0,0,1,207.136-866.256ZM193.1-886.976a2.171,2.171,0,0,0-2.157,1.925,2.157,2.157,0,0,0,.455,1.6,2.159,2.159,0,0,0,1.454.809l9.191,1.06-1.318,10.919a2.159,2.159,0,0,0,.448,1.6,2.157,2.157,0,0,0,1.449.816,2.169,2.169,0,0,0,.263.016,2.174,2.174,0,0,0,2.156-1.913l1.32-10.942.62.072a2.169,2.169,0,0,0,.251.014,2.171,2.171,0,0,0,2.156-1.924,2.158,2.158,0,0,0-.457-1.6,2.159,2.159,0,0,0-1.453-.809l-.6-.069.06-.5a2.159,2.159,0,0,0-.447-1.6,2.157,2.157,0,0,0-1.45-.815,2.2,2.2,0,0,0-.263-.016,2.174,2.174,0,0,0-2.155,1.913l-.063.522-9.212-1.063A2.207,2.207,0,0,0,193.1-886.976Zm0,7.607a2.168,2.168,0,0,0-1.173.345,2.176,2.176,0,0,0-.653,3l2.444,3.8a2.168,2.168,0,0,0,1.831,1,2.168,2.168,0,0,0,1.173-.346,2.176,2.176,0,0,0,.652-3l-2.444-3.8A2.168,2.168,0,0,0,193.1-879.369Zm-10.888-25.762a57.919,57.919,0,0,1-8-2.194,79.238,79.238,0,0,1-8.322-3.391,77.413,77.413,0,0,1-9.715-5.5,67.824,67.824,0,0,1-19.133-19.047,72.717,72.717,0,0,1-11.29-32.665,72.65,72.65,0,0,1,4.153-34.462,69.682,69.682,0,0,1,14.837-23,80.376,80.376,0,0,1,8.429-7.61,82.667,82.667,0,0,1,7.505-5.234,61.684,61.684,0,0,1,7.443-3.991,20.151,20.151,0,0,0,1.149,4.047,23.964,23.964,0,0,0,1.942,3.91,21.832,21.832,0,0,0,3.3,4.144,31.538,31.538,0,0,0,4.716,3.7,57.525,57.525,0,0,0,5.053,2.933c2.86,1.483,5.212,2.443,5.654,2.62l-19.6-5.624a24.773,24.773,0,0,0-2.216-2.189,23.937,23.937,0,0,0-2.671-2.033,15.355,15.355,0,0,0-2.689-1.427,6.708,6.708,0,0,0-2.416-.539c-.068,0-.135,0-.2.005a8.955,8.955,0,0,0-3.557,1.092,20.857,20.857,0,0,0-3.3,2.169,31.933,31.933,0,0,0-3.368,3.078,46.011,46.011,0,0,0-3.775,4.184c-1.289,1.586-2.549,3.3-3.745,5.08a73.947,73.947,0,0,0-4.12,6.944,72.065,72.065,0,0,0-6.776,19.092,70.987,70.987,0,0,0-1.361,11.954,74.535,74.535,0,0,0,.853,13.431c.353,2.3.82,4.581,1.389,6.79.542,2.113,1.19,4.213,1.928,6.244a66.168,66.168,0,0,0,5.135,10.909,69.334,69.334,0,0,0,12.933,15.92,74.082,74.082,0,0,0,6.407,5.25c1.783,1.3,3.613,2.513,5.439,3.6a47.282,47.282,0,0,0,5.187,2.738,14.466,14.466,0,0,0,1.7.733,11.308,11.308,0,0,0,3.651.733,5.731,5.731,0,0,0,1.192-.118,6,6,0,0,0,1.98-.847,9.572,9.572,0,0,0,1.56-1.272,11.46,11.46,0,0,0,1.388-1.662l.179-.385,4.111,3.245a20.615,20.615,0,0,0-2.077,4.145,19.391,19.391,0,0,0-.886,4.5Zm42.947-5.689h0a14.684,14.684,0,0,0-1.045-3.44,20.243,20.243,0,0,0-1.865-3.421,21.494,21.494,0,0,0-3.255-3.77c-.163-.15-.33-.3-.5-.446a38.683,38.683,0,0,0-4.131-3.089c-1.465-.964-3.109-1.941-4.887-2.9-3.046-1.649-5.415-2.679-5.438-2.688.118.035,11.822,3.66,19.5,5.551.563.138,1.06.257,1.519.363l.015,0,.011,0,.033.008.009,0,.033.008.026.006.009,0,.032.007a9.661,9.661,0,0,0,2.1.229,12.021,12.021,0,0,0,4.7-1.025,16.742,16.742,0,0,0,1.689-.837,20.52,20.52,0,0,0,2.171-1.42l.011-.008.038-.029.007-.005.014-.011.006,0,.02-.015.007-.005a23.769,23.769,0,0,0,3.449-3.172l.029-.033a4.422,4.422,0,0,0,1.477.209,7.706,7.706,0,0,0,4.63-1.692c2.173-1.626,4.1-4.356,5.722-8.112.408-.941.8-1.838,1.151-2.629l.02-.046,0-.006.084-.192.02-.044.009-.019.013-.03c1.032-2.339,2.006-4.549,2.9-6.851l.012-.03.019-.05.056-.145.005-.014,0-.008.065-.17.02-.052.01-.026q.095-.248.187-.5a57,57,0,0,0,2.5-8.586,61.022,61.022,0,0,0,1.185-10.6c.023-.787.035-1.6.035-2.4A107.962,107.962,0,0,0,258.9-984.5c-2.358-21.79-12.7-33.317-18.249-39.51l-.02-.022-.009-.01c-.462-.516-.781-.873-1.064-1.193a105.512,105.512,0,0,0-10.174-7.546,62.1,62.1,0,0,0-8.919-4.523,12.922,12.922,0,0,0-4.966-1.217,5.846,5.846,0,0,0-1.859.281,4.1,4.1,0,0,0-1.184.617,2.992,2.992,0,0,0-.795.877l0,.008a.084.084,0,0,1-.008.014,2.306,2.306,0,0,1-.485.053h-.017c-.647,0-1.732-.265-1.732-2.041a11.915,11.915,0,0,1,.775-4.09,3.982,3.982,0,0,1,2.092-2.57.916.916,0,0,1,.239-.023,30.2,30.2,0,0,1,7.829,2.063,65.951,65.951,0,0,1,14.5,7.68c9.518,6.657,22.072,19.2,27.826,41.169a91.135,91.135,0,0,1,2.461,20.126,64.174,64.174,0,0,1-2.543,18,97.67,97.67,0,0,1-6.873,16.868,51.935,51.935,0,0,1-8.531,11.953,74.781,74.781,0,0,1-5.723,5.49c-1.388,1.2-2.857,2.39-4.369,3.536a95.711,95.711,0,0,1-8.42,5.705c-2.2,1.323-3.51,1.982-3.522,1.988Zm-50.306-6.025a6.6,6.6,0,0,1-3.026-1.027,49.051,49.051,0,0,1-5.358-2.71A69.672,69.672,0,0,1,154.5-929.3a57.1,57.1,0,0,1-19.114-38.984c-1.233-18.982,3.632-32.878,7.931-41.192a60.357,60.357,0,0,1,6.627-10.233,33.665,33.665,0,0,1,3.091-3.4l.005-.006a24.337,24.337,0,0,1,2.43-2.593c1.29-1.185,3.174-2.6,4.82-2.6a2.562,2.562,0,0,1,.87.147,2.5,2.5,0,0,1,1.765,1.539c.323,1.178-.677,2.566-1.458,3.508a7.937,7.937,0,0,1-.944.756,46.783,46.783,0,0,0-5.135,4.347,45.907,45.907,0,0,0-6.983,8.827,49.722,49.722,0,0,0-3.278,6.387,55.069,55.069,0,0,0-2.652,7.858,64.469,64.469,0,0,0-1.663,9.446,79.115,79.115,0,0,0-.311,11.151,65.31,65.31,0,0,0,1.673,12.4,58.477,58.477,0,0,0,3.512,10.39,56.8,56.8,0,0,0,10,15.189,58.043,58.043,0,0,0,5.215,5.019,55.2,55.2,0,0,0,4.513,3.449,36.338,36.338,0,0,0,4.372,2.627,7.789,7.789,0,0,0,3.173.812,3.771,3.771,0,0,0,1.965-.5,3.838,3.838,0,0,0,1.55-1.917,4.377,4.377,0,0,0,.15-3.552,3.7,3.7,0,0,0-1.327-1.5,3.844,3.844,0,0,0-.831-.427,11.73,11.73,0,0,1-2.182-.688,25.8,25.8,0,0,1-5.629-3.245c-4.192-3.113-10.387-9.331-16.092-21.272s-4.194-24.858-1.922-33.586a76.7,76.7,0,0,1,4.112-11.711c1.15-2.577,2.067-4.221,2.239-4.524l.006-.011a6.346,6.346,0,0,1,1.059-1.117,4.531,4.531,0,0,1,2.827-1.117h.085a20.5,20.5,0,0,0,.865,2.784c.223.574.477,1.166.756,1.759a14.373,14.373,0,0,0-1.506,1.677,27.462,27.462,0,0,0-3.383,5.768,42.092,42.092,0,0,0-2.984,10.451,65.977,65.977,0,0,0-.416,15.82,38.829,38.829,0,0,0,1.766,8.735,40.118,40.118,0,0,0,3.329,7.486,47.976,47.976,0,0,0,9.139,11.332,57.448,57.448,0,0,0,4.7,3.9c1.323.983,2.684,1.909,4.044,2.751a40.584,40.584,0,0,0,3.9,2.17,7.755,7.755,0,0,1,1.252.681,5.063,5.063,0,0,1,1.826,1.96,3.641,3.641,0,0,1,.257.854,14.019,14.019,0,0,0-.056,1.535c.006.237.019.472.038.7a8.571,8.571,0,0,1-.239,1.089l-4.012,8.959a7.311,7.311,0,0,1-.815,1.03,4.19,4.19,0,0,1-2.02,1.281A2.7,2.7,0,0,1,174.849-916.844Zm65.312-18.68a1.174,1.174,0,0,1-.772-.251,2.32,2.32,0,0,1-.742-1.718c0-.054,0-.109,0-.164a4.494,4.494,0,0,1,.338-1.648,5.37,5.37,0,0,1,1.063-1.648c.036-.039.074-.077.111-.115l.011-.011c.026-.026.055-.057.086-.09l.021-.024.035-.041.006-.007.006-.007.014-.016a28.264,28.264,0,0,0,2.8-4.386,57.687,57.687,0,0,0,4.325-10.489,63.17,63.17,0,0,0,2.588-14.125v-.019c.007-.1.013-.2.019-.3,0,0,0-.007,0-.011v-.011c0-.035,0-.07.006-.106v-.021q0-.063.008-.127.016-.282.031-.564c0-.024,0-.048,0-.072v-.012c0-.02,0-.041,0-.061.047-.993.071-2.012.071-3.029,0-2.074-.1-4.173-.3-6.238a68.071,68.071,0,0,0-1.774-10.139c-.417-1.648-.914-3.294-1.478-4.891l0-.013-.006-.018-.011-.029,0-.01c-.467-1.32-.986-2.625-1.541-3.879-.619-1.4-1.31-2.8-2.054-4.15-.625-1.138-1.3-2.261-2-3.339a56.516,56.516,0,0,0-9.677-11.284c-.843-.758-1.731-1.512-2.64-2.24a65.008,65.008,0,0,0-12.953-8.042l-.019-.009-.005,0-.011,0-.044-.021c-.463-.223-.77-.37-.891-.453a2.439,2.439,0,0,1-1.111-1.8c0-.066-.006-.117-.006-.165a1.84,1.84,0,0,1,.566-1.357,3.162,3.162,0,0,1,2.245-.863,4.736,4.736,0,0,1,1.217.17h.005a33.737,33.737,0,0,1,5.041,2.41,65.481,65.481,0,0,1,10.269,7.141c1.3,1.1,2.57,2.266,3.771,3.459l0,0,.007.007.151.15.009.009.017.017.01.01.02.02.08.081.08.081a61,61,0,0,1,7.193,8.743,57.547,57.547,0,0,1,8.149,18.255q.059.235.116.472a70.535,70.535,0,0,1,1.986,16.652,74.41,74.41,0,0,1-3.948,23.695,71.48,71.48,0,0,1-5.976,13.3l-.005.009-.017.028c-.022.038-.041.071-.059.1l-.017.029-.025.042a6.248,6.248,0,0,1-.992,1.25,8.574,8.574,0,0,1-.991.851A4.551,4.551,0,0,1,240.161-935.524Zm-61.954-5.191h0c-.17-.094-.34-.189-.505-.284a40.716,40.716,0,0,1-7.171-5.251,37.388,37.388,0,0,1-12.073-24.271c-.686-6.953-.712-12.023-.08-15.956a24.234,24.234,0,0,1,2.637-7.747l5.944,6.05a69.138,69.138,0,0,0-1.217,8.9,59.081,59.081,0,0,0-.066,8.374,33.683,33.683,0,0,0,1.59,8.542,27.3,27.3,0,0,0,3.78,7.15,36.64,36.64,0,0,0,4.751,5.313,37.761,37.761,0,0,0,5.788,4.45l-3.378,4.725Zm60.863-8.572-7.756-9.154c.27-.675,6.563-16.676,2.181-31.039a39.283,39.283,0,0,0-10.33-16.447,39.1,39.1,0,0,0-6.981-5.47l-.014.025a17.213,17.213,0,0,0,.729-1.779c.071-.2.14-.418.21-.653h0l.005,0a40.3,40.3,0,0,1,7.45,5.94,46.368,46.368,0,0,1,6.117,7.464,42.993,42.993,0,0,1,5.06,10.605,42.622,42.622,0,0,1,1.878,12.263,58.585,58.585,0,0,1-.932,10.985,60.646,60.646,0,0,1-2.949,10.945l2.253,2.652a53.533,53.533,0,0,0,3.449-11.2,54.013,54.013,0,0,0-.824-25.643,47.468,47.468,0,0,0-12.359-20.5,39.422,39.422,0,0,0-8.49-6.452c.133-.824.236-1.692.308-2.58.1-1.254.116-2.264.116-2.754,0-.122,0-.237,0-.331l.009,0a32.693,32.693,0,0,1,3.3,1.89c.709.455,1.432.948,2.149,1.466.462.335.911.672,1.335,1l.268.209c1.337,1.05,2.635,2.18,3.859,3.356a49.568,49.568,0,0,1,8.455,10.685,48.3,48.3,0,0,1,5.836,15.857,77.292,77.292,0,0,1,1.277,13.759c0,.936-.019,1.862-.056,2.752a60.136,60.136,0,0,1-1.7,12.126,45.231,45.231,0,0,1-2.539,7.471c-.278.62-.563,1.205-.849,1.741s-.456.8-.457.805v0Zm-41.746-9.336a10.958,10.958,0,0,1-10.189-6.2c-2.3-4.235-2.643-9.4-2.644-12.1,0-.015,0-.03,0-.044v-.007c0-.012,0-.025,0-.037v-.118c0-.011,0-.022,0-.032v-.005c0-.009,0-.018,0-.027v-.035c0-.012,0-.024,0-.036v-.006c0-.01,0-.02,0-.029s0-.015,0-.023,0-.017,0-.024v-.034c0-.019,0-.038,0-.057,0,0,0-.007,0-.011s0-.008,0-.011c.007-.4.021-.787.043-1.164,0,0,0-.005,0-.008s0-.007,0-.01l0-.047c0-.018,0-.034,0-.049s0-.02,0-.03a24.907,24.907,0,0,1,.572-4.03,16.839,16.839,0,0,1,2.031-5.108l0-.006,0-.006.023-.038.012-.019.046-.073c2.219-3.464,5.611-5.221,10.083-5.221,4.415,0,7.709,1.809,9.79,5.378a21.844,21.844,0,0,1,2.446,10.057v.012a.234.234,0,0,0,0,.025c0,.028,0,.056,0,.084v.018q0,.052,0,.1c0,.218.006.436.006.668v.126c-.01,2.66-.328,7.734-2.352,11.821a12.362,12.362,0,0,1-2.972,3.955A10.306,10.306,0,0,1,197.325-958.622Zm31.738-2.475h0l-2.261-2.667c0-.008.014-.04.032-.1.069-.219.252-.828.464-1.742q.051-.227.11-.491a40.618,40.618,0,0,0,.7-4.41,46.03,46.03,0,0,0,.241-4.751c0-.893-.026-1.8-.078-2.694a47.733,47.733,0,0,0-1.465-9.283,30.582,30.582,0,0,0-1.7-4.823,30.27,30.27,0,0,0-2-3.716,31.09,31.09,0,0,0-4.746-5.809,30.3,30.3,0,0,0-4.093-3.313c-.188-.127-.382-.253-.592-.384-.642-.4-1.067-.625-1.146-.666a.184.184,0,0,1,.028-.033,22.435,22.435,0,0,0,1.623-2.026c.174-.243.35-.5.523-.765l-.043.076.006,0a31.441,31.441,0,0,1,5.976,4.552,37.733,37.733,0,0,1,5.1,5.974,36.669,36.669,0,0,1,4.4,8.689c4.606,13.2-.854,27.767-1.088,28.381Z" transform="translate(55 1113)"/>
    <rect id="Rectangle_17" data-name="Rectangle 17" width="110.494" height="311" rx="23" transform="translate(366.5 365) rotate(90)" fill="#cdcdcd"/>
    <rect id="Rectangle_18" data-name="Rectangle 18" width="92.196" height="65.5" rx="23" transform="translate(445 374.149) rotate(90)" fill="#cdcdcd"/>
  </g>
</svg>
