<svg xmlns="http://www.w3.org/2000/svg" xmlns:xlink="http://www.w3.org/1999/xlink" width="500" height="500" viewBox="0 0 500 500">
  <defs>
    <clipPath id="clip-Mobile_Icon">
      <rect width="500" height="500"/>
    </clipPath>
  </defs>
  <g id="Mobile_Icon" data-name="Mobile Icon" clip-path="url(#clip-Mobile_Icon)">
    <rect id="Rectangle_1" data-name="Rectangle 1" width="245" height="470" rx="21" transform="translate(128 15)" fill="#cdcdcd"/>
    <circle id="Ellipse_9" data-name="Ellipse 9" cx="7.5" cy="7.5" r="7.5" transform="translate(243 22)"/>
    <path id="Exclusion_21" data-name="Exclusion 21" d="M186-122H21a20.862,20.862,0,0,1-14.849-6.151A20.862,20.862,0,0,1,0-143V-520a20.862,20.862,0,0,1,6.151-14.849A20.862,20.862,0,0,1,21-541H186a20.862,20.862,0,0,1,14.849,6.151A20.862,20.862,0,0,1,207-520v377a20.862,20.862,0,0,1-6.151,14.849A20.862,20.862,0,0,1,186-122ZM101.936-421.764a20.122,20.122,0,0,0-7.061,1.094,67.14,67.14,0,0,0-7.6,1.134,66.839,66.839,0,0,0-12.782,4.053,67.826,67.826,0,0,0-11.567,6.412,69.017,69.017,0,0,0-10.077,8.492,69.762,69.762,0,0,0-8.315,10.292,70,70,0,0,0-6.278,11.812,70.237,70.237,0,0,0-3.968,13.055,71.458,71.458,0,0,0-1.383,14.015,71.471,71.471,0,0,0,1.383,14.015,70.237,70.237,0,0,0,3.968,13.054,70.106,70.106,0,0,0,6.278,11.813,69.821,69.821,0,0,0,8.315,10.291,68.887,68.887,0,0,0,10.077,8.491,67.751,67.751,0,0,0,11.567,6.413,66.832,66.832,0,0,0,12.782,4.052c.993.207,2,.394,3.005.555-.316,1.317-.619,2.77-.9,4.32-.485,2.688-.875,5.507-1.127,8.152a54.376,54.376,0,0,0-.283,7.063,14.511,14.511,0,0,0,.3,2.572,2.508,2.508,0,0,0,.661,1.381,11.144,11.144,0,0,0,3.353,1.3c1.629.446,3.7.9,5.989,1.3a85.5,85.5,0,0,0,13.667,1.395,20.906,20.906,0,0,0,3.566-.248,3.414,3.414,0,0,0,1.957-.815,10.762,10.762,0,0,0,1.66-3.637,47.75,47.75,0,0,0,1.283-5.746c.346-2.059.637-4.335.842-6.581.2-2.183.315-4.3.336-6.137a13.438,13.438,0,0,0-.289-3.163,5.658,5.658,0,0,0-.775-1.886,3.539,3.539,0,0,0-1.027-1.012,67,67,0,0,0,8.014-2.869,67.564,67.564,0,0,0,11.566-6.413,68.894,68.894,0,0,0,10.078-8.491,69.731,69.731,0,0,0,8.314-10.291,70.018,70.018,0,0,0,6.278-11.813c.455-1.1.888-2.224,1.288-3.352a70.456,70.456,0,0,0,2.68-9.7,71.469,71.469,0,0,0,1.383-14.015,71.457,71.457,0,0,0-1.383-14.015,70.3,70.3,0,0,0-3.968-13.055c-.195-.47-.4-.947-.6-1.417a70.025,70.025,0,0,0-5.674-10.4c-.094-.144-.188-.284-.268-.4-.091-.136-.182-.271-.274-.406l-.029-.042-.043-.064a69.748,69.748,0,0,0-7.7-9.377l-.141-.145a68.791,68.791,0,0,0-9.937-8.348,67.716,67.716,0,0,0-11.566-6.412,66.8,66.8,0,0,0-12.782-4.053l-.627-.128.122-.259c-.063-.018-1.585-.473-3.814-.921-1.346-.27-2.669-.483-3.931-.633A38.489,38.489,0,0,0,101.936-421.764Zm9.021,160.576a78.223,78.223,0,0,1-9.54-.841c-1.808-.261-3.38-.542-4.548-.814a6.325,6.325,0,0,1-2.408-.868c-.345-.345-.5-1.656-.444-3.693a54,54,0,0,1,.656-6.57,38.817,38.817,0,0,1,1.168-5.289,11.119,11.119,0,0,1,.724-1.833,2.517,2.517,0,0,1,.67-.874.947.947,0,0,1,.112-.069,5.715,5.715,0,0,1,2.254-.3h.067c.937,0,2.117.078,3.508.223.31.033.566.062.8.091,1.584.187,3.3.447,4.97.75,3.4.616,5.914,1.282,6.245,1.656.226.255.277,1.646.143,3.918-.124,2.1-.391,4.708-.732,7.157-.263,1.894-.552,3.549-.835,4.784a5.026,5.026,0,0,1-.879,2.353A4.864,4.864,0,0,1,110.957-261.188Zm-11.52-17a1.781,1.781,0,0,0-1.768,1.579,1.785,1.785,0,0,0,1.567,1.976l7.539.87-1.081,8.959a1.771,1.771,0,0,0,.367,1.314,1.77,1.77,0,0,0,1.189.669,1.738,1.738,0,0,0,.216.013,1.785,1.785,0,0,0,1.768-1.57l1.084-8.976.508.059a1.8,1.8,0,0,0,.207.013,1.781,1.781,0,0,0,1.769-1.579,1.786,1.786,0,0,0-1.567-1.976l-.489-.056.049-.41a1.785,1.785,0,0,0-1.556-1.984,1.811,1.811,0,0,0-.216-.013,1.784,1.784,0,0,0-1.769,1.57l-.051.428-7.558-.872A1.824,1.824,0,0,0,99.436-278.187Zm0,6.241a1.777,1.777,0,0,0-.963.284,1.771,1.771,0,0,0-.778,1.121,1.771,1.771,0,0,0,.243,1.343l2.006,3.12a1.777,1.777,0,0,0,1.5.819,1.774,1.774,0,0,0,.962-.283,1.787,1.787,0,0,0,.536-2.465l-2.006-3.12A1.778,1.778,0,0,0,99.438-271.946ZM90.5-293.081h0a47.875,47.875,0,0,1-6.559-1.8,64.7,64.7,0,0,1-6.827-2.784,63.489,63.489,0,0,1-7.97-4.509,55.693,55.693,0,0,1-15.7-15.627,59.66,59.66,0,0,1-9.262-26.8,59.607,59.607,0,0,1,3.406-28.273,57.158,57.158,0,0,1,12.173-18.87,65.91,65.91,0,0,1,6.916-6.244,67.542,67.542,0,0,1,6.157-4.294,50.086,50.086,0,0,1,6.106-3.275,16.782,16.782,0,0,0,.943,3.321,19.709,19.709,0,0,0,1.593,3.207,17.973,17.973,0,0,0,2.709,3.4,25.791,25.791,0,0,0,3.87,3.035,46.7,46.7,0,0,0,4.145,2.407c2.372,1.23,4.282,2.007,4.641,2.15l-16.087-4.615a20.323,20.323,0,0,0-1.818-1.8,19.785,19.785,0,0,0-2.191-1.669,12.657,12.657,0,0,0-2.206-1.169,5.5,5.5,0,0,0-1.982-.442c-.062,0-.116,0-.164,0a7.361,7.361,0,0,0-2.918.9,17.046,17.046,0,0,0-2.7,1.78,25.956,25.956,0,0,0-2.764,2.527,38.117,38.117,0,0,0-3.1,3.43c-1.06,1.306-2.093,2.708-3.072,4.168a60.522,60.522,0,0,0-3.379,5.7,59.079,59.079,0,0,0-5.559,15.663,58.185,58.185,0,0,0-1.117,9.807,61.137,61.137,0,0,0,.7,11.019c.29,1.889.674,3.763,1.138,5.57.444,1.732.977,3.456,1.582,5.123a54.332,54.332,0,0,0,4.212,8.95A56.872,56.872,0,0,0,66.032-310.03a60.6,60.6,0,0,0,5.256,4.307c1.462,1.068,2.964,2.062,4.462,2.956a38.694,38.694,0,0,0,4.255,2.247,12.046,12.046,0,0,0,1.4.6,9.206,9.206,0,0,0,3,.6,4.727,4.727,0,0,0,.977-.1,4.927,4.927,0,0,0,1.625-.7,7.873,7.873,0,0,0,1.28-1.042,9.34,9.34,0,0,0,1.139-1.364l.147-.316,3.372,2.663a17.1,17.1,0,0,0-1.7,3.4,16.049,16.049,0,0,0-.728,3.687v0Zm35.234-4.667h0c0-.005,0-.021-.007-.048a12.1,12.1,0,0,0-.682-2.363c-.059-.151-.114-.285-.168-.411a16.567,16.567,0,0,0-1.529-2.807,17.723,17.723,0,0,0-2.671-3.093,26.893,26.893,0,0,0-2.56-2.053c-.4-.286-.817-.571-1.238-.847-.435-.287-.89-.575-1.351-.857-.837-.511-1.732-1.025-2.658-1.526l-.028-.015-.061-.033-.025-.014-.013-.007c-2.441-1.315-4.315-2.129-4.334-2.137l.088.027c2,.614,3.812,1.154,4.981,1.5,3.682,1.088,8.8,2.551,12.257,3.344a7.9,7.9,0,0,0,1.778.2,9.878,9.878,0,0,0,3.852-.841,15.492,15.492,0,0,0,3.167-1.852,19.678,19.678,0,0,0,2.938-2.693,3.652,3.652,0,0,0,1.211.17,6.322,6.322,0,0,0,3.8-1.387,16.091,16.091,0,0,0,4.664-6.583l.019-.044.012-.028c.318-.735.638-1.462.895-2.046l.031-.071c.011-.024.022-.049.032-.073l0-.005,0-.005.069-.157.016-.038.007-.014.007-.017c.409-.926.842-1.911,1.254-2.874.581-1.362,1.038-2.5,1.437-3.569a46.806,46.806,0,0,0,2.051-7.043,50.163,50.163,0,0,0,.973-8.7c.019-.625.029-1.288.029-1.973a88.081,88.081,0,0,0-.56-9.464c-1.934-17.881-10.415-27.334-14.971-32.413l-.016-.019-.008-.008c-.337-.376-.615-.686-.872-.979-1.1-.888-2.065-1.658-2.96-2.353a65.449,65.449,0,0,0-5.387-3.839,51.115,51.115,0,0,0-7.317-3.71,10.606,10.606,0,0,0-4.074-1,4.785,4.785,0,0,0-1.525.231,3.355,3.355,0,0,0-.972.507,2.455,2.455,0,0,0-.662.736,1.614,1.614,0,0,1-.231.036h-.016c-.054,0-.1.006-.151.006h-.014c-.53,0-1.42-.218-1.42-1.676a9.746,9.746,0,0,1,.636-3.354,3.275,3.275,0,0,1,1.716-2.11.8.8,0,0,1,.2-.018,21.682,21.682,0,0,1,5.3,1.29c.355.121.733.256,1.121.4a54.193,54.193,0,0,1,11.893,6.3c7.808,5.461,18.107,15.754,22.828,33.775a74.731,74.731,0,0,1,2.019,16.51,52.642,52.642,0,0,1-2.086,14.764,80.163,80.163,0,0,1-5.638,13.839,42.594,42.594,0,0,1-7,9.805,65.369,65.369,0,0,1-8.277,7.405,78.182,78.182,0,0,1-6.908,4.68c-1.624.976-2.686,1.528-2.883,1.628l-.007,0Zm-41.27-4.944a5.4,5.4,0,0,1-2.483-.842,40.218,40.218,0,0,1-4.4-2.223,57.163,57.163,0,0,1-9.817-7.151,46.843,46.843,0,0,1-15.681-31.982c-1.012-15.575,2.98-26.974,6.506-33.795a49.59,49.59,0,0,1,5.436-8.4,27.226,27.226,0,0,1,2.538-2.787,19.9,19.9,0,0,1,2-2.13c1.06-.972,2.606-2.131,3.955-2.131a2.093,2.093,0,0,1,.714.121,2.045,2.045,0,0,1,1.448,1.261c.264.967-.556,2.107-1.2,2.88a6.4,6.4,0,0,1-.765.613l-.01.008-.005,0a38.533,38.533,0,0,0-4.207,3.562,37.647,37.647,0,0,0-5.729,7.243,40.945,40.945,0,0,0-2.689,5.24,45.111,45.111,0,0,0-2.175,6.447A52.759,52.759,0,0,0,56.543-359a64.887,64.887,0,0,0-.256,9.149,53.521,53.521,0,0,0,1.373,10.173,47.992,47.992,0,0,0,2.881,8.524,46.577,46.577,0,0,0,8.2,12.46,47.5,47.5,0,0,0,4.279,4.118,45.269,45.269,0,0,0,3.7,2.83A30.6,30.6,0,0,0,80.31-309.6l0,0a6.282,6.282,0,0,0,2.6.665,3.086,3.086,0,0,0,1.611-.41,3.146,3.146,0,0,0,1.271-1.572,3.591,3.591,0,0,0,.124-2.915,3.038,3.038,0,0,0-1.088-1.233,3.3,3.3,0,0,0-.677-.349l-.01,0a9.691,9.691,0,0,1-1.784-.563,21.081,21.081,0,0,1-4.617-2.662c-3.44-2.555-8.523-7.656-13.2-17.452s-3.441-20.392-1.578-27.553a62.993,62.993,0,0,1,3.374-9.608c1.039-2.329,1.835-3.708,1.842-3.72a5.149,5.149,0,0,1,.868-.916,3.713,3.713,0,0,1,2.319-.916h.07a16.92,16.92,0,0,0,.71,2.284c.178.462.387.947.62,1.443a11.529,11.529,0,0,0-1.236,1.375,22.592,22.592,0,0,0-2.775,4.732,34.467,34.467,0,0,0-2.449,8.574,54.112,54.112,0,0,0-.341,12.979,31.918,31.918,0,0,0,1.447,7.166,33.019,33.019,0,0,0,2.732,6.142,39.38,39.38,0,0,0,7.5,9.3,46.985,46.985,0,0,0,3.855,3.2c1.081.8,2.2,1.563,3.317,2.257a33.76,33.76,0,0,0,3.2,1.78,6.5,6.5,0,0,1,1.026.559,4.151,4.151,0,0,1,1.5,1.607,2.95,2.95,0,0,1,.212.7,11.44,11.44,0,0,0-.046,1.26c.005.2.016.392.031.575a6.949,6.949,0,0,1-.2.893l-3.291,7.349a5.823,5.823,0,0,1-.669.845,3.443,3.443,0,0,1-1.657,1.05A2.256,2.256,0,0,1,84.469-302.692Zm53.582-15.323a.956.956,0,0,1-.634-.207,1.9,1.9,0,0,1-.609-1.409q0-.067,0-.135a3.666,3.666,0,0,1,.278-1.352,4.322,4.322,0,0,1,.5-.9,4.462,4.462,0,0,1,.467-.55,20.171,20.171,0,0,0,2.444-3.758,44.65,44.65,0,0,0,2.245-4.861c.481-1.219.919-2.478,1.3-3.744a51.84,51.84,0,0,0,2.184-12.658c.039-.808.059-1.644.059-2.484,0-1.7-.084-3.424-.248-5.117a55.413,55.413,0,0,0-.949-6.149c-.151-.712-.321-1.442-.506-2.17a45.613,45.613,0,0,0-2.5-7.252,44.32,44.32,0,0,0-3.322-6.145,45.6,45.6,0,0,0-4.726-6.084c-1.009-1.1-2.089-2.163-3.212-3.172a52.337,52.337,0,0,0-11.729-7.919c-.412-.2-.767-.375-1.067-.518l-.013-.006-.013-.006-.01,0a8.479,8.479,0,0,1-.757-.385,1.993,1.993,0,0,1-.911-1.473c0-.045-.005-.09-.005-.134a1.512,1.512,0,0,1,.464-1.114,2.6,2.6,0,0,1,1.842-.707,3.869,3.869,0,0,1,1,.14,27.469,27.469,0,0,1,4.14,1.978c.284.157.592.333.914.523a54.461,54.461,0,0,1,7.51,5.334c.872.739,1.734,1.518,2.561,2.316a50.289,50.289,0,0,1,6.745,8.006,47.24,47.24,0,0,1,6.78,15.363,57.856,57.856,0,0,1,1.63,13.66,61.048,61.048,0,0,1-3.238,19.44,58.575,58.575,0,0,1-4.9,10.913l0,.007-.014.023,0,0-.025.043,0,.006c-.02.033-.038.063-.052.088a5.078,5.078,0,0,1-.787,1l-.013.014-.007.007-.008.008a7.048,7.048,0,0,1-.813.7A3.733,3.733,0,0,1,138.051-318.015Zm-50.827-4.26h0c-.134-.074-.272-.152-.415-.233a33.414,33.414,0,0,1-5.883-4.307,30.674,30.674,0,0,1-9.9-19.912,52.568,52.568,0,0,1-.065-13.091,19.886,19.886,0,0,1,2.163-6.356L78-361.209a57.174,57.174,0,0,0-1,7.3,48.664,48.664,0,0,0-.054,6.871,27.65,27.65,0,0,0,1.305,7.007,22.39,22.39,0,0,0,3.1,5.866,29.981,29.981,0,0,0,3.9,4.358,31.043,31.043,0,0,0,4.747,3.65l-2.77,3.877Zm49.932-7.032-6.363-7.51a47.957,47.957,0,0,0,2.315-8.492,36.637,36.637,0,0,0-.526-16.973,32.222,32.222,0,0,0-8.475-13.493,32.264,32.264,0,0,0-5.727-4.488l-.012.02a14.2,14.2,0,0,0,.6-1.46c.063-.181.121-.362.172-.536l.009,0a33.312,33.312,0,0,1,6.087,4.85,38.044,38.044,0,0,1,5.029,6.129,35.273,35.273,0,0,1,4.161,8.717,34.966,34.966,0,0,1,1.541,10.061,48.061,48.061,0,0,1-.765,9.012,49.423,49.423,0,0,1-2.42,8.979l1.849,2.176a44.251,44.251,0,0,0,2.829-9.191,44.315,44.315,0,0,0-.676-21.037,38.946,38.946,0,0,0-10.14-16.818,32.328,32.328,0,0,0-6.965-5.293c.108-.668.193-1.38.252-2.117.083-1.029.1-1.857.1-2.259,0-.144,0-.239,0-.272h0l.01,0c.159.077.6.3,1.269.679.469.269.951.561,1.432.87.827.532,1.658,1.112,2.469,1.724l.067.051c.108.082.216.164.322.248.219.169.45.352.688.544.932.754,1.84,1.555,2.7,2.38a40.719,40.719,0,0,1,6.848,8.617l.033.057.054.092.037.063,0,.006.014.024a39.629,39.629,0,0,1,4.733,12.917,63.49,63.49,0,0,1,1.048,11.288c0,.755-.015,1.515-.046,2.257v.024c0,.065,0,.13-.008.194l-.016.348c0,.018,0,.036,0,.054v.011c0,.023,0,.046,0,.069a48.875,48.875,0,0,1-1.359,9.248,37.439,37.439,0,0,1-2.015,5.978c-.022.052-.045.1-.067.152-.365.811-.677,1.4-.875,1.754-.1.173-.169.292-.2.335v0Zm-34.248-7.659c-.31,0-.625-.013-.937-.039a8.957,8.957,0,0,1-7.422-5.049,21.846,21.846,0,0,1-2.169-9.93A21.489,21.489,0,0,1,92.9-356.8a13.886,13.886,0,0,1,1.595-4.074l0-.007.01-.016,0,0,.013-.021.009-.015.009-.014c.006-.01.013-.02.018-.03l.011-.017.015-.024.007-.011.007-.011.01-.017.029-.046a9.2,9.2,0,0,1,8.272-4.284c.086,0,.169,0,.254,0a8.631,8.631,0,0,1,7.778,4.41c.064.11.128.224.19.338a18.948,18.948,0,0,1,1.826,8.66,23.427,23.427,0,0,1-1.93,9.8,10.271,10.271,0,0,1-2.295,3.12A8.426,8.426,0,0,1,102.908-336.965ZM128.946-339h0l-1.856-2.188s.182-.54.407-1.511c0-.014.007-.029.01-.044a32.93,32.93,0,0,0,.617-3.648v-.009c0-.01,0-.019,0-.029v-.006l0-.023v-.024c0-.005,0-.01,0-.016s0-.011,0-.017l.022-.207a37.66,37.66,0,0,0,.2-3.9c0-.728-.021-1.471-.064-2.209a39.17,39.17,0,0,0-1.2-7.616,24.859,24.859,0,0,0-3.031-7.006,25.525,25.525,0,0,0-3.892-4.765,25.477,25.477,0,0,0-2.323-1.981c-.346-.261-.695-.509-1.035-.736a15.66,15.66,0,0,0-1.382-.839l-.03-.015-.005,0-.009,0,0,0,.006-.006a16.212,16.212,0,0,0,1.084-1.313c.073-.1.17-.229.27-.37.146-.205.29-.416.427-.626l-.034.061.005,0a25.845,25.845,0,0,1,4.9,3.734,30.955,30.955,0,0,1,4.188,4.9,30.087,30.087,0,0,1,3.614,7.129c3.767,10.793-.7,22.778-.892,23.283Z" transform="translate(147 588)"/>
  </g>
</svg>
